STARTFONT 2.1
FONT -memleek-leggie-bold-r-normal-vga-16----c-90-iso10646-1
SIZE 16 75 75
FONTBOUNDINGBOX 9 16 0 -3
STARTPROPERTIES 19
ADD_STYLE_NAME "vga"
AVERAGE_WIDTH 90
CAP_HEIGHT 9
CHARSET_ENCODING "1"
CHARSET_REGISTRY "iso10646"
COMMENT "Please visit https://memleek.org/leggie"
COPYRIGHT "2012-2018 W. Kerr. Licensed under CC BY 4.0"
DEFAULT_CHAR 65535
FAMILY_NAME "leggie"
FONT "leggie"
FONT_ASCENT 13
FONT_DESCENT 3
FOUNDRY "memleek"
PIXEL_SIZE 16
SETWIDTH_NAME "normal"
SLANT "r"
SPACING "c"
WEIGHT_NAME "bold"
X_HEIGHT 7
ENDPROPERTIES
CHARS 628
STARTCHAR SPACE
ENCODING 32
SWIDTH 540 0
DWIDTH 9 0
BBX 9 16 0 -3
BITMAP
0000
0000
0000
0000
0000
0000
0000
0000
0000
0000
0000
0000
0000
0000
0000
000E
ENDCHAR
STARTCHAR EXCLAMATION MARK
ENCODING 33
SWIDTH 540 0
DWIDTH 9 0
BBX 9 16 0 -3
BITMAP
0000
0000
0000
0001
1801
1801
1801
1801
1801
1800
0001
1801
1800
0000
0000
000E
ENDCHAR
STARTCHAR QUOTATION MARK
ENCODING 34
SWIDTH 540 0
DWIDTH 9 0
BBX 9 16 0 -3
BITMAP
0000
0003
3603
3603
3603
3600
0000
0000
0000
0000
0000
0000
0000
0000
0000
000E
ENDCHAR
STARTCHAR NUMBER SIGN
ENCODING 35
SWIDTH 540 0
DWIDTH 9 0
BBX 9 16 0 -3
BITMAP
0000
0000
0000
0003
3603
3603
3607
7F03
3607
7F03
3603
3603
3600
0000
0000
000E
ENDCHAR
STARTCHAR DOLLAR SIGN
ENCODING 36
SWIDTH 540 0
DWIDTH 9 0
BBX 9 16 0 -3
BITMAP
0000
0000
0C00
0C03
3F06
6006
6006
6003
3E00
0300
0300
0307
7E01
1801
1800
000E
ENDCHAR
STARTCHAR PERCENT SIGN
ENCODING 37
SWIDTH 540 0
DWIDTH 9 0
BBX 9 16 0 -3
BITMAP
0000
0000
0000
0007
700D
DA07
7600
0C01
1803
3006
6E05
5B00
0E00
0000
0000
000E
ENDCHAR
STARTCHAR AMPERSAND
ENCODING 38
SWIDTH 540 0
DWIDTH 9 0
BBX 9 16 0 -3
BITMAP
0000
0000
0000
0003
3C06
6606
6606
6603
3C06
6106
6306
6E03
3B00
0000
0000
000E
ENDCHAR
STARTCHAR APOSTROPHE
ENCODING 39
SWIDTH 540 0
DWIDTH 9 0
BBX 9 16 0 -3
BITMAP
0000
0001
1801
1801
1801
1800
0000
0000
0000
0000
0000
0000
0000
0000
0000
000E
ENDCHAR
STARTCHAR LEFT PARENTHESIS
ENCODING 40
SWIDTH 540 0
DWIDTH 9 0
BBX 9 16 0 -3
BITMAP
0000
0600
0C01
1801
1801
1801
1801
1801
1801
1801
1801
1801
1801
1800
0C00
060E
ENDCHAR
STARTCHAR RIGHT PARENTHESIS
ENCODING 41
SWIDTH 540 0
DWIDTH 9 0
BBX 9 16 0 -3
BITMAP
0003
3001
1800
0C00
0C00
0C00
0C00
0C00
0C00
0C00
0C00
0C00
0C00
0C01
1803
300E
ENDCHAR
STARTCHAR ASTERISK
ENCODING 42
SWIDTH 540 0
DWIDTH 9 0
BBX 9 16 0 -3
BITMAP
0000
0000
0000
0000
0000
0003
3601
1C07
7F01
1C03
3600
0000
0000
0000
0000
000E
ENDCHAR
STARTCHAR PLUS SIGN
ENCODING 43
SWIDTH 540 0
DWIDTH 9 0
BBX 9 16 0 -3
BITMAP
0000
0000
0000
0000
0000
0001
1C01
1C07
7F01
1C01
1C00
0000
0000
0000
0000
000E
ENDCHAR
STARTCHAR COMMA
ENCODING 44
SWIDTH 540 0
DWIDTH 9 0
BBX 9 16 0 -3
BITMAP
0000
0000
0000
0000
0000
0000
0000
0000
0000
0000
0001
1801
1801
1803
3000
000E
ENDCHAR
STARTCHAR HYPHEN-MINUS
ENCODING 45
SWIDTH 540 0
DWIDTH 9 0
BBX 9 16 0 -3
BITMAP
0000
0000
0000
0000
0000
0000
0000
0007
7F00
0000
0000
0000
0000
0000
0000
000E
ENDCHAR
STARTCHAR FULL STOP
ENCODING 46
SWIDTH 540 0
DWIDTH 9 0
BBX 9 16 0 -3
BITMAP
0000
0000
0000
0000
0000
0000
0000
0000
0000
0000
0001
1801
1800
0000
0000
000E
ENDCHAR
STARTCHAR SOLIDUS
ENCODING 47
SWIDTH 540 0
DWIDTH 9 0
BBX 9 16 0 -3
BITMAP
0000
0000
0000
0300
0300
0600
0600
0C00
0C01
1801
1803
3003
3006
6006
6000
000E
ENDCHAR
STARTCHAR DIGIT ZERO
ENCODING 48
SWIDTH 540 0
DWIDTH 9 0
BBX 9 16 0 -3
BITMAP
0000
0000
0000
0003
3E06
6306
6307
7306
6B06
6706
6306
6303
3E00
0000
0000
000E
ENDCHAR
STARTCHAR DIGIT ONE
ENCODING 49
SWIDTH 540 0
DWIDTH 9 0
BBX 9 16 0 -3
BITMAP
0000
0000
0000
0000
0200
0600
0E01
1E03
3600
0600
0600
0600
0600
0000
0000
000E
ENDCHAR
STARTCHAR DIGIT TWO
ENCODING 50
SWIDTH 540 0
DWIDTH 9 0
BBX 9 16 0 -3
BITMAP
0000
0000
0000
0007
7E00
0300
0300
0300
0600
0C01
1803
3007
7F00
0000
0000
000E
ENDCHAR
STARTCHAR DIGIT THREE
ENCODING 51
SWIDTH 540 0
DWIDTH 9 0
BBX 9 16 0 -3
BITMAP
0000
0000
0000
0007
7E00
0300
0300
0301
1E00
0300
0300
0307
7E00
0000
0000
000E
ENDCHAR
STARTCHAR DIGIT FOUR
ENCODING 52
SWIDTH 540 0
DWIDTH 9 0
BBX 9 16 0 -3
BITMAP
0000
0000
0000
0000
0300
0700
0F01
1B03
3307
7F00
0300
0300
0300
0000
0000
000E
ENDCHAR
STARTCHAR DIGIT FIVE
ENCODING 53
SWIDTH 540 0
DWIDTH 9 0
BBX 9 16 0 -3
BITMAP
0000
0000
0000
0007
7F06
6006
6007
7E00
0300
0300
0300
0307
7E00
0000
0000
000E
ENDCHAR
STARTCHAR DIGIT SIX
ENCODING 54
SWIDTH 540 0
DWIDTH 9 0
BBX 9 16 0 -3
BITMAP
0000
0000
0000
0003
3E06
6006
6007
7E06
6306
6306
6306
6303
3E00
0000
0000
000E
ENDCHAR
STARTCHAR DIGIT SEVEN
ENCODING 55
SWIDTH 540 0
DWIDTH 9 0
BBX 9 16 0 -3
BITMAP
0000
0000
0000
0007
7F00
0300
0300
0600
0C01
1801
1801
1801
1800
0000
0000
000E
ENDCHAR
STARTCHAR DIGIT EIGHT
ENCODING 56
SWIDTH 540 0
DWIDTH 9 0
BBX 9 16 0 -3
BITMAP
0000
0000
0000
0003
3E06
6306
6306
6303
3E06
6306
6306
6303
3E00
0000
0000
000E
ENDCHAR
STARTCHAR DIGIT NINE
ENCODING 57
SWIDTH 540 0
DWIDTH 9 0
BBX 9 16 0 -3
BITMAP
0000
0000
0000
0003
3E06
6306
6306
6306
6303
3F00
0300
0303
3E00
0000
0000
000E
ENDCHAR
STARTCHAR COLON
ENCODING 58
SWIDTH 540 0
DWIDTH 9 0
BBX 9 16 0 -3
BITMAP
0000
0000
0000
0000
0000
0001
1801
1800
0000
0000
0001
1801
1800
0000
0000
000E
ENDCHAR
STARTCHAR SEMICOLON
ENCODING 59
SWIDTH 540 0
DWIDTH 9 0
BBX 9 16 0 -3
BITMAP
0000
0000
0000
0000
0000
0001
1801
1800
0000
0000
0001
1801
1803
3000
0000
000E
ENDCHAR
STARTCHAR LESS-THAN SIGN
ENCODING 60
SWIDTH 540 0
DWIDTH 9 0
BBX 9 16 0 -3
BITMAP
0000
0000
0000
0300
0600
0C01
1803
3006
6003
3001
1800
0C00
0600
0300
0000
000E
ENDCHAR
STARTCHAR EQUALS SIGN
ENCODING 61
SWIDTH 540 0
DWIDTH 9 0
BBX 9 16 0 -3
BITMAP
0000
0000
0000
0000
0000
0000
0007
7F00
0007
7F00
0000
0000
0000
0000
0000
000E
ENDCHAR
STARTCHAR GREATER-THAN SIGN
ENCODING 62
SWIDTH 540 0
DWIDTH 9 0
BBX 9 16 0 -3
BITMAP
0000
0000
0006
6003
3001
1800
0C00
0600
0300
0600
0C01
1803
3006
6000
0000
000E
ENDCHAR
STARTCHAR QUESTION MARK
ENCODING 63
SWIDTH 540 0
DWIDTH 9 0
BBX 9 16 0 -3
BITMAP
0000
0000
0000
0007
7E00
0300
0300
0600
0C01
1800
0001
1801
1800
0000
0000
000E
ENDCHAR
STARTCHAR COMMERCIAL AT
ENCODING 64
SWIDTH 540 0
DWIDTH 9 0
BBX 9 16 0 -3
BITMAP
0000
0000
0000
0003
3E06
6306
6F07
7F07
7307
7F06
6E06
6003
3E00
0000
0000
000E
ENDCHAR
STARTCHAR LATIN CAPITAL LETTER A
ENCODING 65
SWIDTH 540 0
DWIDTH 9 0
BBX 9 16 0 -3
BITMAP
0000
0000
0000
0003
3E06
6306
6306
6306
6307
7F06
6306
6306
6300
0000
0000
000E
ENDCHAR
STARTCHAR LATIN CAPITAL LETTER B
ENCODING 66
SWIDTH 540 0
DWIDTH 9 0
BBX 9 16 0 -3
BITMAP
0000
0000
0000
0007
7E06
6306
6306
6307
7E06
6306
6306
6307
7E00
0000
0000
000E
ENDCHAR
STARTCHAR LATIN CAPITAL LETTER C
ENCODING 67
SWIDTH 540 0
DWIDTH 9 0
BBX 9 16 0 -3
BITMAP
0000
0000
0000
0003
3F06
6006
6006
6006
6006
6006
6006
6003
3F00
0000
0000
000E
ENDCHAR
STARTCHAR LATIN CAPITAL LETTER D
ENCODING 68
SWIDTH 540 0
DWIDTH 9 0
BBX 9 16 0 -3
BITMAP
0000
0000
0000
0007
7E06
6306
6306
6306
6306
6306
6306
6307
7E00
0000
0000
000E
ENDCHAR
STARTCHAR LATIN CAPITAL LETTER E
ENCODING 69
SWIDTH 540 0
DWIDTH 9 0
BBX 9 16 0 -3
BITMAP
0000
0000
0000
0007
7F06
6006
6006
6007
7C06
6006
6006
6007
7F00
0000
0000
000E
ENDCHAR
STARTCHAR LATIN CAPITAL LETTER F
ENCODING 70
SWIDTH 540 0
DWIDTH 9 0
BBX 9 16 0 -3
BITMAP
0000
0000
0000
0007
7F06
6006
6006
6007
7C06
6006
6006
6006
6000
0000
0000
000E
ENDCHAR
STARTCHAR LATIN CAPITAL LETTER G
ENCODING 71
SWIDTH 540 0
DWIDTH 9 0
BBX 9 16 0 -3
BITMAP
0000
0000
0000
0003
3F06
6006
6006
6006
6706
6306
6306
6303
3F00
0000
0000
000E
ENDCHAR
STARTCHAR LATIN CAPITAL LETTER H
ENCODING 72
SWIDTH 540 0
DWIDTH 9 0
BBX 9 16 0 -3
BITMAP
0000
0000
0000
0006
6306
6306
6306
6307
7F06
6306
6306
6306
6300
0000
0000
000E
ENDCHAR
STARTCHAR LATIN CAPITAL LETTER I
ENCODING 73
SWIDTH 540 0
DWIDTH 9 0
BBX 9 16 0 -3
BITMAP
0000
0000
0000
0000
3C00
1800
1800
1800
1800
1800
1800
1800
3C00
0000
0000
0000
ENDCHAR
STARTCHAR LATIN CAPITAL LETTER J
ENCODING 74
SWIDTH 540 0
DWIDTH 9 0
BBX 9 16 0 -3
BITMAP
0000
0000
0000
0000
0300
0300
0300
0300
0300
0300
0306
6303
3E00
0000
0000
000E
ENDCHAR
STARTCHAR LATIN CAPITAL LETTER K
ENCODING 75
SWIDTH 540 0
DWIDTH 9 0
BBX 9 16 0 -3
BITMAP
0000
0000
0000
0006
6306
6606
6C07
7807
7007
7806
6C06
6606
6300
0000
0000
000E
ENDCHAR
STARTCHAR LATIN CAPITAL LETTER L
ENCODING 76
SWIDTH 540 0
DWIDTH 9 0
BBX 9 16 0 -3
BITMAP
0000
0000
0000
0006
6006
6006
6006
6006
6006
6006
6006
6007
7F00
0000
0000
000E
ENDCHAR
STARTCHAR LATIN CAPITAL LETTER M
ENCODING 77
SWIDTH 540 0
DWIDTH 9 0
BBX 9 16 0 -3
BITMAP
0000
0000
0000
0006
6307
7707
7F06
6B06
6306
6306
6306
6306
6300
0000
0000
000E
ENDCHAR
STARTCHAR LATIN CAPITAL LETTER N
ENCODING 78
SWIDTH 540 0
DWIDTH 9 0
BBX 9 16 0 -3
BITMAP
0000
0000
0000
0006
6306
6307
7307
7B07
7F06
6F06
6706
6306
6300
0000
0000
000E
ENDCHAR
STARTCHAR LATIN CAPITAL LETTER O
ENCODING 79
SWIDTH 540 0
DWIDTH 9 0
BBX 9 16 0 -3
BITMAP
0000
0000
0000
0003
3E06
6306
6306
6306
6306
6306
6306
6303
3E00
0000
0000
000E
ENDCHAR
STARTCHAR LATIN CAPITAL LETTER P
ENCODING 80
SWIDTH 540 0
DWIDTH 9 0
BBX 9 16 0 -3
BITMAP
0000
0000
0000
0007
7E06
6306
6306
6306
6307
7E06
6006
6006
6000
0000
0000
000E
ENDCHAR
STARTCHAR LATIN CAPITAL LETTER Q
ENCODING 81
SWIDTH 540 0
DWIDTH 9 0
BBX 9 16 0 -3
BITMAP
0000
0000
0000
0003
3E06
6306
6306
6306
6306
6306
6506
6603
3B00
0000
0000
000E
ENDCHAR
STARTCHAR LATIN CAPITAL LETTER R
ENCODING 82
SWIDTH 540 0
DWIDTH 9 0
BBX 9 16 0 -3
BITMAP
0000
0000
0000
0007
7E06
6306
6306
6306
6307
7E06
6C06
6606
6300
0000
0000
000E
ENDCHAR
STARTCHAR LATIN CAPITAL LETTER S
ENCODING 83
SWIDTH 540 0
DWIDTH 9 0
BBX 9 16 0 -3
BITMAP
0000
0000
0000
0003
3F06
6006
6006
6003
3E00
0300
0300
0307
7E00
0000
0000
000E
ENDCHAR
STARTCHAR LATIN CAPITAL LETTER T
ENCODING 84
SWIDTH 540 0
DWIDTH 9 0
BBX 9 16 0 -3
BITMAP
0000
0000
0000
0007
7E01
1801
1801
1801
1801
1801
1801
1801
1800
0000
0000
000E
ENDCHAR
STARTCHAR LATIN CAPITAL LETTER U
ENCODING 85
SWIDTH 540 0
DWIDTH 9 0
BBX 9 16 0 -3
BITMAP
0000
0000
0000
0006
6306
6306
6306
6306
6306
6306
6306
6303
3E00
0000
0000
000E
ENDCHAR
STARTCHAR LATIN CAPITAL LETTER V
ENCODING 86
SWIDTH 540 0
DWIDTH 9 0
BBX 9 16 0 -3
BITMAP
0000
0000
0000
0006
6306
6306
6306
6303
3603
3601
1C01
1C00
0800
0000
0000
000E
ENDCHAR
STARTCHAR LATIN CAPITAL LETTER W
ENCODING 87
SWIDTH 540 0
DWIDTH 9 0
BBX 9 16 0 -3
BITMAP
0000
0000
0000
0006
6306
6306
6306
6306
6306
6B07
7F07
7706
6300
0000
0000
000E
ENDCHAR
STARTCHAR LATIN CAPITAL LETTER X
ENCODING 88
SWIDTH 540 0
DWIDTH 9 0
BBX 9 16 0 -3
BITMAP
0000
0000
0000
0006
6306
6306
6303
3601
1C03
3606
6306
6306
6300
0000
0000
000E
ENDCHAR
STARTCHAR LATIN CAPITAL LETTER Y
ENCODING 89
SWIDTH 540 0
DWIDTH 9 0
BBX 9 16 0 -3
BITMAP
0000
0000
0000
0006
6306
6306
6303
3601
1E00
0C00
0C01
1801
1800
0000
0000
000E
ENDCHAR
STARTCHAR LATIN CAPITAL LETTER Z
ENCODING 90
SWIDTH 540 0
DWIDTH 9 0
BBX 9 16 0 -3
BITMAP
0000
0000
0000
0007
7F00
0300
0600
0C01
1803
3006
6006
6007
7F00
0000
0000
000E
ENDCHAR
STARTCHAR LEFT SQUARE BRACKET
ENCODING 91
SWIDTH 540 0
DWIDTH 9 0
BBX 9 16 0 -3
BITMAP
0001
1E01
1801
1801
1801
1801
1801
1801
1801
1801
1801
1801
1801
1801
1801
1E0E
ENDCHAR
STARTCHAR REVERSE SOLIDUS
ENCODING 92
SWIDTH 540 0
DWIDTH 9 0
BBX 9 16 0 -3
BITMAP
0000
0000
0006
6006
6003
3003
3001
1801
1800
0C00
0C00
0600
0600
0300
0300
000E
ENDCHAR
STARTCHAR RIGHT SQUARE BRACKET
ENCODING 93
SWIDTH 540 0
DWIDTH 9 0
BBX 9 16 0 -3
BITMAP
0003
3C00
0C00
0C00
0C00
0C00
0C00
0C00
0C00
0C00
0C00
0C00
0C00
0C00
0C03
3C0E
ENDCHAR
STARTCHAR CIRCUMFLEX ACCENT
ENCODING 94
SWIDTH 540 0
DWIDTH 9 0
BBX 9 16 0 -3
BITMAP
0000
0000
0801
1C03
3606
6300
0000
0000
0000
0000
0000
0000
0000
0000
0000
000E
ENDCHAR
STARTCHAR LOW LINE
ENCODING 95
SWIDTH 540 0
DWIDTH 9 0
BBX 9 16 0 -3
BITMAP
0000
0000
0000
0000
0000
0000
0000
0000
0000
0000
0000
0000
0000
0007
7F00
000E
ENDCHAR
STARTCHAR GRAVE ACCENT
ENCODING 96
SWIDTH 540 0
DWIDTH 9 0
BBX 9 16 0 -3
BITMAP
0000
0000
0003
3001
1800
0C00
0600
0000
0000
0000
0000
0000
0000
0000
0000
000E
ENDCHAR
STARTCHAR LATIN SMALL LETTER A
ENCODING 97
SWIDTH 540 0
DWIDTH 9 0
BBX 9 16 0 -3
BITMAP
0000
0000
0000
0000
0000
0003
3E00
0300
0303
3F06
6306
6303
3F00
0000
0000
000E
ENDCHAR
STARTCHAR LATIN SMALL LETTER B
ENCODING 98
SWIDTH 540 0
DWIDTH 9 0
BBX 9 16 0 -3
BITMAP
0000
0006
6006
6006
6006
6007
7E06
6306
6306
6306
6306
6307
7E00
0000
0000
000E
ENDCHAR
STARTCHAR LATIN SMALL LETTER C
ENCODING 99
SWIDTH 540 0
DWIDTH 9 0
BBX 9 16 0 -3
BITMAP
0000
0000
0000
0000
0000
0003
3F06
6006
6006
6006
6006
6003
3F00
0000
0000
000E
ENDCHAR
STARTCHAR LATIN SMALL LETTER D
ENCODING 100
SWIDTH 540 0
DWIDTH 9 0
BBX 9 16 0 -3
BITMAP
0000
0000
0300
0300
0300
0303
3F06
6306
6306
6306
6306
6303
3F00
0000
0000
000E
ENDCHAR
STARTCHAR LATIN SMALL LETTER E
ENCODING 101
SWIDTH 540 0
DWIDTH 9 0
BBX 9 16 0 -3
BITMAP
0000
0000
0000
0000
0000
0003
3E06
6306
6307
7F06
6006
6003
3E00
0000
0000
000E
ENDCHAR
STARTCHAR LATIN SMALL LETTER F
ENCODING 102
SWIDTH 540 0
DWIDTH 9 0
BBX 9 16 0 -3
BITMAP
0000
0001
1E03
3003
3003
3003
3803
3003
3003
3003
3003
3003
3000
0000
0000
000E
ENDCHAR
STARTCHAR LATIN SMALL LETTER G
ENCODING 103
SWIDTH 540 0
DWIDTH 9 0
BBX 9 16 0 -3
BITMAP
0000
0000
0000
0000
0000
0003
3F06
6306
6306
6306
6306
6303
3F00
0300
0301
1E0E
ENDCHAR
STARTCHAR LATIN SMALL LETTER H
ENCODING 104
SWIDTH 540 0
DWIDTH 9 0
BBX 9 16 0 -3
BITMAP
0000
0006
6006
6006
6006
6007
7E06
6306
6306
6306
6306
6306
6300
0000
0000
000E
ENDCHAR
STARTCHAR LATIN SMALL LETTER I
ENCODING 105
SWIDTH 540 0
DWIDTH 9 0
BBX 9 16 0 -3
BITMAP
0000
0000
0000
0C00
0C00
0001
1C00
0C00
0C00
0C00
0C00
0C00
0C00
0000
0000
000E
ENDCHAR
STARTCHAR LATIN SMALL LETTER J
ENCODING 106
SWIDTH 540 0
DWIDTH 9 0
BBX 9 16 0 -3
BITMAP
0000
0000
0000
0C00
0C00
0001
1C00
0C00
0C00
0C00
0C00
0C00
0C00
0C00
0C01
180E
ENDCHAR
STARTCHAR LATIN SMALL LETTER K
ENCODING 107
SWIDTH 540 0
DWIDTH 9 0
BBX 9 16 0 -3
BITMAP
0000
0006
6006
6006
6006
6006
6306
6606
6C07
7806
6C06
6606
6300
0000
0000
000E
ENDCHAR
STARTCHAR LATIN SMALL LETTER L
ENCODING 108
SWIDTH 540 0
DWIDTH 9 0
BBX 9 16 0 -3
BITMAP
0000
0003
3003
3003
3003
3003
3003
3003
3003
3003
3003
3001
1E00
0000
0000
000E
ENDCHAR
STARTCHAR LATIN SMALL LETTER M
ENCODING 109
SWIDTH 540 0
DWIDTH 9 0
BBX 9 16 0 -3
BITMAP
0000
0000
0000
0000
0000
0007
7606
6B06
6B06
6B06
6B06
6B06
6300
0000
0000
000E
ENDCHAR
STARTCHAR LATIN SMALL LETTER N
ENCODING 110
SWIDTH 540 0
DWIDTH 9 0
BBX 9 16 0 -3
BITMAP
0000
0000
0000
0000
0000
0007
7E06
6306
6306
6306
6306
6306
6300
0000
0000
000E
ENDCHAR
STARTCHAR LATIN SMALL LETTER O
ENCODING 111
SWIDTH 540 0
DWIDTH 9 0
BBX 9 16 0 -3
BITMAP
0000
0000
0000
0000
0000
0003
3E06
6306
6306
6306
6306
6303
3E00
0000
0000
000E
ENDCHAR
STARTCHAR LATIN SMALL LETTER P
ENCODING 112
SWIDTH 540 0
DWIDTH 9 0
BBX 9 16 0 -3
BITMAP
0000
0000
0000
0000
0000
0007
7E06
6306
6306
6306
6306
6307
7E06
6006
6006
600E
ENDCHAR
STARTCHAR LATIN SMALL LETTER Q
ENCODING 113
SWIDTH 540 0
DWIDTH 9 0
BBX 9 16 0 -3
BITMAP
0000
0000
0000
0000
0000
0003
3F06
6306
6306
6306
6306
6303
3F00
0300
0300
030E
ENDCHAR
STARTCHAR LATIN SMALL LETTER R
ENCODING 114
SWIDTH 540 0
DWIDTH 9 0
BBX 9 16 0 -3
BITMAP
0000
0000
0000
0000
0000
0006
6F07
7807
7006
6006
6006
6006
6000
0000
0000
000E
ENDCHAR
STARTCHAR LATIN SMALL LETTER S
ENCODING 115
SWIDTH 540 0
DWIDTH 9 0
BBX 9 16 0 -3
BITMAP
0000
0000
0000
0000
0000
0003
3F06
6006
6003
3E00
0300
0307
7E00
0000
0000
000E
ENDCHAR
STARTCHAR LATIN SMALL LETTER T
ENCODING 116
SWIDTH 540 0
DWIDTH 9 0
BBX 9 16 0 -3
BITMAP
0000
0001
1801
1801
1801
1803
3C01
1801
1801
1801
1801
1800
0E00
0000
0000
000E
ENDCHAR
STARTCHAR LATIN SMALL LETTER U
ENCODING 117
SWIDTH 540 0
DWIDTH 9 0
BBX 9 16 0 -3
BITMAP
0000
0000
0000
0000
0000
0006
6306
6306
6306
6306
6306
6303
3F00
0000
0000
000E
ENDCHAR
STARTCHAR LATIN SMALL LETTER V
ENCODING 118
SWIDTH 540 0
DWIDTH 9 0
BBX 9 16 0 -3
BITMAP
0000
0000
0000
0000
0000
0006
6306
6306
6303
3603
3601
1C00
0800
0000
0000
000E
ENDCHAR
STARTCHAR LATIN SMALL LETTER W
ENCODING 119
SWIDTH 540 0
DWIDTH 9 0
BBX 9 16 0 -3
BITMAP
0000
0000
0000
0000
0000
0006
6306
6306
6306
6B07
7F07
7706
6300
0000
0000
000E
ENDCHAR
STARTCHAR LATIN SMALL LETTER X
ENCODING 120
SWIDTH 540 0
DWIDTH 9 0
BBX 9 16 0 -3
BITMAP
0000
0000
0000
0000
0000
0006
6306
6303
3601
1C03
3606
6306
6300
0000
0000
000E
ENDCHAR
STARTCHAR LATIN SMALL LETTER Y
ENCODING 121
SWIDTH 540 0
DWIDTH 9 0
BBX 9 16 0 -3
BITMAP
0000
0000
0000
0000
0000
0006
6306
6306
6306
6306
6306
6303
3F00
0300
0301
1E0E
ENDCHAR
STARTCHAR LATIN SMALL LETTER Z
ENCODING 122
SWIDTH 540 0
DWIDTH 9 0
BBX 9 16 0 -3
BITMAP
0000
0000
0000
0000
0000
0007
7F00
0600
0C01
1803
3006
6007
7F00
0000
0000
000E
ENDCHAR
STARTCHAR LEFT CURLY BRACKET
ENCODING 123
SWIDTH 540 0
DWIDTH 9 0
BBX 9 16 0 -3
BITMAP
0000
0600
0C00
0C00
0C00
0C00
0C00
0C03
3800
0C00
0C00
0C00
0C00
0C00
0C00
060E
ENDCHAR
STARTCHAR VERTICAL LINE
ENCODING 124
SWIDTH 540 0
DWIDTH 9 0
BBX 9 16 0 -3
BITMAP
1800
1800
1800
1800
1800
1800
1800
1800
1800
1800
1800
1800
1800
1800
1800
1800
ENDCHAR
STARTCHAR RIGHT CURLY BRACKET
ENCODING 125
SWIDTH 540 0
DWIDTH 9 0
BBX 9 16 0 -3
BITMAP
0003
3001
1801
1801
1801
1801
1801
1800
0E01
1801
1801
1801
1801
1801
1803
300E
ENDCHAR
STARTCHAR TILDE
ENCODING 126
SWIDTH 540 0
DWIDTH 9 0
BBX 9 16 0 -3
BITMAP
0000
0000
0000
0000
0000
0003
3306
6B06
6600
0000
0000
0000
0000
0000
0000
000E
ENDCHAR
STARTCHAR NO-BREAK SPACE
ENCODING 160
SWIDTH 540 0
DWIDTH 9 0
BBX 9 16 0 -3
BITMAP
0000
0000
0000
0000
0000
0000
0000
0000
0000
0000
0000
0000
0000
0000
0000
000E
ENDCHAR
STARTCHAR INVERTED EXCLAMATION MARK
ENCODING 161
SWIDTH 540 0
DWIDTH 9 0
BBX 9 16 0 -3
BITMAP
0000
0000
0000
0000
0000
0001
1801
1800
0001
1801
1801
1801
1801
1801
1800
000E
ENDCHAR
STARTCHAR CENT SIGN
ENCODING 162
SWIDTH 540 0
DWIDTH 9 0
BBX 9 16 0 -3
BITMAP
0000
0000
0000
0000
0600
0603
3F06
6006
6006
6006
6006
6003
3F01
1801
1800
000E
ENDCHAR
STARTCHAR POUND SIGN
ENCODING 163
SWIDTH 540 0
DWIDTH 9 0
BBX 9 16 0 -3
BITMAP
0000
0000
0000
0001
1E03
3003
3003
3007
7C03
3003
3003
3007
7F00
0000
0000
000E
ENDCHAR
STARTCHAR CURRENCY SIGN
ENCODING 164
SWIDTH 540 0
DWIDTH 9 0
BBX 9 16 0 -3
BITMAP
0000
0000
0000
0000
0006
6303
3E06
6306
6306
6303
3E06
6300
0000
0000
0000
000E
ENDCHAR
STARTCHAR YEN SIGN
ENCODING 165
SWIDTH 540 0
DWIDTH 9 0
BBX 9 16 0 -3
BITMAP
0000
0000
0000
0006
6306
6306
6303
3601
1C07
7F01
1C07
7F01
1C00
0000
0000
000E
ENDCHAR
STARTCHAR BROKEN BAR
ENCODING 166
SWIDTH 540 0
DWIDTH 9 0
BBX 9 16 0 -3
BITMAP
1801
1801
1801
1801
1801
1800
0000
0000
0000
0001
1801
1801
1801
1801
1801
180E
ENDCHAR
STARTCHAR SECTION SIGN
ENCODING 167
SWIDTH 540 0
DWIDTH 9 0
BBX 9 16 0 -3
BITMAP
0000
0003
3F06
6006
6006
6003
3E06
6306
6306
6303
3E00
0300
0300
0307
7E00
000E
ENDCHAR
STARTCHAR DIAERESIS
ENCODING 168
SWIDTH 540 0
DWIDTH 9 0
BBX 9 16 0 -3
BITMAP
0003
3603
3600
0000
0000
0000
0000
0000
0000
0000
0000
0000
0000
0000
0000
000E
ENDCHAR
STARTCHAR COPYRIGHT SIGN
ENCODING 169
SWIDTH 540 0
DWIDTH 9 0
BBX 9 16 0 -3
BITMAP
0000
0000
0000
0007
7E0C
C30D
DF0F
F30F
F30F
F30F
F30D
DF0C
C307
7E00
0000
000E
ENDCHAR
STARTCHAR FEMININE ORDINAL INDICATOR
ENCODING 170
SWIDTH 540 0
DWIDTH 9 0
BBX 9 16 0 -3
BITMAP
0000
0000
0000
0003
3E00
0300
0303
3F06
6306
6303
3F00
0000
0000
0000
0000
000E
ENDCHAR
STARTCHAR LEFT-POINTING DOUBLE ANGLE QUOTATION MARK
ENCODING 171
SWIDTH 540 0
DWIDTH 9 0
BBX 9 16 0 -3
BITMAP
0000
0000
0000
0000
0000
0001
1B03
3606
6C03
3601
1B00
0000
0000
0000
0000
000E
ENDCHAR
STARTCHAR NOT SIGN
ENCODING 172
SWIDTH 540 0
DWIDTH 9 0
BBX 9 16 0 -3
BITMAP
0000
0000
0000
0000
0000
0000
0007
7F00
0300
0300
0000
0000
0000
0000
0000
000E
ENDCHAR
STARTCHAR SOFT HYPHEN
ENCODING 173
SWIDTH 540 0
DWIDTH 9 0
BBX 9 16 0 -3
BITMAP
0000
0000
0000
0000
0000
0000
0000
0003
3E00
0000
0000
0000
0000
0000
0000
000E
ENDCHAR
STARTCHAR REGISTERED SIGN
ENCODING 174
SWIDTH 540 0
DWIDTH 9 0
BBX 9 16 0 -3
BITMAP
0007
7E0C
C30F
FB0E
EF0E
EF0F
FB0F
FB0E
EF0C
C307
7E00
0000
0000
0000
0000
000E
ENDCHAR
STARTCHAR MACRON
ENCODING 175
SWIDTH 540 0
DWIDTH 9 0
BBX 9 16 0 -3
BITMAP
0000
0003
3E00
0000
0000
0000
0000
0000
0000
0000
0000
0000
0000
0000
0000
000E
ENDCHAR
STARTCHAR DEGREE SIGN
ENCODING 176
SWIDTH 540 0
DWIDTH 9 0
BBX 9 16 0 -3
BITMAP
0000
0000
0000
0001
1C03
3603
3601
1C00
0000
0000
0000
0000
0000
0000
0000
000E
ENDCHAR
STARTCHAR PLUS-MINUS SIGN
ENCODING 177
SWIDTH 540 0
DWIDTH 9 0
BBX 9 16 0 -3
BITMAP
0000
0000
0000
0000
0001
1C01
1C07
7F01
1C01
1C00
0007
7F00
0000
0000
0000
000E
ENDCHAR
STARTCHAR SUPERSCRIPT TWO
ENCODING 178
SWIDTH 540 0
DWIDTH 9 0
BBX 9 16 0 -3
BITMAP
0000
0007
7E00
0300
0300
0300
0600
0C01
1803
3007
7F00
0000
0000
0000
0000
000E
ENDCHAR
STARTCHAR SUPERSCRIPT THREE
ENCODING 179
SWIDTH 540 0
DWIDTH 9 0
BBX 9 16 0 -3
BITMAP
0000
0007
7E00
0300
0300
0301
1E00
0300
0300
0307
7E00
0000
0000
0000
0000
000E
ENDCHAR
STARTCHAR ACUTE ACCENT
ENCODING 180
SWIDTH 540 0
DWIDTH 9 0
BBX 9 16 0 -3
BITMAP
0000
0000
0000
0600
0C01
1803
3000
0000
0000
0000
0000
0000
0000
0000
0000
000E
ENDCHAR
STARTCHAR MICRO SIGN
ENCODING 181
SWIDTH 540 0
DWIDTH 9 0
BBX 9 16 0 -3
BITMAP
0000
0000
0000
0000
0000
0006
6306
6306
6306
6306
6306
6307
7F06
6006
6006
600E
ENDCHAR
STARTCHAR PILCROW SIGN
ENCODING 182
SWIDTH 540 0
DWIDTH 9 0
BBX 9 16 0 -3
BITMAP
0000
0000
0000
0003
3F07
7B07
7B07
7B07
7B03
3B01
1B01
1B01
1B00
0000
0000
000E
ENDCHAR
STARTCHAR MIDDLE DOT
ENCODING 183
SWIDTH 540 0
DWIDTH 9 0
BBX 9 16 0 -3
BITMAP
0000
0000
0000
0000
0000
0000
0001
1801
1800
0000
0000
0000
0000
0000
0000
000E
ENDCHAR
STARTCHAR CEDILLA
ENCODING 184
SWIDTH 540 0
DWIDTH 9 0
BBX 9 16 0 -3
BITMAP
0000
0000
0000
0000
0000
0000
0000
0000
0000
0000
0000
0000
0800
0C00
0603
3C0E
ENDCHAR
STARTCHAR SUPERSCRIPT ONE
ENCODING 185
SWIDTH 540 0
DWIDTH 9 0
BBX 9 16 0 -3
BITMAP
0000
0000
0200
0600
0E01
1E03
3600
0600
0600
0600
0600
0000
0000
0000
0000
000E
ENDCHAR
STARTCHAR MASCULINE ORDINAL INDICATOR
ENCODING 186
SWIDTH 540 0
DWIDTH 9 0
BBX 9 16 0 -3
BITMAP
0000
0000
0000
0003
3E06
6306
6306
6306
6306
6303
3E00
0000
0000
0000
0000
000E
ENDCHAR
STARTCHAR RIGHT-POINTING DOUBLE ANGLE QUOTATION MARK
ENCODING 187
SWIDTH 540 0
DWIDTH 9 0
BBX 9 16 0 -3
BITMAP
0000
0000
0000
0000
0000
0006
6C03
3601
1B03
3606
6C00
0000
0000
0000
0000
000E
ENDCHAR
STARTCHAR VULGAR FRACTION ONE QUARTER
ENCODING 188
SWIDTH 540 0
DWIDTH 9 0
BBX 9 16 0 -3
BITMAP
0801
1803
3807
780D
D801
1801
1801
1800
0100
0300
0700
0F01
1B03
3F00
0300
030E
ENDCHAR
STARTCHAR VULGAR FRACTION ONE HALF
ENCODING 189
SWIDTH 540 0
DWIDTH 9 0
BBX 9 16 0 -3
BITMAP
0801
1803
3807
780D
D801
1801
1801
1803
3E00
0300
0300
0600
0C01
1803
3003
3F0E
ENDCHAR
STARTCHAR VULGAR FRACTION THREE QUARTERS
ENCODING 190
SWIDTH 540 0
DWIDTH 9 0
BBX 9 16 0 -3
BITMAP
F800
0C00
0C03
3800
0C00
0C00
0C0F
F800
0100
0300
0700
0F01
1B03
3F00
0300
030E
ENDCHAR
STARTCHAR INVERTED QUESTION MARK
ENCODING 191
SWIDTH 540 0
DWIDTH 9 0
BBX 9 16 0 -3
BITMAP
0000
0000
0000
0000
0000
0000
0C00
0C00
0000
0C01
1803
3006
6006
6003
3F00
000E
ENDCHAR
STARTCHAR LATIN CAPITAL LETTER A WITH GRAVE
ENCODING 192
SWIDTH 540 0
DWIDTH 9 0
BBX 9 16 0 -3
BITMAP
3001
1800
0C00
0003
3E06
6306
6306
6306
6307
7F06
6306
6306
6300
0000
0000
000E
ENDCHAR
STARTCHAR LATIN CAPITAL LETTER A WITH ACUTE
ENCODING 193
SWIDTH 540 0
DWIDTH 9 0
BBX 9 16 0 -3
BITMAP
0600
0C01
1800
0003
3E06
6306
6306
6306
6307
7F06
6306
6306
6300
0000
0000
000E
ENDCHAR
STARTCHAR LATIN CAPITAL LETTER A WITH CIRCUMFLEX
ENCODING 194
SWIDTH 540 0
DWIDTH 9 0
BBX 9 16 0 -3
BITMAP
1C03
3606
6300
0003
3E06
6306
6306
6306
6307
7F06
6306
6306
6300
0000
0000
000E
ENDCHAR
STARTCHAR LATIN CAPITAL LETTER A WITH TILDE
ENCODING 195
SWIDTH 540 0
DWIDTH 9 0
BBX 9 16 0 -3
BITMAP
3306
6B06
6600
0003
3E06
6306
6306
6306
6307
7F06
6306
6306
6300
0000
0000
000E
ENDCHAR
STARTCHAR LATIN CAPITAL LETTER A WITH DIAERESIS
ENCODING 196
SWIDTH 540 0
DWIDTH 9 0
BBX 9 16 0 -3
BITMAP
0003
3603
3600
0003
3E06
6306
6306
6306
6307
7F06
6306
6306
6300
0000
0000
000E
ENDCHAR
STARTCHAR LATIN CAPITAL LETTER A WITH RING ABOVE
ENCODING 197
SWIDTH 540 0
DWIDTH 9 0
BBX 9 16 0 -3
BITMAP
1C03
3601
1C00
0003
3E06
6306
6306
6306
6307
7F06
6306
6306
6300
0000
0000
000E
ENDCHAR
STARTCHAR LATIN CAPITAL LETTER AE
ENCODING 198
SWIDTH 540 0
DWIDTH 9 0
BBX 9 16 0 -3
BITMAP
0000
0000
0000
0007
7F0C
CC0C
CC0C
CC0C
CE0F
FC0C
CC0C
CC0C
CF00
0000
0000
000E
ENDCHAR
STARTCHAR LATIN CAPITAL LETTER C WITH CEDILLA
ENCODING 199
SWIDTH 540 0
DWIDTH 9 0
BBX 9 16 0 -3
BITMAP
0000
0000
0000
0003
3F06
6006
6006
6006
6006
6006
6006
6003
3F00
0C00
0603
3C0E
ENDCHAR
STARTCHAR LATIN CAPITAL LETTER E WITH GRAVE
ENCODING 200
SWIDTH 540 0
DWIDTH 9 0
BBX 9 16 0 -3
BITMAP
3001
1800
0C00
0007
7F06
6006
6006
6007
7C06
6006
6006
6007
7F00
0000
0000
000E
ENDCHAR
STARTCHAR LATIN CAPITAL LETTER E WITH ACUTE
ENCODING 201
SWIDTH 540 0
DWIDTH 9 0
BBX 9 16 0 -3
BITMAP
0600
0C01
1800
0007
7F06
6006
6006
6007
7C06
6006
6006
6007
7F00
0000
0000
000E
ENDCHAR
STARTCHAR LATIN CAPITAL LETTER E WITH CIRCUMFLEX
ENCODING 202
SWIDTH 540 0
DWIDTH 9 0
BBX 9 16 0 -3
BITMAP
1C03
3606
6300
0007
7F06
6006
6006
6007
7C06
6006
6006
6007
7F00
0000
0000
000E
ENDCHAR
STARTCHAR LATIN CAPITAL LETTER E WITH DIAERESIS
ENCODING 203
SWIDTH 540 0
DWIDTH 9 0
BBX 9 16 0 -3
BITMAP
0003
3603
3600
0007
7F06
6006
6006
6007
7C06
6006
6006
6007
7F00
0000
0000
000E
ENDCHAR
STARTCHAR LATIN CAPITAL LETTER I WITH GRAVE
ENCODING 204
SWIDTH 540 0
DWIDTH 9 0
BBX 9 16 0 -3
BITMAP
6003
3001
1800
0003
3C01
1801
1801
1801
1801
1801
1801
1803
3C00
0000
0000
000E
ENDCHAR
STARTCHAR LATIN CAPITAL LETTER I WITH ACUTE
ENCODING 205
SWIDTH 540 0
DWIDTH 9 0
BBX 9 16 0 -3
BITMAP
0600
0C01
1800
0003
3C01
1801
1801
1801
1801
1801
1801
1803
3C00
0000
0000
000E
ENDCHAR
STARTCHAR LATIN CAPITAL LETTER I WITH CIRCUMFLEX
ENCODING 206
SWIDTH 540 0
DWIDTH 9 0
BBX 9 16 0 -3
BITMAP
1803
3C06
6600
0003
3C01
1801
1801
1801
1801
1801
1801
1803
3C00
0000
0000
000E
ENDCHAR
STARTCHAR LATIN CAPITAL LETTER I WITH DIAERESIS
ENCODING 207
SWIDTH 540 0
DWIDTH 9 0
BBX 9 16 0 -3
BITMAP
0006
6606
6600
0003
3C01
1801
1801
1801
1801
1801
1801
1803
3C00
0000
0000
000E
ENDCHAR
STARTCHAR LATIN CAPITAL LETTER ETH
ENCODING 208
SWIDTH 540 0
DWIDTH 9 0
BBX 9 16 0 -3
BITMAP
0000
0000
0000
0007
7E06
6306
6306
630F
FB06
6306
6306
6307
7E00
0000
0000
000E
ENDCHAR
STARTCHAR LATIN CAPITAL LETTER N WITH TILDE
ENCODING 209
SWIDTH 540 0
DWIDTH 9 0
BBX 9 16 0 -3
BITMAP
3306
6B06
6600
0006
6306
6307
7307
7B07
7F06
6F06
6706
6306
6300
0000
0000
000E
ENDCHAR
STARTCHAR LATIN CAPITAL LETTER O WITH GRAVE
ENCODING 210
SWIDTH 540 0
DWIDTH 9 0
BBX 9 16 0 -3
BITMAP
3001
1800
0C00
0003
3E06
6306
6306
6306
6306
6306
6306
6303
3E00
0000
0000
000E
ENDCHAR
STARTCHAR LATIN CAPITAL LETTER O WITH ACUTE
ENCODING 211
SWIDTH 540 0
DWIDTH 9 0
BBX 9 16 0 -3
BITMAP
0600
0C01
1800
0003
3E06
6306
6306
6306
6306
6306
6306
6303
3E00
0000
0000
000E
ENDCHAR
STARTCHAR LATIN CAPITAL LETTER O WITH CIRCUMFLEX
ENCODING 212
SWIDTH 540 0
DWIDTH 9 0
BBX 9 16 0 -3
BITMAP
1C03
3606
6300
0003
3E06
6306
6306
6306
6306
6306
6306
6303
3E00
0000
0000
000E
ENDCHAR
STARTCHAR LATIN CAPITAL LETTER O WITH TILDE
ENCODING 213
SWIDTH 540 0
DWIDTH 9 0
BBX 9 16 0 -3
BITMAP
3306
6B06
6600
0003
3E06
6306
6306
6306
6306
6306
6306
6303
3E00
0000
0000
000E
ENDCHAR
STARTCHAR LATIN CAPITAL LETTER O WITH DIAERESIS
ENCODING 214
SWIDTH 540 0
DWIDTH 9 0
BBX 9 16 0 -3
BITMAP
0003
3603
3600
0003
3E06
6306
6306
6306
6306
6306
6306
6303
3E00
0000
0000
000E
ENDCHAR
STARTCHAR MULTIPLICATION SIGN
ENCODING 215
SWIDTH 540 0
DWIDTH 9 0
BBX 9 16 0 -3
BITMAP
0000
0000
0000
0000
0000
0006
6303
3601
1C03
3606
6300
0000
0000
0000
0000
000E
ENDCHAR
STARTCHAR LATIN CAPITAL LETTER O WITH STROKE
ENCODING 216
SWIDTH 540 0
DWIDTH 9 0
BBX 9 16 0 -3
BITMAP
0000
0000
0000
0003
3F06
6306
6706
6F07
7F07
7B07
7306
6307
7E00
0000
0000
000E
ENDCHAR
STARTCHAR LATIN CAPITAL LETTER U WITH GRAVE
ENCODING 217
SWIDTH 540 0
DWIDTH 9 0
BBX 9 16 0 -3
BITMAP
3001
1800
0C00
0006
6306
6306
6306
6306
6306
6306
6306
6303
3E00
0000
0000
000E
ENDCHAR
STARTCHAR LATIN CAPITAL LETTER U WITH ACUTE
ENCODING 218
SWIDTH 540 0
DWIDTH 9 0
BBX 9 16 0 -3
BITMAP
0600
0C01
1800
0006
6306
6306
6306
6306
6306
6306
6306
6303
3E00
0000
0000
000E
ENDCHAR
STARTCHAR LATIN CAPITAL LETTER U WITH CIRCUMFLEX
ENCODING 219
SWIDTH 540 0
DWIDTH 9 0
BBX 9 16 0 -3
BITMAP
1C03
3606
6300
0006
6306
6306
6306
6306
6306
6306
6306
6303
3E00
0000
0000
000E
ENDCHAR
STARTCHAR LATIN CAPITAL LETTER U WITH DIAERESIS
ENCODING 220
SWIDTH 540 0
DWIDTH 9 0
BBX 9 16 0 -3
BITMAP
0003
3603
3600
0006
6306
6306
6306
6306
6306
6306
6306
6303
3E00
0000
0000
000E
ENDCHAR
STARTCHAR LATIN CAPITAL LETTER Y WITH ACUTE
ENCODING 221
SWIDTH 540 0
DWIDTH 9 0
BBX 9 16 0 -3
BITMAP
0600
0C01
1800
0006
6306
6306
6303
3601
1E00
0C00
0C01
1801
1800
0000
0000
000E
ENDCHAR
STARTCHAR LATIN CAPITAL LETTER THORN
ENCODING 222
SWIDTH 540 0
DWIDTH 9 0
BBX 9 16 0 -3
BITMAP
0000
0000
0000
0006
6006
6007
7E06
6306
6306
6307
7E06
6006
6000
0000
0000
000E
ENDCHAR
STARTCHAR LATIN SMALL LETTER SHARP S
ENCODING 223
SWIDTH 540 0
DWIDTH 9 0
BBX 9 16 0 -3
BITMAP
0000
0003
3C06
6606
6606
6607
7C06
6606
6306
6306
6307
7306
6E00
0000
0000
000E
ENDCHAR
STARTCHAR LATIN SMALL LETTER A WITH GRAVE
ENCODING 224
SWIDTH 540 0
DWIDTH 9 0
BBX 9 16 0 -3
BITMAP
0000
0003
3001
1800
0C00
0003
3E00
0300
0303
3F06
6306
6303
3F00
0000
0000
000E
ENDCHAR
STARTCHAR LATIN SMALL LETTER A WITH ACUTE
ENCODING 225
SWIDTH 540 0
DWIDTH 9 0
BBX 9 16 0 -3
BITMAP
0000
0000
0600
0C01
1800
0003
3E00
0300
0303
3F06
6306
6303
3F00
0000
0000
000E
ENDCHAR
STARTCHAR LATIN SMALL LETTER A WITH CIRCUMFLEX
ENCODING 226
SWIDTH 540 0
DWIDTH 9 0
BBX 9 16 0 -3
BITMAP
0000
0801
1C03
3606
6300
0003
3E00
0300
0303
3F06
6306
6303
3F00
0000
0000
000E
ENDCHAR
STARTCHAR LATIN SMALL LETTER A WITH TILDE
ENCODING 227
SWIDTH 540 0
DWIDTH 9 0
BBX 9 16 0 -3
BITMAP
0000
0003
3306
6B06
6600
0003
3E00
0300
0303
3F06
6306
6303
3F00
0000
0000
000E
ENDCHAR
STARTCHAR LATIN SMALL LETTER A WITH DIAERESIS
ENCODING 228
SWIDTH 540 0
DWIDTH 9 0
BBX 9 16 0 -3
BITMAP
0000
0000
0003
3603
3600
0003
3E00
0300
0303
3F06
6306
6303
3F00
0000
0000
000E
ENDCHAR
STARTCHAR LATIN SMALL LETTER A WITH RING ABOVE
ENCODING 229
SWIDTH 540 0
DWIDTH 9 0
BBX 9 16 0 -3
BITMAP
0000
0001
1C03
3601
1C00
0003
3E00
0300
0303
3F06
6306
6303
3F00
0000
0000
000E
ENDCHAR
STARTCHAR LATIN SMALL LETTER AE
ENCODING 230
SWIDTH 540 0
DWIDTH 9 0
BBX 9 16 0 -3
BITMAP
0000
0000
0000
0000
0000
0007
7E01
1B01
1B07
7F0D
D80D
D807
7E00
0000
0000
000E
ENDCHAR
STARTCHAR LATIN SMALL LETTER C WITH CEDILLA
ENCODING 231
SWIDTH 540 0
DWIDTH 9 0
BBX 9 16 0 -3
BITMAP
0000
0000
0000
0000
0000
0003
3F06
6006
6006
6006
6006
6003
3F00
0C00
0603
3C0E
ENDCHAR
STARTCHAR LATIN SMALL LETTER E WITH GRAVE
ENCODING 232
SWIDTH 540 0
DWIDTH 9 0
BBX 9 16 0 -3
BITMAP
0000
0003
3001
1800
0C00
0003
3E06
6306
6307
7F06
6006
6003
3E00
0000
0000
000E
ENDCHAR
STARTCHAR LATIN SMALL LETTER E WITH ACUTE
ENCODING 233
SWIDTH 540 0
DWIDTH 9 0
BBX 9 16 0 -3
BITMAP
0000
0000
0600
0C01
1800
0003
3E06
6306
6307
7F06
6006
6003
3E00
0000
0000
000E
ENDCHAR
STARTCHAR LATIN SMALL LETTER E WITH CIRCUMFLEX
ENCODING 234
SWIDTH 540 0
DWIDTH 9 0
BBX 9 16 0 -3
BITMAP
0000
0801
1C03
3606
6300
0003
3E06
6306
6307
7F06
6006
6003
3E00
0000
0000
000E
ENDCHAR
STARTCHAR LATIN SMALL LETTER E WITH DIAERESIS
ENCODING 235
SWIDTH 540 0
DWIDTH 9 0
BBX 9 16 0 -3
BITMAP
0000
0000
0003
3603
3600
0003
3E06
6306
6307
7F06
6006
6003
3E00
0000
0000
000E
ENDCHAR
STARTCHAR LATIN SMALL LETTER I WITH GRAVE
ENCODING 236
SWIDTH 540 0
DWIDTH 9 0
BBX 9 16 0 -3
BITMAP
0000
0003
3001
1800
0C00
0001
1C00
0C00
0C00
0C00
0C00
0C00
0C00
0000
0000
000E
ENDCHAR
STARTCHAR LATIN SMALL LETTER I WITH ACUTE
ENCODING 237
SWIDTH 540 0
DWIDTH 9 0
BBX 9 16 0 -3
BITMAP
0000
0000
0600
0C01
1800
0001
1C00
0C00
0C00
0C00
0C00
0C00
0C00
0000
0000
000E
ENDCHAR
STARTCHAR LATIN SMALL LETTER I WITH CIRCUMFLEX
ENCODING 238
SWIDTH 540 0
DWIDTH 9 0
BBX 9 16 0 -3
BITMAP
0000
0801
1C03
3606
6300
0001
1C00
0C00
0C00
0C00
0C00
0C00
0C00
0000
0000
000E
ENDCHAR
STARTCHAR LATIN SMALL LETTER I WITH DIAERESIS
ENCODING 239
SWIDTH 540 0
DWIDTH 9 0
BBX 9 16 0 -3
BITMAP
0000
0000
0003
3603
3600
0001
1C00
0C00
0C00
0C00
0C00
0C00
0C00
0000
0000
000E
ENDCHAR
STARTCHAR LATIN SMALL LETTER ETH
ENCODING 240
SWIDTH 540 0
DWIDTH 9 0
BBX 9 16 0 -3
BITMAP
0000
0001
1A00
0C01
1600
0303
3F06
6306
6306
6306
6306
6303
3E00
0000
0000
000E
ENDCHAR
STARTCHAR LATIN SMALL LETTER N WITH TILDE
ENCODING 241
SWIDTH 540 0
DWIDTH 9 0
BBX 9 16 0 -3
BITMAP
0000
0003
3306
6B06
6600
0007
7E06
6306
6306
6306
6306
6306
6300
0000
0000
000E
ENDCHAR
STARTCHAR LATIN SMALL LETTER O WITH GRAVE
ENCODING 242
SWIDTH 540 0
DWIDTH 9 0
BBX 9 16 0 -3
BITMAP
0000
0003
3001
1800
0C00
0003
3E06
6306
6306
6306
6306
6303
3E00
0000
0000
000E
ENDCHAR
STARTCHAR LATIN SMALL LETTER O WITH ACUTE
ENCODING 243
SWIDTH 540 0
DWIDTH 9 0
BBX 9 16 0 -3
BITMAP
0000
0000
0600
0C01
1800
0003
3E06
6306
6306
6306
6306
6303
3E00
0000
0000
000E
ENDCHAR
STARTCHAR LATIN SMALL LETTER O WITH CIRCUMFLEX
ENCODING 244
SWIDTH 540 0
DWIDTH 9 0
BBX 9 16 0 -3
BITMAP
0000
0801
1C03
3606
6300
0003
3E06
6306
6306
6306
6306
6303
3E00
0000
0000
000E
ENDCHAR
STARTCHAR LATIN SMALL LETTER O WITH TILDE
ENCODING 245
SWIDTH 540 0
DWIDTH 9 0
BBX 9 16 0 -3
BITMAP
0000
0003
3306
6B06
6600
0003
3E06
6306
6306
6306
6306
6303
3E00
0000
0000
000E
ENDCHAR
STARTCHAR LATIN SMALL LETTER O WITH DIAERESIS
ENCODING 246
SWIDTH 540 0
DWIDTH 9 0
BBX 9 16 0 -3
BITMAP
0000
0000
0003
3603
3600
0003
3E06
6306
6306
6306
6306
6303
3E00
0000
0000
000E
ENDCHAR
STARTCHAR DIVISION SIGN
ENCODING 247
SWIDTH 540 0
DWIDTH 9 0
BBX 9 16 0 -3
BITMAP
0000
0000
0000
0000
0001
1C01
1C00
0007
7F00
0001
1C01
1C00
0000
0000
0000
000E
ENDCHAR
STARTCHAR LATIN SMALL LETTER O WITH STROKE
ENCODING 248
SWIDTH 540 0
DWIDTH 9 0
BBX 9 16 0 -3
BITMAP
0000
0000
0000
0000
0000
0003
3F06
6706
6F06
6B07
7B07
7307
7E00
0000
0000
000E
ENDCHAR
STARTCHAR LATIN SMALL LETTER U WITH GRAVE
ENCODING 249
SWIDTH 540 0
DWIDTH 9 0
BBX 9 16 0 -3
BITMAP
0000
0003
3001
1800
0C00
0006
6306
6306
6306
6306
6306
6303
3F00
0000
0000
000E
ENDCHAR
STARTCHAR LATIN SMALL LETTER U WITH ACUTE
ENCODING 250
SWIDTH 540 0
DWIDTH 9 0
BBX 9 16 0 -3
BITMAP
0000
0000
0600
0C01
1800
0006
6306
6306
6306
6306
6306
6303
3F00
0000
0000
000E
ENDCHAR
STARTCHAR LATIN SMALL LETTER U WITH CIRCUMFLEX
ENCODING 251
SWIDTH 540 0
DWIDTH 9 0
BBX 9 16 0 -3
BITMAP
0000
0801
1C03
3606
6300
0006
6306
6306
6306
6306
6306
6303
3F00
0000
0000
000E
ENDCHAR
STARTCHAR LATIN SMALL LETTER U WITH DIAERESIS
ENCODING 252
SWIDTH 540 0
DWIDTH 9 0
BBX 9 16 0 -3
BITMAP
0000
0000
0003
3603
3600
0006
6306
6306
6306
6306
6306
6303
3F00
0000
0000
000E
ENDCHAR
STARTCHAR LATIN SMALL LETTER Y WITH ACUTE
ENCODING 253
SWIDTH 540 0
DWIDTH 9 0
BBX 9 16 0 -3
BITMAP
0000
0000
0600
0C01
1800
0006
6306
6306
6306
6306
6306
6303
3F00
0300
0301
1E0E
ENDCHAR
STARTCHAR LATIN SMALL LETTER THORN
ENCODING 254
SWIDTH 540 0
DWIDTH 9 0
BBX 9 16 0 -3
BITMAP
0000
0006
6006
6006
6007
7E06
6306
6306
6306
6306
6306
6307
7E06
6006
6006
600E
ENDCHAR
STARTCHAR LATIN SMALL LETTER Y WITH DIAERESIS
ENCODING 255
SWIDTH 540 0
DWIDTH 9 0
BBX 9 16 0 -3
BITMAP
0000
0000
0003
3603
3600
0006
6306
6306
6306
6306
6306
6303
3F00
0300
0301
1E0E
ENDCHAR
STARTCHAR LATIN CAPITAL LETTER A WITH MACRON
ENCODING 256
SWIDTH 540 0
DWIDTH 9 0
BBX 9 16 0 -3
BITMAP
0000
0003
3E00
0003
3E06
6306
6306
6306
6307
7F06
6306
6306
6300
0000
0000
000E
ENDCHAR
STARTCHAR LATIN SMALL LETTER A WITH MACRON
ENCODING 257
SWIDTH 540 0
DWIDTH 9 0
BBX 9 16 0 -3
BITMAP
0000
0000
0000
0003
3E00
0003
3E00
0300
0303
3F06
6306
6303
3F00
0000
0000
000E
ENDCHAR
STARTCHAR LATIN CAPITAL LETTER A WITH BREVE
ENCODING 258
SWIDTH 540 0
DWIDTH 9 0
BBX 9 16 0 -3
BITMAP
6306
6303
3E00
0003
3E06
6306
6306
6306
6307
7F06
6306
6306
6300
0000
0000
000E
ENDCHAR
STARTCHAR LATIN SMALL LETTER A WITH BREVE
ENCODING 259
SWIDTH 540 0
DWIDTH 9 0
BBX 9 16 0 -3
BITMAP
0000
0006
6306
6303
3E00
0003
3E00
0300
0303
3F06
6306
6303
3F00
0000
0000
000E
ENDCHAR
STARTCHAR LATIN CAPITAL LETTER A WITH OGONEK
ENCODING 260
SWIDTH 540 0
DWIDTH 9 0
BBX 9 16 0 -3
BITMAP
0000
0000
0000
0003
3E06
6306
6306
6306
6307
7F06
6306
6306
6300
0600
0600
030E
ENDCHAR
STARTCHAR LATIN SMALL LETTER A WITH OGONEK
ENCODING 261
SWIDTH 540 0
DWIDTH 9 0
BBX 9 16 0 -3
BITMAP
0000
0000
0000
0000
0000
0003
3E00
0300
0303
3F06
6306
6303
3F00
0600
0600
030E
ENDCHAR
STARTCHAR LATIN CAPITAL LETTER C WITH ACUTE
ENCODING 262
SWIDTH 540 0
DWIDTH 9 0
BBX 9 16 0 -3
BITMAP
0600
0C01
1800
0003
3F06
6006
6006
6006
6006
6006
6006
6003
3F00
0000
0000
000E
ENDCHAR
STARTCHAR LATIN SMALL LETTER C WITH ACUTE
ENCODING 263
SWIDTH 540 0
DWIDTH 9 0
BBX 9 16 0 -3
BITMAP
0000
0000
0600
0C01
1800
0003
3F06
6006
6006
6006
6006
6003
3F00
0000
0000
000E
ENDCHAR
STARTCHAR LATIN CAPITAL LETTER C WITH CIRCUMFLEX
ENCODING 264
SWIDTH 540 0
DWIDTH 9 0
BBX 9 16 0 -3
BITMAP
1C03
3606
6300
0003
3F06
6006
6006
6006
6006
6006
6006
6003
3F00
0000
0000
000E
ENDCHAR
STARTCHAR LATIN SMALL LETTER C WITH CIRCUMFLEX
ENCODING 265
SWIDTH 540 0
DWIDTH 9 0
BBX 9 16 0 -3
BITMAP
0000
0801
1C03
3606
6300
0003
3F06
6006
6006
6006
6006
6003
3F00
0000
0000
000E
ENDCHAR
STARTCHAR LATIN CAPITAL LETTER C WITH DOT ABOVE
ENCODING 266
SWIDTH 540 0
DWIDTH 9 0
BBX 9 16 0 -3
BITMAP
0000
0C00
0C00
0003
3F06
6006
6006
6006
6006
6006
6006
6003
3F00
0000
0000
000E
ENDCHAR
STARTCHAR LATIN SMALL LETTER C WITH DOT ABOVE
ENCODING 267
SWIDTH 540 0
DWIDTH 9 0
BBX 9 16 0 -3
BITMAP
0000
0000
0000
0C00
0C00
0003
3F06
6006
6006
6006
6006
6003
3F00
0000
0000
000E
ENDCHAR
STARTCHAR LATIN CAPITAL LETTER C WITH CARON
ENCODING 268
SWIDTH 540 0
DWIDTH 9 0
BBX 9 16 0 -3
BITMAP
6303
3601
1C00
0003
3F06
6006
6006
6006
6006
6006
6006
6003
3F00
0000
0000
000E
ENDCHAR
STARTCHAR LATIN SMALL LETTER C WITH CARON
ENCODING 269
SWIDTH 540 0
DWIDTH 9 0
BBX 9 16 0 -3
BITMAP
0006
6303
3601
1C00
0800
0003
3F06
6006
6006
6006
6006
6003
3F00
0000
0000
000E
ENDCHAR
STARTCHAR LATIN CAPITAL LETTER D WITH CARON
ENCODING 270
SWIDTH 540 0
DWIDTH 9 0
BBX 9 16 0 -3
BITMAP
6303
3601
1C00
0007
7E06
6306
6306
6306
6306
6306
6306
6307
7E00
0000
0000
000E
ENDCHAR
STARTCHAR LATIN SMALL LETTER D WITH CARON
ENCODING 271
SWIDTH 540 0
DWIDTH 9 0
BBX 9 16 0 -3
BITMAP
0000
0300
0F00
0F00
0E00
0C07
7C0C
CC0C
CC0C
CC0C
CC0C
CC07
7C00
0000
0000
000E
ENDCHAR
STARTCHAR LATIN CAPITAL LETTER D WITH STROKE
ENCODING 272
SWIDTH 540 0
DWIDTH 9 0
BBX 9 16 0 -3
BITMAP
0000
0000
0000
0007
7E06
6306
6306
630F
FB06
6306
6306
6307
7E00
0000
0000
000E
ENDCHAR
STARTCHAR LATIN SMALL LETTER D WITH STROKE
ENCODING 273
SWIDTH 540 0
DWIDTH 9 0
BBX 9 16 0 -3
BITMAP
0000
0000
0301
1F00
0300
0303
3F06
6306
6306
6306
6306
6303
3F00
0000
0000
000E
ENDCHAR
STARTCHAR LATIN CAPITAL LETTER E WITH MACRON
ENCODING 274
SWIDTH 540 0
DWIDTH 9 0
BBX 9 16 0 -3
BITMAP
0000
0003
3E00
0007
7F06
6006
6006
6007
7C06
6006
6006
6007
7F00
0000
0000
000E
ENDCHAR
STARTCHAR LATIN SMALL LETTER E WITH MACRON
ENCODING 275
SWIDTH 540 0
DWIDTH 9 0
BBX 9 16 0 -3
BITMAP
0000
0000
0000
0003
3E00
0003
3E06
6306
6307
7F06
6006
6003
3E00
0000
0000
000E
ENDCHAR
STARTCHAR LATIN CAPITAL LETTER E WITH DOT ABOVE
ENCODING 278
SWIDTH 540 0
DWIDTH 9 0
BBX 9 16 0 -3
BITMAP
0000
0C00
0C00
0007
7F06
6006
6006
6007
7C06
6006
6006
6007
7F00
0000
0000
000E
ENDCHAR
STARTCHAR LATIN SMALL LETTER E WITH DOT ABOVE
ENCODING 279
SWIDTH 540 0
DWIDTH 9 0
BBX 9 16 0 -3
BITMAP
0000
0000
0000
0C00
0C00
0003
3E06
6306
6307
7F06
6006
6003
3E00
0000
0000
000E
ENDCHAR
STARTCHAR LATIN CAPITAL LETTER E WITH OGONEK
ENCODING 280
SWIDTH 540 0
DWIDTH 9 0
BBX 9 16 0 -3
BITMAP
0000
0000
0000
0007
7F06
6006
6006
6007
7C06
6006
6006
6007
7F00
0600
0600
030E
ENDCHAR
STARTCHAR LATIN SMALL LETTER E WITH OGONEK
ENCODING 281
SWIDTH 540 0
DWIDTH 9 0
BBX 9 16 0 -3
BITMAP
0000
0000
0000
0000
0000
0003
3E06
6306
6307
7F06
6006
6003
3E00
0600
0600
030E
ENDCHAR
STARTCHAR LATIN CAPITAL LETTER E WITH CARON
ENCODING 282
SWIDTH 540 0
DWIDTH 9 0
BBX 9 16 0 -3
BITMAP
6303
3601
1C00
0007
7F06
6006
6006
6007
7C06
6006
6006
6007
7F00
0000
0000
000E
ENDCHAR
STARTCHAR LATIN SMALL LETTER E WITH CARON
ENCODING 283
SWIDTH 540 0
DWIDTH 9 0
BBX 9 16 0 -3
BITMAP
0006
6303
3601
1C00
0800
0003
3E06
6306
6307
7F06
6006
6003
3E00
0000
0000
000E
ENDCHAR
STARTCHAR LATIN CAPITAL LETTER G WITH CIRCUMFLEX
ENCODING 284
SWIDTH 540 0
DWIDTH 9 0
BBX 9 16 0 -3
BITMAP
1C03
3606
6300
0003
3F06
6006
6006
6006
6706
6306
6306
6303
3F00
0000
0000
000E
ENDCHAR
STARTCHAR LATIN SMALL LETTER G WITH CIRCUMFLEX
ENCODING 285
SWIDTH 540 0
DWIDTH 9 0
BBX 9 16 0 -3
BITMAP
0000
0801
1C03
3606
6300
0003
3F06
6306
6306
6306
6306
6303
3F00
0300
0301
1E0E
ENDCHAR
STARTCHAR LATIN CAPITAL LETTER G WITH BREVE
ENCODING 286
SWIDTH 540 0
DWIDTH 9 0
BBX 9 16 0 -3
BITMAP
6306
6303
3E00
0003
3F06
6006
6006
6006
6706
6306
6306
6303
3F00
0000
0000
000E
ENDCHAR
STARTCHAR LATIN SMALL LETTER G WITH BREVE
ENCODING 287
SWIDTH 540 0
DWIDTH 9 0
BBX 9 16 0 -3
BITMAP
0000
0006
6306
6303
3E00
0003
3F06
6306
6306
6306
6306
6303
3F00
0300
0301
1E0E
ENDCHAR
STARTCHAR LATIN CAPITAL LETTER G WITH DOT ABOVE
ENCODING 288
SWIDTH 540 0
DWIDTH 9 0
BBX 9 16 0 -3
BITMAP
0000
0C00
0C00
0003
3F06
6006
6006
6006
6706
6306
6306
6303
3F00
0000
0000
000E
ENDCHAR
STARTCHAR LATIN SMALL LETTER G WITH DOT ABOVE
ENCODING 289
SWIDTH 540 0
DWIDTH 9 0
BBX 9 16 0 -3
BITMAP
0000
0000
0000
0C00
0C00
0003
3F06
6306
6306
6306
6306
6303
3F00
0300
0301
1E0E
ENDCHAR
STARTCHAR LATIN CAPITAL LETTER G WITH CEDILLA
ENCODING 290
SWIDTH 540 0
DWIDTH 9 0
BBX 9 16 0 -3
BITMAP
0000
0000
0000
0003
3F06
6006
6006
6006
6706
6306
6306
6303
3F00
0C00
0603
3C0E
ENDCHAR
STARTCHAR LATIN SMALL LETTER G WITH CEDILLA
ENCODING 291
SWIDTH 540 0
DWIDTH 9 0
BBX 9 16 0 -3
BITMAP
0000
0000
0600
0C00
0C00
0003
3F06
6306
6306
6306
6306
6303
3F00
0300
0301
1E0E
ENDCHAR
STARTCHAR LATIN CAPITAL LETTER H WITH CIRCUMFLEX
ENCODING 292
SWIDTH 540 0
DWIDTH 9 0
BBX 9 16 0 -3
BITMAP
1C03
3606
6300
0006
6306
6306
6306
6307
7F06
6306
6306
6306
6300
0000
0000
000E
ENDCHAR
STARTCHAR LATIN SMALL LETTER H WITH CIRCUMFLEX
ENCODING 293
SWIDTH 540 0
DWIDTH 9 0
BBX 9 16 0 -3
BITMAP
1C03
3606
6306
6006
6006
6007
7E06
6306
6306
6306
6306
6306
6300
0000
0000
000E
ENDCHAR
STARTCHAR LATIN CAPITAL LETTER H WITH STROKE
ENCODING 294
SWIDTH 540 0
DWIDTH 9 0
BBX 9 16 0 -3
BITMAP
0000
0000
0000
0006
6306
6307
7F06
6307
7F06
6306
6306
6306
6300
0000
0000
000E
ENDCHAR
STARTCHAR LATIN SMALL LETTER H WITH STROKE
ENCODING 295
SWIDTH 540 0
DWIDTH 9 0
BBX 9 16 0 -3
BITMAP
0000
0006
600F
FC06
6006
6007
7E06
6306
6306
6306
6306
6306
6300
0000
0000
000E
ENDCHAR
STARTCHAR LATIN CAPITAL LETTER I WITH TILDE
ENCODING 296
SWIDTH 540 0
DWIDTH 9 0
BBX 9 16 0 -3
BITMAP
3306
6B06
6600
0003
3C01
1801
1801
1801
1801
1801
1801
1803
3C00
0000
0000
000E
ENDCHAR
STARTCHAR LATIN SMALL LETTER I WITH TILDE
ENCODING 297
SWIDTH 540 0
DWIDTH 9 0
BBX 9 16 0 -3
BITMAP
0000
0003
3306
6B06
6600
0001
1C00
0C00
0C00
0C00
0C00
0C00
0C00
0000
0000
000E
ENDCHAR
STARTCHAR LATIN CAPITAL LETTER I WITH MACRON
ENCODING 298
SWIDTH 540 0
DWIDTH 9 0
BBX 9 16 0 -3
BITMAP
0000
0007
7E00
0003
3C01
1801
1801
1801
1801
1801
1801
1803
3C00
0000
0000
000E
ENDCHAR
STARTCHAR LATIN SMALL LETTER I WITH MACRON
ENCODING 299
SWIDTH 540 0
DWIDTH 9 0
BBX 9 16 0 -3
BITMAP
0000
0000
0000
0003
3E00
0001
1C00
0C00
0C00
0C00
0C00
0C00
0C00
0000
0000
000E
ENDCHAR
STARTCHAR LATIN CAPITAL LETTER I WITH OGONEK
ENCODING 302
SWIDTH 540 0
DWIDTH 9 0
BBX 9 16 0 -3
BITMAP
0000
0000
0000
0003
3C01
1801
1801
1801
1801
1801
1801
1803
3C01
1801
1800
0C0E
ENDCHAR
STARTCHAR LATIN SMALL LETTER I WITH OGONEK
ENCODING 303
SWIDTH 540 0
DWIDTH 9 0
BBX 9 16 0 -3
BITMAP
0000
0000
0000
0C00
0C00
0001
1C00
0C00
0C00
0C00
0C00
0C00
0C00
0C00
0C00
060E
ENDCHAR
STARTCHAR LATIN CAPITAL LETTER I WITH DOT ABOVE
ENCODING 304
SWIDTH 540 0
DWIDTH 9 0
BBX 9 16 0 -3
BITMAP
0001
1801
1800
0003
3C01
1801
1801
1801
1801
1801
1801
1803
3C00
0000
0000
000E
ENDCHAR
STARTCHAR LATIN SMALL LETTER DOTLESS I
ENCODING 305
SWIDTH 540 0
DWIDTH 9 0
BBX 9 16 0 -3
BITMAP
0000
0000
0000
0000
0000
0001
1C00
0C00
0C00
0C00
0C00
0C00
0C00
0000
0000
000E
ENDCHAR
STARTCHAR LATIN CAPITAL LETTER J WITH CIRCUMFLEX
ENCODING 308
SWIDTH 540 0
DWIDTH 9 0
BBX 9 16 0 -3
BITMAP
0C01
1E03
3300
0000
0300
0300
0300
0300
0300
0300
0306
6303
3E00
0000
0000
000E
ENDCHAR
STARTCHAR LATIN SMALL LETTER J WITH CIRCUMFLEX
ENCODING 309
SWIDTH 540 0
DWIDTH 9 0
BBX 9 16 0 -3
BITMAP
0000
0801
1C03
3606
6300
0001
1C00
0C00
0C00
0C00
0C00
0C00
0C00
0C00
0C01
180E
ENDCHAR
STARTCHAR LATIN CAPITAL LETTER K WITH CEDILLA
ENCODING 310
SWIDTH 540 0
DWIDTH 9 0
BBX 9 16 0 -3
BITMAP
0000
0000
0000
0006
6306
6606
6C07
7807
7007
7806
6C06
6606
6B00
0C00
0603
3C0E
ENDCHAR
STARTCHAR LATIN SMALL LETTER K WITH CEDILLA
ENCODING 311
SWIDTH 540 0
DWIDTH 9 0
BBX 9 16 0 -3
BITMAP
0000
0006
6006
6006
6006
6006
6306
6606
6C07
7806
6C06
6606
6B00
0C00
0603
3C0E
ENDCHAR
STARTCHAR LATIN SMALL LETTER KRA
ENCODING 312
SWIDTH 540 0
DWIDTH 9 0
BBX 9 16 0 -3
BITMAP
0000
0000
0000
0000
0000
0006
6306
6606
6C07
7806
6C06
6606
6300
0000
0000
000E
ENDCHAR
STARTCHAR LATIN CAPITAL LETTER L WITH ACUTE
ENCODING 313
SWIDTH 540 0
DWIDTH 9 0
BBX 9 16 0 -3
BITMAP
1803
3006
6000
0006
6006
6006
6006
6006
6006
6006
6006
6007
7F00
0000
0000
000E
ENDCHAR
STARTCHAR LATIN SMALL LETTER L WITH ACUTE
ENCODING 314
SWIDTH 540 0
DWIDTH 9 0
BBX 9 16 0 -3
BITMAP
0C01
1803
3000
0003
3003
3003
3003
3003
3003
3003
3003
3001
1E00
0000
0000
000E
ENDCHAR
STARTCHAR LATIN CAPITAL LETTER L WITH CEDILLA
ENCODING 315
SWIDTH 540 0
DWIDTH 9 0
BBX 9 16 0 -3
BITMAP
0000
0000
0000
0006
6006
6006
6006
6006
6006
6006
6006
6007
7F01
1C00
0603
3C0E
ENDCHAR
STARTCHAR LATIN SMALL LETTER L WITH CEDILLA
ENCODING 316
SWIDTH 540 0
DWIDTH 9 0
BBX 9 16 0 -3
BITMAP
0000
0003
3003
3003
3003
3003
3003
3003
3003
3003
3003
3001
1E01
1C00
0603
3C0E
ENDCHAR
STARTCHAR LATIN CAPITAL LETTER L WITH CARON
ENCODING 317
SWIDTH 540 0
DWIDTH 9 0
BBX 9 16 0 -3
BITMAP
0000
0000
0600
0606
6606
6C06
6006
6006
6006
6006
6006
6007
7F00
0000
0000
000E
ENDCHAR
STARTCHAR LATIN SMALL LETTER L WITH CARON
ENCODING 318
SWIDTH 540 0
DWIDTH 9 0
BBX 9 16 0 -3
BITMAP
0000
0303
3303
3303
3603
3003
3003
3003
3003
3003
3003
3001
1E00
0000
0000
000E
ENDCHAR
STARTCHAR LATIN CAPITAL LETTER L WITH STROKE
ENCODING 321
SWIDTH 540 0
DWIDTH 9 0
BBX 9 16 0 -3
BITMAP
0000
0000
0000
0006
6006
6C07
7807
7006
600E
E006
6006
6007
7F00
0000
0000
000E
ENDCHAR
STARTCHAR LATIN SMALL LETTER L WITH STROKE
ENCODING 322
SWIDTH 540 0
DWIDTH 9 0
BBX 9 16 0 -3
BITMAP
0000
0003
3003
3003
3603
3C03
3803
3007
700F
F003
3003
3001
1E00
0000
0000
000E
ENDCHAR
STARTCHAR LATIN CAPITAL LETTER N WITH ACUTE
ENCODING 323
SWIDTH 540 0
DWIDTH 9 0
BBX 9 16 0 -3
BITMAP
0600
0C01
1800
0006
6306
6307
7307
7B07
7F06
6F06
6706
6306
6300
0000
0000
000E
ENDCHAR
STARTCHAR LATIN SMALL LETTER N WITH ACUTE
ENCODING 324
SWIDTH 540 0
DWIDTH 9 0
BBX 9 16 0 -3
BITMAP
0000
0000
0600
0C01
1800
0007
7E06
6306
6306
6306
6306
6306
6300
0000
0000
000E
ENDCHAR
STARTCHAR LATIN CAPITAL LETTER N WITH CEDILLA
ENCODING 325
SWIDTH 540 0
DWIDTH 9 0
BBX 9 16 0 -3
BITMAP
0000
0000
0000
0006
6306
6307
7307
7B07
7F06
6F06
6706
6306
6B00
0C00
0603
3C0E
ENDCHAR
STARTCHAR LATIN SMALL LETTER N WITH CEDILLA
ENCODING 326
SWIDTH 540 0
DWIDTH 9 0
BBX 9 16 0 -3
BITMAP
0000
0000
0000
0000
0000
0007
7E06
6306
6306
6306
6306
6306
6B00
0C00
0603
3C0E
ENDCHAR
STARTCHAR LATIN CAPITAL LETTER N WITH CARON
ENCODING 327
SWIDTH 540 0
DWIDTH 9 0
BBX 9 16 0 -3
BITMAP
6303
3601
1C00
0006
6306
6307
7307
7B07
7F06
6F06
6706
6306
6300
0000
0000
000E
ENDCHAR
STARTCHAR LATIN SMALL LETTER N WITH CARON
ENCODING 328
SWIDTH 540 0
DWIDTH 9 0
BBX 9 16 0 -3
BITMAP
0006
6303
3601
1C00
0800
0007
7E06
6306
6306
6306
6306
6306
6300
0000
0000
000E
ENDCHAR
STARTCHAR LATIN CAPITAL LETTER ENG
ENCODING 330
SWIDTH 540 0
DWIDTH 9 0
BBX 9 16 0 -3
BITMAP
0000
0000
0000
0006
6306
6307
7307
7B07
7F06
6F06
6706
6306
6300
0300
0300
060E
ENDCHAR
STARTCHAR LATIN SMALL LETTER ENG
ENCODING 331
SWIDTH 540 0
DWIDTH 9 0
BBX 9 16 0 -3
BITMAP
0000
0000
0000
0000
0000
0007
7E06
6306
6306
6306
6306
6306
6300
0300
0300
060E
ENDCHAR
STARTCHAR LATIN CAPITAL LETTER O WITH MACRON
ENCODING 332
SWIDTH 540 0
DWIDTH 9 0
BBX 9 16 0 -3
BITMAP
0000
0003
3E00
0003
3E06
6306
6306
6306
6306
6306
6306
6303
3E00
0000
0000
000E
ENDCHAR
STARTCHAR LATIN SMALL LETTER O WITH MACRON
ENCODING 333
SWIDTH 540 0
DWIDTH 9 0
BBX 9 16 0 -3
BITMAP
0000
0000
0000
0003
3E00
0003
3E06
6306
6306
6306
6306
6303
3E00
0000
0000
000E
ENDCHAR
STARTCHAR LATIN CAPITAL LETTER O WITH DOUBLE ACUTE
ENCODING 336
SWIDTH 540 0
DWIDTH 9 0
BBX 9 16 0 -3
BITMAP
1B03
3606
6C00
0003
3E06
6306
6306
6306
6306
6306
6306
6303
3E00
0000
0000
000E
ENDCHAR
STARTCHAR LATIN SMALL LETTER O WITH DOUBLE ACUTE
ENCODING 337
SWIDTH 540 0
DWIDTH 9 0
BBX 9 16 0 -3
BITMAP
0000
0001
1B03
3606
6C00
0003
3E06
6306
6306
6306
6306
6303
3E00
0000
0000
000E
ENDCHAR
STARTCHAR LATIN CAPITAL LIGATURE OE
ENCODING 338
SWIDTH 540 0
DWIDTH 9 0
BBX 9 16 0 -3
BITMAP
0000
0000
0000
0007
7F0C
CC0C
CC0C
CC0C
CE0C
CC0C
CC0C
CC07
7F00
0000
0000
000E
ENDCHAR
STARTCHAR LATIN SMALL LIGATURE OE
ENCODING 339
SWIDTH 540 0
DWIDTH 9 0
BBX 9 16 0 -3
BITMAP
0000
0000
0000
0000
0000
0007
7E0D
DB0D
DB0D
DF0D
D80D
D807
7E00
0000
0000
000E
ENDCHAR
STARTCHAR LATIN CAPITAL LETTER R WITH ACUTE
ENCODING 340
SWIDTH 540 0
DWIDTH 9 0
BBX 9 16 0 -3
BITMAP
0600
0C01
1800
0007
7E06
6306
6306
6306
6307
7E06
6C06
6606
6300
0000
0000
000E
ENDCHAR
STARTCHAR LATIN SMALL LETTER R WITH ACUTE
ENCODING 341
SWIDTH 540 0
DWIDTH 9 0
BBX 9 16 0 -3
BITMAP
0000
0000
0600
0C01
1800
0006
6F07
7807
7006
6006
6006
6006
6000
0000
0000
000E
ENDCHAR
STARTCHAR LATIN CAPITAL LETTER R WITH CEDILLA
ENCODING 342
SWIDTH 540 0
DWIDTH 9 0
BBX 9 16 0 -3
BITMAP
0000
0000
0000
0007
7E06
6306
6306
6306
6307
7E06
6C06
6606
6B00
0C00
0603
3C0E
ENDCHAR
STARTCHAR LATIN SMALL LETTER R WITH CEDILLA
ENCODING 343
SWIDTH 540 0
DWIDTH 9 0
BBX 9 16 0 -3
BITMAP
0000
0000
0000
0000
0000
0006
6F07
7807
7006
6006
6006
6006
6003
3001
180F
F00E
ENDCHAR
STARTCHAR LATIN CAPITAL LETTER R WITH CARON
ENCODING 344
SWIDTH 540 0
DWIDTH 9 0
BBX 9 16 0 -3
BITMAP
6303
3601
1C00
0007
7E06
6306
6306
6306
6307
7E06
6C06
6606
6300
0000
0000
000E
ENDCHAR
STARTCHAR LATIN SMALL LETTER R WITH CARON
ENCODING 345
SWIDTH 540 0
DWIDTH 9 0
BBX 9 16 0 -3
BITMAP
0006
6303
3601
1C00
0800
0006
6F07
7807
7006
6006
6006
6006
6000
0000
0000
000E
ENDCHAR
STARTCHAR LATIN CAPITAL LETTER S WITH ACUTE
ENCODING 346
SWIDTH 540 0
DWIDTH 9 0
BBX 9 16 0 -3
BITMAP
0600
0C01
1800
0003
3F06
6006
6006
6003
3E00
0300
0300
0307
7E00
0000
0000
000E
ENDCHAR
STARTCHAR LATIN SMALL LETTER S WITH ACUTE
ENCODING 347
SWIDTH 540 0
DWIDTH 9 0
BBX 9 16 0 -3
BITMAP
0000
0000
0600
0C01
1800
0003
3F06
6006
6003
3E00
0300
0307
7E00
0000
0000
000E
ENDCHAR
STARTCHAR LATIN CAPITAL LETTER S WITH CIRCUMFLEX
ENCODING 348
SWIDTH 540 0
DWIDTH 9 0
BBX 9 16 0 -3
BITMAP
1C03
3606
6300
0003
3F06
6006
6006
6003
3E00
0300
0300
0307
7E00
0000
0000
000E
ENDCHAR
STARTCHAR LATIN SMALL LETTER S WITH CIRCUMFLEX
ENCODING 349
SWIDTH 540 0
DWIDTH 9 0
BBX 9 16 0 -3
BITMAP
0000
0001
1C03
3606
6300
0003
3F06
6006
6003
3E00
0300
0307
7E00
0000
0000
000E
ENDCHAR
STARTCHAR LATIN CAPITAL LETTER S WITH CEDILLA
ENCODING 350
SWIDTH 540 0
DWIDTH 9 0
BBX 9 16 0 -3
BITMAP
0000
0000
0000
0003
3F06
6006
6006
6003
3E00
0300
0300
0307
7E00
0C00
0603
3C0E
ENDCHAR
STARTCHAR LATIN SMALL LETTER S WITH CEDILLA
ENCODING 351
SWIDTH 540 0
DWIDTH 9 0
BBX 9 16 0 -3
BITMAP
0000
0000
0000
0000
0000
0003
3F06
6006
6003
3E00
0300
0307
7E00
0C00
0603
3C0E
ENDCHAR
STARTCHAR LATIN CAPITAL LETTER S WITH CARON
ENCODING 352
SWIDTH 540 0
DWIDTH 9 0
BBX 9 16 0 -3
BITMAP
6303
3601
1C00
0003
3F06
6006
6006
6003
3E00
0300
0300
0307
7E00
0000
0000
000E
ENDCHAR
STARTCHAR LATIN SMALL LETTER S WITH CARON
ENCODING 353
SWIDTH 540 0
DWIDTH 9 0
BBX 9 16 0 -3
BITMAP
0006
6303
3601
1C00
0800
0003
3F06
6006
6003
3E00
0300
0307
7E00
0000
0000
000E
ENDCHAR
STARTCHAR LATIN CAPITAL LETTER T WITH CEDILLA
ENCODING 354
SWIDTH 540 0
DWIDTH 9 0
BBX 9 16 0 -3
BITMAP
0000
0000
0000
0007
7E01
1801
1801
1801
1801
1801
1801
1801
1800
0C00
0603
3C0E
ENDCHAR
STARTCHAR LATIN SMALL LETTER T WITH CEDILLA
ENCODING 355
SWIDTH 540 0
DWIDTH 9 0
BBX 9 16 0 -3
BITMAP
0000
0001
1801
1801
1801
1803
3C01
1801
1801
1801
1801
1800
0E00
0C00
0603
3C0E
ENDCHAR
STARTCHAR LATIN CAPITAL LETTER T WITH CARON
ENCODING 356
SWIDTH 540 0
DWIDTH 9 0
BBX 9 16 0 -3
BITMAP
6603
3C01
1800
0007
7E01
1801
1801
1801
1801
1801
1801
1801
1800
0000
0000
000E
ENDCHAR
STARTCHAR LATIN SMALL LETTER T WITH CARON
ENCODING 357
SWIDTH 540 0
DWIDTH 9 0
BBX 9 16 0 -3
BITMAP
0000
0303
3303
3303
3603
3007
7803
3003
3003
3003
3003
3001
1C00
0000
0000
000E
ENDCHAR
STARTCHAR LATIN CAPITAL LETTER T WITH STROKE
ENCODING 358
SWIDTH 540 0
DWIDTH 9 0
BBX 9 16 0 -3
BITMAP
0000
0000
0000
0007
7E01
1801
1807
7E01
1801
1801
1801
1801
1800
0000
0000
000E
ENDCHAR
STARTCHAR LATIN SMALL LETTER T WITH STROKE
ENCODING 359
SWIDTH 540 0
DWIDTH 9 0
BBX 9 16 0 -3
BITMAP
0000
0001
1801
1801
1801
1803
3C01
1803
3C01
1801
1801
1800
0E00
0000
0000
000E
ENDCHAR
STARTCHAR LATIN CAPITAL LETTER U WITH TILDE
ENCODING 360
SWIDTH 540 0
DWIDTH 9 0
BBX 9 16 0 -3
BITMAP
3306
6B06
6600
0006
6306
6306
6306
6306
6306
6306
6306
6303
3E00
0000
0000
000E
ENDCHAR
STARTCHAR LATIN SMALL LETTER U WITH TILDE
ENCODING 361
SWIDTH 540 0
DWIDTH 9 0
BBX 9 16 0 -3
BITMAP
0000
0003
3306
6B06
6600
0006
6306
6306
6306
6306
6306
6303
3F00
0000
0000
000E
ENDCHAR
STARTCHAR LATIN CAPITAL LETTER U WITH MACRON
ENCODING 362
SWIDTH 540 0
DWIDTH 9 0
BBX 9 16 0 -3
BITMAP
0000
0003
3E00
0006
6306
6306
6306
6306
6306
6306
6306
6303
3E00
0000
0000
000E
ENDCHAR
STARTCHAR LATIN SMALL LETTER U WITH MACRON
ENCODING 363
SWIDTH 540 0
DWIDTH 9 0
BBX 9 16 0 -3
BITMAP
0000
0000
0000
0003
3E00
0006
6306
6306
6306
6306
6306
6303
3F00
0000
0000
000E
ENDCHAR
STARTCHAR LATIN CAPITAL LETTER U WITH BREVE
ENCODING 364
SWIDTH 540 0
DWIDTH 9 0
BBX 9 16 0 -3
BITMAP
6306
6303
3E00
0006
6306
6306
6306
6306
6306
6306
6306
6303
3E00
0000
0000
000E
ENDCHAR
STARTCHAR LATIN SMALL LETTER U WITH BREVE
ENCODING 365
SWIDTH 540 0
DWIDTH 9 0
BBX 9 16 0 -3
BITMAP
0000
0006
6306
6303
3E00
0006
6306
6306
6306
6306
6306
6303
3F00
0000
0000
000E
ENDCHAR
STARTCHAR LATIN CAPITAL LETTER U WITH RING ABOVE
ENCODING 366
SWIDTH 540 0
DWIDTH 9 0
BBX 9 16 0 -3
BITMAP
1C03
3601
1C00
0006
6306
6306
6306
6306
6306
6306
6306
6303
3E00
0000
0000
000E
ENDCHAR
STARTCHAR LATIN SMALL LETTER U WITH RING ABOVE
ENCODING 367
SWIDTH 540 0
DWIDTH 9 0
BBX 9 16 0 -3
BITMAP
0000
0001
1C03
3601
1C00
0006
6306
6306
6306
6306
6306
6303
3F00
0000
0000
000E
ENDCHAR
STARTCHAR LATIN CAPITAL LETTER U WITH DOUBLE ACUTE
ENCODING 368
SWIDTH 540 0
DWIDTH 9 0
BBX 9 16 0 -3
BITMAP
1B03
3606
6C00
0006
6306
6306
6306
6306
6306
6306
6306
6303
3E00
0000
0000
000E
ENDCHAR
STARTCHAR LATIN SMALL LETTER U WITH DOUBLE ACUTE
ENCODING 369
SWIDTH 540 0
DWIDTH 9 0
BBX 9 16 0 -3
BITMAP
0000
0001
1B03
3606
6C00
0006
6306
6306
6306
6306
6306
6303
3F00
0000
0000
000E
ENDCHAR
STARTCHAR LATIN CAPITAL LETTER U WITH OGONEK
ENCODING 370
SWIDTH 540 0
DWIDTH 9 0
BBX 9 16 0 -3
BITMAP
0000
0000
0000
0006
6306
6306
6306
6306
6306
6306
6306
6303
3E00
0C00
0C00
060E
ENDCHAR
STARTCHAR LATIN SMALL LETTER U WITH OGONEK
ENCODING 371
SWIDTH 540 0
DWIDTH 9 0
BBX 9 16 0 -3
BITMAP
0000
0000
0000
0000
0000
0006
6306
6306
6306
6306
6306
6303
3F00
0C00
0C00
060E
ENDCHAR
STARTCHAR LATIN CAPITAL LETTER W WITH CIRCUMFLEX
ENCODING 372
SWIDTH 540 0
DWIDTH 9 0
BBX 9 16 0 -3
BITMAP
1C03
3606
6300
0006
6306
6306
6306
6306
6306
6B07
7F07
7706
6300
0000
0000
000E
ENDCHAR
STARTCHAR LATIN SMALL LETTER W WITH CIRCUMFLEX
ENCODING 373
SWIDTH 540 0
DWIDTH 9 0
BBX 9 16 0 -3
BITMAP
0000
0801
1C03
3606
6300
0006
6306
6306
6306
6B07
7F07
7706
6300
0000
0000
000E
ENDCHAR
STARTCHAR LATIN CAPITAL LETTER Y WITH CIRCUMFLEX
ENCODING 374
SWIDTH 540 0
DWIDTH 9 0
BBX 9 16 0 -3
BITMAP
1C03
3606
6300
0006
6306
6306
6303
3601
1E00
0C00
0C01
1801
1800
0000
0000
000E
ENDCHAR
STARTCHAR LATIN SMALL LETTER Y WITH CIRCUMFLEX
ENCODING 375
SWIDTH 540 0
DWIDTH 9 0
BBX 9 16 0 -3
BITMAP
0000
0801
1C03
3606
6300
0006
6306
6306
6306
6306
6306
6303
3F00
0300
0301
1E0E
ENDCHAR
STARTCHAR LATIN CAPITAL LETTER Y WITH DIAERESIS
ENCODING 376
SWIDTH 540 0
DWIDTH 9 0
BBX 9 16 0 -3
BITMAP
0003
3603
3600
0006
6306
6306
6303
3601
1E00
0C00
0C01
1801
1800
0000
0000
000E
ENDCHAR
STARTCHAR LATIN CAPITAL LETTER Z WITH ACUTE
ENCODING 377
SWIDTH 540 0
DWIDTH 9 0
BBX 9 16 0 -3
BITMAP
0600
0C01
1800
0007
7F00
0300
0600
0C01
1803
3006
6006
6007
7F00
0000
0000
000E
ENDCHAR
STARTCHAR LATIN SMALL LETTER Z WITH ACUTE
ENCODING 378
SWIDTH 540 0
DWIDTH 9 0
BBX 9 16 0 -3
BITMAP
0000
0000
0600
0C01
1800
0007
7F00
0600
0C01
1803
3006
6007
7F00
0000
0000
000E
ENDCHAR
STARTCHAR LATIN CAPITAL LETTER Z WITH DOT ABOVE
ENCODING 379
SWIDTH 540 0
DWIDTH 9 0
BBX 9 16 0 -3
BITMAP
0000
0C00
0C00
0007
7F00
0300
0600
0C01
1803
3006
6006
6007
7F00
0000
0000
000E
ENDCHAR
STARTCHAR LATIN SMALL LETTER Z WITH DOT ABOVE
ENCODING 380
SWIDTH 540 0
DWIDTH 9 0
BBX 9 16 0 -3
BITMAP
0000
0000
0001
1801
1800
0007
7F00
0600
0C01
1803
3006
6007
7F00
0000
0000
000E
ENDCHAR
STARTCHAR LATIN CAPITAL LETTER Z WITH CARON
ENCODING 381
SWIDTH 540 0
DWIDTH 9 0
BBX 9 16 0 -3
BITMAP
6303
3601
1C00
0007
7F00
0300
0600
0C01
1803
3006
6006
6007
7F00
0000
0000
000E
ENDCHAR
STARTCHAR LATIN SMALL LETTER Z WITH CARON
ENCODING 382
SWIDTH 540 0
DWIDTH 9 0
BBX 9 16 0 -3
BITMAP
0006
6303
3601
1C00
0800
0007
7F00
0600
0C01
1803
3006
6007
7F00
0000
0000
000E
ENDCHAR
STARTCHAR LATIN SMALL LETTER F WITH HOOK
ENCODING 402
SWIDTH 540 0
DWIDTH 9 0
BBX 9 16 0 -3
BITMAP
0000
0001
1E03
3003
3003
3003
3803
3003
3003
3003
3003
3003
3003
300E
E000
000E
ENDCHAR
STARTCHAR LATIN CAPITAL LETTER S WITH COMMA BELOW
ENCODING 536
SWIDTH 540 0
DWIDTH 9 0
BBX 9 16 0 -3
BITMAP
0000
0000
0000
0003
3F06
6006
6006
6003
3E00
0300
0300
0307
7E01
1801
1803
300E
ENDCHAR
STARTCHAR LATIN SMALL LETTER S WITH COMMA BELOW
ENCODING 537
SWIDTH 540 0
DWIDTH 9 0
BBX 9 16 0 -3
BITMAP
0000
0000
0000
0000
0000
0003
3F06
6006
6003
3E00
0300
0307
7E01
1801
1803
300E
ENDCHAR
STARTCHAR LATIN CAPITAL LETTER T WITH COMMA BELOW
ENCODING 538
SWIDTH 540 0
DWIDTH 9 0
BBX 9 16 0 -3
BITMAP
0000
0000
0000
0007
7E01
1801
1801
1801
1801
1801
1801
1801
1801
1801
1803
300E
ENDCHAR
STARTCHAR LATIN SMALL LETTER T WITH COMMA BELOW
ENCODING 539
SWIDTH 540 0
DWIDTH 9 0
BBX 9 16 0 -3
BITMAP
0000
0001
1801
1801
1801
1803
3C01
1801
1801
1801
1801
1800
0E00
0C00
0C01
180E
ENDCHAR
STARTCHAR CARON
ENCODING 711
SWIDTH 540 0
DWIDTH 9 0
BBX 9 16 0 -3
BITMAP
3601
1C00
0800
0000
0000
0000
0000
0000
0000
0000
0000
0000
0000
0000
0000
000E
ENDCHAR
STARTCHAR BREVE
ENCODING 728
SWIDTH 540 0
DWIDTH 9 0
BBX 9 16 0 -3
BITMAP
6306
6303
3E00
0000
0000
0000
0000
0000
0000
0000
0000
0000
0000
0000
0000
000E
ENDCHAR
STARTCHAR DOT ABOVE
ENCODING 729
SWIDTH 540 0
DWIDTH 9 0
BBX 9 16 0 -3
BITMAP
0001
1801
1800
0000
0000
0000
0000
0000
0000
0000
0000
0000
0000
0000
0000
000E
ENDCHAR
STARTCHAR OGONEK
ENCODING 731
SWIDTH 540 0
DWIDTH 9 0
BBX 9 16 0 -3
BITMAP
0000
0000
0000
0000
0000
0000
0000
0000
0000
0000
0000
0000
0000
0C00
0C00
060E
ENDCHAR
STARTCHAR DOUBLE ACUTE ACCENT
ENCODING 733
SWIDTH 540 0
DWIDTH 9 0
BBX 9 16 0 -3
BITMAP
1B03
3606
6C00
0000
0000
0000
0000
0000
0000
0000
0000
0000
0000
0000
0000
000E
ENDCHAR
STARTCHAR GREEK YPOGEGRAMMENI
ENCODING 890
SWIDTH 540 0
DWIDTH 9 0
BBX 9 16 0 -3
BITMAP
0000
0000
0000
0000
0000
0000
0000
0000
0000
0000
0000
0000
0001
1801
1801
180E
ENDCHAR
STARTCHAR GREEK QUESTION MARK
ENCODING 894
SWIDTH 540 0
DWIDTH 9 0
BBX 9 16 0 -3
BITMAP
0000
0000
0000
0000
0000
0001
1801
1800
0000
0000
0001
1801
1803
3000
0000
000E
ENDCHAR
STARTCHAR GREEK TONOS
ENCODING 900
SWIDTH 540 0
DWIDTH 9 0
BBX 9 16 0 -3
BITMAP
0600
0C01
1800
0000
0000
0000
0000
0000
0000
0000
0000
0000
0000
0000
0000
000E
ENDCHAR
STARTCHAR GREEK DIALYTIKA TONOS
ENCODING 901
SWIDTH 540 0
DWIDTH 9 0
BBX 9 16 0 -3
BITMAP
1801
180D
DB0C
C300
0000
0000
0000
0000
0000
0000
0000
0000
0000
0000
0000
000E
ENDCHAR
STARTCHAR GREEK CAPITAL LETTER ALPHA WITH TONOS
ENCODING 902
SWIDTH 540 0
DWIDTH 9 0
BBX 9 16 0 -3
BITMAP
0000
000C
C00C
C00D
DE03
3303
3303
3303
3303
3F03
3303
3303
3300
0000
0000
000E
ENDCHAR
STARTCHAR GREEK CAPITAL LETTER EPSILON WITH TONOS
ENCODING 904
SWIDTH 540 0
DWIDTH 9 0
BBX 9 16 0 -3
BITMAP
0000
000C
C00C
C00F
FF03
3003
3003
3003
3C03
3003
3003
3003
3F00
0000
0000
000E
ENDCHAR
STARTCHAR GREEK CAPITAL LETTER ETA WITH TONOS
ENCODING 905
SWIDTH 540 0
DWIDTH 9 0
BBX 9 16 0 -3
BITMAP
0000
000C
C00C
C00F
F303
3303
3303
3303
3F03
3303
3303
3303
3300
0000
0000
000E
ENDCHAR
STARTCHAR GREEK CAPITAL LETTER IOTA WITH TONOS
ENCODING 906
SWIDTH 540 0
DWIDTH 9 0
BBX 9 16 0 -3
BITMAP
0000
000C
C00C
C00D
DE00
0C00
0C00
0C00
0C00
0C00
0C00
0C01
1E00
0000
0000
000E
ENDCHAR
STARTCHAR GREEK CAPITAL LETTER OMICRON WITH TONOS
ENCODING 908
SWIDTH 540 0
DWIDTH 9 0
BBX 9 16 0 -3
BITMAP
0000
000C
C00C
C00D
DE03
3303
3303
3303
3303
3303
3303
3301
1E00
0000
0000
000E
ENDCHAR
STARTCHAR GREEK CAPITAL LETTER UPSILON WITH TONOS
ENCODING 910
SWIDTH 540 0
DWIDTH 9 0
BBX 9 16 0 -3
BITMAP
0000
000C
C00C
C00F
F303
3303
3301
1E00
0E00
0C00
0C01
1801
1800
0000
0000
000E
ENDCHAR
STARTCHAR GREEK CAPITAL LETTER OMEGA WITH TONOS
ENCODING 911
SWIDTH 540 0
DWIDTH 9 0
BBX 9 16 0 -3
BITMAP
0000
000C
C00C
C00D
DE03
3303
3303
3303
3303
3303
3301
1E03
3300
0000
0000
000E
ENDCHAR
STARTCHAR GREEK SMALL LETTER IOTA WITH DIALYTIKA AND TONOS
ENCODING 912
SWIDTH 540 0
DWIDTH 9 0
BBX 9 16 0 -3
BITMAP
0600
0C01
1806
6606
6600
0001
1801
1801
1801
1801
1801
1800
0C00
0000
0000
000E
ENDCHAR
STARTCHAR GREEK CAPITAL LETTER ALPHA
ENCODING 913
SWIDTH 540 0
DWIDTH 9 0
BBX 9 16 0 -3
BITMAP
0000
0000
0000
0003
3E06
6306
6306
6306
6307
7F06
6306
6306
6300
0000
0000
000E
ENDCHAR
STARTCHAR GREEK CAPITAL LETTER BETA
ENCODING 914
SWIDTH 540 0
DWIDTH 9 0
BBX 9 16 0 -3
BITMAP
0000
0000
0000
0007
7E06
6306
6306
6307
7E06
6306
6306
6307
7E00
0000
0000
000E
ENDCHAR
STARTCHAR GREEK CAPITAL LETTER GAMMA
ENCODING 915
SWIDTH 540 0
DWIDTH 9 0
BBX 9 16 0 -3
BITMAP
0000
0000
0000
0007
7F06
6006
6006
6006
6006
6006
6006
6006
6000
0000
0000
000E
ENDCHAR
STARTCHAR GREEK CAPITAL LETTER DELTA
ENCODING 916
SWIDTH 540 0
DWIDTH 9 0
BBX 9 16 0 -3
BITMAP
0000
0000
0000
0000
0801
1C01
1C03
3603
3606
6306
6306
6307
7F00
0000
0000
000E
ENDCHAR
STARTCHAR GREEK CAPITAL LETTER EPSILON
ENCODING 917
SWIDTH 540 0
DWIDTH 9 0
BBX 9 16 0 -3
BITMAP
0000
0000
0000
0007
7F06
6006
6006
6007
7C06
6006
6006
6007
7F00
0000
0000
000E
ENDCHAR
STARTCHAR GREEK CAPITAL LETTER ZETA
ENCODING 918
SWIDTH 540 0
DWIDTH 9 0
BBX 9 16 0 -3
BITMAP
0000
0000
0000
0007
7F00
0300
0600
0C01
1803
3006
6006
6007
7F00
0000
0000
000E
ENDCHAR
STARTCHAR GREEK CAPITAL LETTER ETA
ENCODING 919
SWIDTH 540 0
DWIDTH 9 0
BBX 9 16 0 -3
BITMAP
0000
0000
0000
0006
6306
6306
6306
6307
7F06
6306
6306
6306
6300
0000
0000
000E
ENDCHAR
STARTCHAR GREEK CAPITAL LETTER THETA
ENCODING 920
SWIDTH 540 0
DWIDTH 9 0
BBX 9 16 0 -3
BITMAP
0000
0000
0000
0003
3E06
6306
6306
6307
7F06
6306
6306
6303
3E00
0000
0000
000E
ENDCHAR
STARTCHAR GREEK CAPITAL LETTER IOTA
ENCODING 921
SWIDTH 540 0
DWIDTH 9 0
BBX 9 16 0 -3
BITMAP
0000
0000
0000
0003
3C01
1801
1801
1801
1801
1801
1801
1803
3C00
0000
0000
000E
ENDCHAR
STARTCHAR GREEK CAPITAL LETTER KAPPA
ENCODING 922
SWIDTH 540 0
DWIDTH 9 0
BBX 9 16 0 -3
BITMAP
0000
0000
0000
0006
6306
6606
6C07
7807
7007
7806
6C06
6606
6300
0000
0000
000E
ENDCHAR
STARTCHAR GREEK CAPITAL LETTER LAMDA
ENCODING 923
SWIDTH 540 0
DWIDTH 9 0
BBX 9 16 0 -3
BITMAP
0000
0000
0000
0000
0801
1C01
1C03
3603
3603
3606
6306
6306
6300
0000
0000
000E
ENDCHAR
STARTCHAR GREEK CAPITAL LETTER MU
ENCODING 924
SWIDTH 540 0
DWIDTH 9 0
BBX 9 16 0 -3
BITMAP
0000
0000
0000
0006
6307
7707
7F06
6B06
6306
6306
6306
6306
6300
0000
0000
000E
ENDCHAR
STARTCHAR GREEK CAPITAL LETTER NU
ENCODING 925
SWIDTH 540 0
DWIDTH 9 0
BBX 9 16 0 -3
BITMAP
0000
0000
0000
0006
6306
6307
7307
7B07
7F06
6F06
6706
6306
6300
0000
0000
000E
ENDCHAR
STARTCHAR GREEK CAPITAL LETTER XI
ENCODING 926
SWIDTH 540 0
DWIDTH 9 0
BBX 9 16 0 -3
BITMAP
0000
0000
0000
0007
7F07
7F00
0000
0003
3E00
0000
0007
7F07
7F00
0000
0000
000E
ENDCHAR
STARTCHAR GREEK CAPITAL LETTER OMICRON
ENCODING 927
SWIDTH 540 0
DWIDTH 9 0
BBX 9 16 0 -3
BITMAP
0000
0000
0000
0003
3E06
6306
6306
6306
6306
6306
6306
6303
3E00
0000
0000
000E
ENDCHAR
STARTCHAR GREEK CAPITAL LETTER PI
ENCODING 928
SWIDTH 540 0
DWIDTH 9 0
BBX 9 16 0 -3
BITMAP
0000
0000
0000
0007
7F06
6306
6306
6306
6306
6306
6306
6306
6300
0000
0000
000E
ENDCHAR
STARTCHAR GREEK CAPITAL LETTER RHO
ENCODING 929
SWIDTH 540 0
DWIDTH 9 0
BBX 9 16 0 -3
BITMAP
0000
0000
0000
0007
7E06
6306
6306
6306
6307
7E06
6006
6006
6000
0000
0000
000E
ENDCHAR
STARTCHAR GREEK CAPITAL LETTER SIGMA
ENCODING 931
SWIDTH 540 0
DWIDTH 9 0
BBX 9 16 0 -3
BITMAP
0000
0000
0000
0007
7F06
6003
3001
1800
0C01
1803
3006
6007
7F00
0000
0000
000E
ENDCHAR
STARTCHAR GREEK CAPITAL LETTER TAU
ENCODING 932
SWIDTH 540 0
DWIDTH 9 0
BBX 9 16 0 -3
BITMAP
0000
0000
0000
0007
7E01
1801
1801
1801
1801
1801
1801
1801
1800
0000
0000
000E
ENDCHAR
STARTCHAR GREEK CAPITAL LETTER UPSILON
ENCODING 933
SWIDTH 540 0
DWIDTH 9 0
BBX 9 16 0 -3
BITMAP
0000
0000
0000
0006
6306
6306
6303
3601
1E00
0C00
0C01
1801
1800
0000
0000
000E
ENDCHAR
STARTCHAR GREEK CAPITAL LETTER PHI
ENCODING 934
SWIDTH 540 0
DWIDTH 9 0
BBX 9 16 0 -3
BITMAP
0000
0000
0000
0000
0803
3E06
6B06
6B06
6B06
6B06
6B03
3E00
0800
0000
0000
000E
ENDCHAR
STARTCHAR GREEK CAPITAL LETTER CHI
ENCODING 935
SWIDTH 540 0
DWIDTH 9 0
BBX 9 16 0 -3
BITMAP
0000
0000
0000
0006
6306
6306
6303
3601
1C03
3606
6306
6306
6300
0000
0000
000E
ENDCHAR
STARTCHAR GREEK CAPITAL LETTER PSI
ENCODING 936
SWIDTH 540 0
DWIDTH 9 0
BBX 9 16 0 -3
BITMAP
0000
0000
0000
0006
6B06
6B06
6B06
6B03
3E01
1C01
1C01
1C01
1C00
0000
0000
000E
ENDCHAR
STARTCHAR GREEK CAPITAL LETTER OMEGA
ENCODING 937
SWIDTH 540 0
DWIDTH 9 0
BBX 9 16 0 -3
BITMAP
0000
0000
0000
0003
3E06
6306
6306
6306
6306
6306
6303
3607
7700
0000
0000
000E
ENDCHAR
STARTCHAR GREEK CAPITAL LETTER IOTA WITH DIALYTIKA
ENCODING 938
SWIDTH 540 0
DWIDTH 9 0
BBX 9 16 0 -3
BITMAP
0006
6606
6600
0003
3C01
1801
1801
1801
1801
1801
1801
1803
3C00
0000
0000
000E
ENDCHAR
STARTCHAR GREEK CAPITAL LETTER UPSILON WITH DIALYTIKA
ENCODING 939
SWIDTH 540 0
DWIDTH 9 0
BBX 9 16 0 -3
BITMAP
0003
3603
3600
0006
6306
6306
6303
3601
1E00
0C00
0C01
1801
1800
0000
0000
000E
ENDCHAR
STARTCHAR GREEK SMALL LETTER ALPHA WITH TONOS
ENCODING 940
SWIDTH 540 0
DWIDTH 9 0
BBX 9 16 0 -3
BITMAP
0000
0000
0600
0C01
1800
0003
3B06
6606
6606
6606
6606
6603
3B00
0000
0000
000E
ENDCHAR
STARTCHAR GREEK SMALL LETTER EPSILON WITH TONOS
ENCODING 941
SWIDTH 540 0
DWIDTH 9 0
BBX 9 16 0 -3
BITMAP
0000
0000
0600
0C01
1800
0003
3F06
6006
6003
3C06
6006
6003
3F00
0000
0000
000E
ENDCHAR
STARTCHAR GREEK SMALL LETTER ETA WITH TONOS
ENCODING 942
SWIDTH 540 0
DWIDTH 9 0
BBX 9 16 0 -3
BITMAP
0000
0000
0600
0C01
1800
0007
7E06
6306
6306
6306
6306
6306
6300
0300
0300
030E
ENDCHAR
STARTCHAR GREEK SMALL LETTER IOTA WITH TONOS
ENCODING 943
SWIDTH 540 0
DWIDTH 9 0
BBX 9 16 0 -3
BITMAP
0000
0000
0600
0C01
1800
0001
1801
1801
1801
1801
1801
1800
0C00
0000
0000
000E
ENDCHAR
STARTCHAR GREEK SMALL LETTER UPSILON WITH DIALYTIKA AND TONOS
ENCODING 944
SWIDTH 540 0
DWIDTH 9 0
BBX 9 16 0 -3
BITMAP
0600
0C01
1806
6306
6300
0006
6306
6306
6306
6306
6306
6303
3E00
0000
0000
000E
ENDCHAR
STARTCHAR GREEK SMALL LETTER ALPHA
ENCODING 945
SWIDTH 540 0
DWIDTH 9 0
BBX 9 16 0 -3
BITMAP
0000
0000
0000
0000
0000
0003
3B06
6606
6606
6606
6606
6603
3B00
0000
0000
000E
ENDCHAR
STARTCHAR GREEK SMALL LETTER BETA
ENCODING 946
SWIDTH 540 0
DWIDTH 9 0
BBX 9 16 0 -3
BITMAP
0000
0003
3C06
6606
6606
6607
7C06
6606
6306
6306
6306
6306
6E06
6006
6006
600E
ENDCHAR
STARTCHAR GREEK SMALL LETTER GAMMA
ENCODING 947
SWIDTH 540 0
DWIDTH 9 0
BBX 9 16 0 -3
BITMAP
0000
0000
0000
0000
0000
0006
6306
6306
6303
3603
3603
3601
1C01
1C01
1C01
1C0E
ENDCHAR
STARTCHAR GREEK SMALL LETTER DELTA
ENCODING 948
SWIDTH 540 0
DWIDTH 9 0
BBX 9 16 0 -3
BITMAP
0000
0003
3F06
6006
6003
3003
3E06
6306
6306
6306
6306
6303
3E00
0000
0000
000E
ENDCHAR
STARTCHAR GREEK SMALL LETTER EPSILON
ENCODING 949
SWIDTH 540 0
DWIDTH 9 0
BBX 9 16 0 -3
BITMAP
0000
0000
0000
0000
0000
0003
3F06
6006
6003
3C06
6006
6003
3F00
0000
0000
000E
ENDCHAR
STARTCHAR GREEK SMALL LETTER ZETA
ENCODING 950
SWIDTH 540 0
DWIDTH 9 0
BBX 9 16 0 -3
BITMAP
0000
0007
7F00
0300
0600
0C01
1803
3006
6006
6006
6006
6003
3E00
0300
0300
000E
ENDCHAR
STARTCHAR GREEK SMALL LETTER ETA
ENCODING 951
SWIDTH 540 0
DWIDTH 9 0
BBX 9 16 0 -3
BITMAP
0000
0000
0000
0000
0000
0007
7E06
6306
6306
6306
6306
6306
6300
0300
0300
030E
ENDCHAR
STARTCHAR GREEK SMALL LETTER THETA
ENCODING 952
SWIDTH 540 0
DWIDTH 9 0
BBX 9 16 0 -3
BITMAP
0000
0003
3E06
6306
6306
6306
6307
7F06
6306
6306
6306
6303
3E00
0000
0000
000E
ENDCHAR
STARTCHAR GREEK SMALL LETTER IOTA
ENCODING 953
SWIDTH 540 0
DWIDTH 9 0
BBX 9 16 0 -3
BITMAP
0000
0000
0000
0000
0000
0001
1801
1801
1801
1801
1801
1800
0C00
0000
0000
000E
ENDCHAR
STARTCHAR GREEK SMALL LETTER KAPPA
ENCODING 954
SWIDTH 540 0
DWIDTH 9 0
BBX 9 16 0 -3
BITMAP
0000
0000
0000
0000
0000
0006
6306
6606
6C07
7806
6C06
6606
6300
0000
0000
000E
ENDCHAR
STARTCHAR GREEK SMALL LETTER LAMDA
ENCODING 955
SWIDTH 540 0
DWIDTH 9 0
BBX 9 16 0 -3
BITMAP
0000
0003
3800
0C00
0C00
0C01
1C01
1E03
3603
3603
3306
6306
6300
0000
0000
000E
ENDCHAR
STARTCHAR GREEK SMALL LETTER MU
ENCODING 956
SWIDTH 540 0
DWIDTH 9 0
BBX 9 16 0 -3
BITMAP
0000
0000
0000
0000
0000
0006
6306
6306
6306
6306
6306
6307
7F06
6006
6006
600E
ENDCHAR
STARTCHAR GREEK SMALL LETTER NU
ENCODING 957
SWIDTH 540 0
DWIDTH 9 0
BBX 9 16 0 -3
BITMAP
0000
0000
0000
0000
0000
0006
6306
6306
6303
3303
3603
3601
1C00
0000
0000
000E
ENDCHAR
STARTCHAR GREEK SMALL LETTER XI
ENCODING 958
SWIDTH 540 0
DWIDTH 9 0
BBX 9 16 0 -3
BITMAP
0000
0003
3F01
1803
3003
3001
1E03
3006
6006
6006
6006
6003
3E00
0300
0300
000E
ENDCHAR
STARTCHAR GREEK SMALL LETTER OMICRON
ENCODING 959
SWIDTH 540 0
DWIDTH 9 0
BBX 9 16 0 -3
BITMAP
0000
0000
0000
0000
0000
0003
3E06
6306
6306
6306
6306
6303
3E00
0000
0000
000E
ENDCHAR
STARTCHAR GREEK SMALL LETTER PI
ENCODING 960
SWIDTH 540 0
DWIDTH 9 0
BBX 9 16 0 -3
BITMAP
0000
0000
0000
0000
0000
0007
7F03
3603
3603
3603
3603
3606
6700
0000
0000
000E
ENDCHAR
STARTCHAR GREEK SMALL LETTER RHO
ENCODING 961
SWIDTH 540 0
DWIDTH 9 0
BBX 9 16 0 -3
BITMAP
0000
0000
0000
0000
0000
0003
3E06
6306
6306
6306
6306
6307
7E06
6006
6006
600E
ENDCHAR
STARTCHAR GREEK SMALL LETTER FINAL SIGMA
ENCODING 962
SWIDTH 540 0
DWIDTH 9 0
BBX 9 16 0 -3
BITMAP
0000
0000
0000
0000
0000
0003
3F06
6006
6006
6006
6006
6003
3E00
0300
0300
000E
ENDCHAR
STARTCHAR GREEK SMALL LETTER SIGMA
ENCODING 963
SWIDTH 540 0
DWIDTH 9 0
BBX 9 16 0 -3
BITMAP
0000
0000
0000
0000
0000
0003
3F06
6606
6306
6306
6306
6303
3E00
0000
0000
000E
ENDCHAR
STARTCHAR GREEK SMALL LETTER TAU
ENCODING 964
SWIDTH 540 0
DWIDTH 9 0
BBX 9 16 0 -3
BITMAP
0000
0000
0000
0000
0000
0007
7F01
1801
1801
1801
1801
1800
0C00
0000
0000
000E
ENDCHAR
STARTCHAR GREEK SMALL LETTER UPSILON
ENCODING 965
SWIDTH 540 0
DWIDTH 9 0
BBX 9 16 0 -3
BITMAP
0000
0000
0000
0000
0000
0006
6306
6306
6306
6306
6306
6303
3E00
0000
0000
000E
ENDCHAR
STARTCHAR GREEK SMALL LETTER PHI
ENCODING 966
SWIDTH 540 0
DWIDTH 9 0
BBX 9 16 0 -3
BITMAP
0000
0000
0000
0000
0000
0006
6606
6B06
6B06
6B06
6B06
6B03
3E00
0800
0800
080E
ENDCHAR
STARTCHAR GREEK SMALL LETTER CHI
ENCODING 967
SWIDTH 540 0
DWIDTH 9 0
BBX 9 16 0 -3
BITMAP
0000
0000
0000
0000
0000
0007
7301
1B01
1B01
1B01
1E03
3C06
6C06
6C06
6C06
670E
ENDCHAR
STARTCHAR GREEK SMALL LETTER PSI
ENCODING 968
SWIDTH 540 0
DWIDTH 9 0
BBX 9 16 0 -3
BITMAP
0000
0000
0000
0000
0000
0006
6B06
6B06
6B06
6B06
6B06
6B03
3E00
0800
0800
080E
ENDCHAR
STARTCHAR GREEK SMALL LETTER OMEGA
ENCODING 969
SWIDTH 540 0
DWIDTH 9 0
BBX 9 16 0 -3
BITMAP
0000
0000
0000
0000
0000
0003
3606
6306
6B06
6B06
6B06
6B03
3600
0000
0000
000E
ENDCHAR
STARTCHAR GREEK SMALL LETTER IOTA WITH DIALYTIKA
ENCODING 970
SWIDTH 540 0
DWIDTH 9 0
BBX 9 16 0 -3
BITMAP
0000
0000
0003
3603
3600
0001
1801
1801
1801
1801
1801
1800
0C00
0000
0000
000E
ENDCHAR
STARTCHAR GREEK SMALL LETTER UPSILON WITH DIALYTIKA
ENCODING 971
SWIDTH 540 0
DWIDTH 9 0
BBX 9 16 0 -3
BITMAP
0000
0000
0003
3603
3600
0006
6306
6306
6306
6306
6306
6303
3E00
0000
0000
000E
ENDCHAR
STARTCHAR GREEK SMALL LETTER OMICRON WITH TONOS
ENCODING 972
SWIDTH 540 0
DWIDTH 9 0
BBX 9 16 0 -3
BITMAP
0000
0000
0600
0C01
1800
0003
3E06
6306
6306
6306
6306
6303
3E00
0000
0000
000E
ENDCHAR
STARTCHAR GREEK SMALL LETTER UPSILON WITH TONOS
ENCODING 973
SWIDTH 540 0
DWIDTH 9 0
BBX 9 16 0 -3
BITMAP
0000
0000
0600
0C01
1800
0006
6306
6306
6306
6306
6306
6303
3E00
0000
0000
000E
ENDCHAR
STARTCHAR GREEK SMALL LETTER OMEGA WITH TONOS
ENCODING 974
SWIDTH 540 0
DWIDTH 9 0
BBX 9 16 0 -3
BITMAP
0000
0000
0600
0C01
1800
0003
3606
6306
6B06
6B06
6B06
6B03
3600
0000
0000
000E
ENDCHAR
STARTCHAR CYRILLIC CAPITAL LETTER IO
ENCODING 1025
SWIDTH 540 0
DWIDTH 9 0
BBX 9 16 0 -3
BITMAP
0003
3603
3600
0007
7F06
6006
6006
6007
7C06
6006
6006
6007
7F00
0000
0000
000E
ENDCHAR
STARTCHAR CYRILLIC CAPITAL LETTER DJE
ENCODING 1026
SWIDTH 540 0
DWIDTH 9 0
BBX 9 16 0 -3
BITMAP
0000
0000
0000
000F
FC06
6006
6006
6007
7E06
6306
6306
6306
6300
0E00
0000
000E
ENDCHAR
STARTCHAR CYRILLIC CAPITAL LETTER GJE
ENCODING 1027
SWIDTH 540 0
DWIDTH 9 0
BBX 9 16 0 -3
BITMAP
0600
0C01
1800
0007
7F06
6006
6006
6006
6006
6006
6006
6006
6000
0000
0000
000E
ENDCHAR
STARTCHAR CYRILLIC CAPITAL LETTER UKRAINIAN IE
ENCODING 1028
SWIDTH 540 0
DWIDTH 9 0
BBX 9 16 0 -3
BITMAP
0000
0000
0000
0003
3F06
6006
6006
6007
7C06
6006
6006
6003
3F00
0000
0000
000E
ENDCHAR
STARTCHAR CYRILLIC CAPITAL LETTER DZE
ENCODING 1029
SWIDTH 540 0
DWIDTH 9 0
BBX 9 16 0 -3
BITMAP
0000
0000
0000
0003
3F06
6006
6006
6003
3E00
0300
0300
0307
7E00
0000
0000
000E
ENDCHAR
STARTCHAR CYRILLIC CAPITAL LETTER BYELORUSSIAN-UKRAINIAN I
ENCODING 1030
SWIDTH 540 0
DWIDTH 9 0
BBX 9 16 0 -3
BITMAP
0000
0000
0000
0003
3C01
1801
1801
1801
1801
1801
1801
1803
3C00
0000
0000
000E
ENDCHAR
STARTCHAR CYRILLIC CAPITAL LETTER YI
ENCODING 1031
SWIDTH 540 0
DWIDTH 9 0
BBX 9 16 0 -3
BITMAP
0006
6606
6600
0003
3C01
1801
1801
1801
1801
1801
1801
1803
3C00
0000
0000
000E
ENDCHAR
STARTCHAR CYRILLIC CAPITAL LETTER JE
ENCODING 1032
SWIDTH 540 0
DWIDTH 9 0
BBX 9 16 0 -3
BITMAP
0000
0000
0000
0000
0300
0300
0300
0300
0300
0300
0306
6303
3E00
0000
0000
000E
ENDCHAR
STARTCHAR CYRILLIC CAPITAL LETTER LJE
ENCODING 1033
SWIDTH 540 0
DWIDTH 9 0
BBX 9 16 0 -3
BITMAP
0000
0000
0000
0007
780D
D80D
D80D
D80D
DE0D
DB0D
DB0D
DB09
9E00
0000
0000
000E
ENDCHAR
STARTCHAR CYRILLIC CAPITAL LETTER NJE
ENCODING 1034
SWIDTH 540 0
DWIDTH 9 0
BBX 9 16 0 -3
BITMAP
0000
0000
0000
000D
D80D
D80D
D80D
D80F
FE0D
DB0D
DB0D
DB0D
DE00
0000
0000
000E
ENDCHAR
STARTCHAR CYRILLIC CAPITAL LETTER TSHE
ENCODING 1035
SWIDTH 540 0
DWIDTH 9 0
BBX 9 16 0 -3
BITMAP
0000
0000
0000
000F
FC06
6006
6006
6007
7E06
6306
6306
6306
6300
0000
0000
000E
ENDCHAR
STARTCHAR CYRILLIC CAPITAL LETTER KJE
ENCODING 1036
SWIDTH 540 0
DWIDTH 9 0
BBX 9 16 0 -3
BITMAP
0600
0C01
1800
0006
6306
6606
6C07
7807
7007
7806
6C06
6606
6300
0000
0000
000E
ENDCHAR
STARTCHAR CYRILLIC CAPITAL LETTER I WITH GRAVE
ENCODING 1037
SWIDTH 540 0
DWIDTH 9 0
BBX 9 16 0 -3
BITMAP
3001
1800
0C00
0006
6306
6306
6706
6F07
7F07
7B07
7306
6306
6300
0000
0000
000E
ENDCHAR
STARTCHAR CYRILLIC CAPITAL LETTER SHORT U
ENCODING 1038
SWIDTH 540 0
DWIDTH 9 0
BBX 9 16 0 -3
BITMAP
0003
3601
1C00
0006
6306
6306
6303
3601
1E00
0C00
0C01
1801
1800
0000
0000
000E
ENDCHAR
STARTCHAR CYRILLIC CAPITAL LETTER DZHE
ENCODING 1039
SWIDTH 540 0
DWIDTH 9 0
BBX 9 16 0 -3
BITMAP
0000
0000
0000
0006
6306
6306
6306
6306
6306
6306
6306
6307
7F00
0800
0800
080E
ENDCHAR
STARTCHAR CYRILLIC CAPITAL LETTER A
ENCODING 1040
SWIDTH 540 0
DWIDTH 9 0
BBX 9 16 0 -3
BITMAP
0000
0000
0000
0003
3E06
6306
6306
6306
6307
7F06
6306
6306
6300
0000
0000
000E
ENDCHAR
STARTCHAR CYRILLIC CAPITAL LETTER BE
ENCODING 1041
SWIDTH 540 0
DWIDTH 9 0
BBX 9 16 0 -3
BITMAP
0000
0000
0000
0007
7E06
6006
6006
6007
7E06
6306
6306
6307
7E00
0000
0000
000E
ENDCHAR
STARTCHAR CYRILLIC CAPITAL LETTER VE
ENCODING 1042
SWIDTH 540 0
DWIDTH 9 0
BBX 9 16 0 -3
BITMAP
0000
0000
0000
0007
7E06
6306
6306
6307
7E06
6306
6306
6307
7E00
0000
0000
000E
ENDCHAR
STARTCHAR CYRILLIC CAPITAL LETTER GHE
ENCODING 1043
SWIDTH 540 0
DWIDTH 9 0
BBX 9 16 0 -3
BITMAP
0000
0000
0000
0007
7F06
6006
6006
6006
6006
6006
6006
6006
6000
0000
0000
000E
ENDCHAR
STARTCHAR CYRILLIC CAPITAL LETTER DE
ENCODING 1044
SWIDTH 540 0
DWIDTH 9 0
BBX 9 16 0 -3
BITMAP
0000
0000
0000
0001
1E03
3603
3603
3603
3603
3603
3603
3607
7F06
6306
6300
000E
ENDCHAR
STARTCHAR CYRILLIC CAPITAL LETTER IE
ENCODING 1045
SWIDTH 540 0
DWIDTH 9 0
BBX 9 16 0 -3
BITMAP
0000
0000
0000
0007
7F06
6006
6006
6007
7C06
6006
6006
6007
7F00
0000
0000
000E
ENDCHAR
STARTCHAR CYRILLIC CAPITAL LETTER ZHE
ENCODING 1046
SWIDTH 540 0
DWIDTH 9 0
BBX 9 16 0 -3
BITMAP
0000
0000
0000
0006
6B06
6B06
6B06
6B03
3E06
6B06
6B06
6B06
6B00
0000
0000
000E
ENDCHAR
STARTCHAR CYRILLIC CAPITAL LETTER ZE
ENCODING 1047
SWIDTH 540 0
DWIDTH 9 0
BBX 9 16 0 -3
BITMAP
0000
0000
0000
0007
7E00
0300
0300
0301
1E00
0300
0300
0307
7E00
0000
0000
000E
ENDCHAR
STARTCHAR CYRILLIC CAPITAL LETTER I
ENCODING 1048
SWIDTH 540 0
DWIDTH 9 0
BBX 9 16 0 -3
BITMAP
0000
0000
0000
0006
6306
6306
6706
6F07
7F07
7B07
7306
6306
6300
0000
0000
000E
ENDCHAR
STARTCHAR CYRILLIC CAPITAL LETTER SHORT I
ENCODING 1049
SWIDTH 540 0
DWIDTH 9 0
BBX 9 16 0 -3
BITMAP
0003
3601
1C00
0006
6306
6306
6706
6F07
7F07
7B07
7306
6306
6300
0000
0000
000E
ENDCHAR
STARTCHAR CYRILLIC CAPITAL LETTER KA
ENCODING 1050
SWIDTH 540 0
DWIDTH 9 0
BBX 9 16 0 -3
BITMAP
0000
0000
0000
0006
6306
6606
6C07
7807
7007
7806
6C06
6606
6300
0000
0000
000E
ENDCHAR
STARTCHAR CYRILLIC CAPITAL LETTER EL
ENCODING 1051
SWIDTH 540 0
DWIDTH 9 0
BBX 9 16 0 -3
BITMAP
0000
0000
0000
0001
1F03
3303
3303
3303
3303
3303
3303
3306
6300
0000
0000
000E
ENDCHAR
STARTCHAR CYRILLIC CAPITAL LETTER EM
ENCODING 1052
SWIDTH 540 0
DWIDTH 9 0
BBX 9 16 0 -3
BITMAP
0000
0000
0000
0006
6307
7707
7F06
6B06
6306
6306
6306
6306
6300
0000
0000
000E
ENDCHAR
STARTCHAR CYRILLIC CAPITAL LETTER EN
ENCODING 1053
SWIDTH 540 0
DWIDTH 9 0
BBX 9 16 0 -3
BITMAP
0000
0000
0000
0006
6306
6306
6306
6307
7F06
6306
6306
6306
6300
0000
0000
000E
ENDCHAR
STARTCHAR CYRILLIC CAPITAL LETTER O
ENCODING 1054
SWIDTH 540 0
DWIDTH 9 0
BBX 9 16 0 -3
BITMAP
0000
0000
0000
0003
3E06
6306
6306
6306
6306
6306
6306
6303
3E00
0000
0000
000E
ENDCHAR
STARTCHAR CYRILLIC CAPITAL LETTER PE
ENCODING 1055
SWIDTH 540 0
DWIDTH 9 0
BBX 9 16 0 -3
BITMAP
0000
0000
0000
0007
7F06
6306
6306
6306
6306
6306
6306
6306
6300
0000
0000
000E
ENDCHAR
STARTCHAR CYRILLIC CAPITAL LETTER ER
ENCODING 1056
SWIDTH 540 0
DWIDTH 9 0
BBX 9 16 0 -3
BITMAP
0000
0000
0000
0007
7E06
6306
6306
6306
6307
7E06
6006
6006
6000
0000
0000
000E
ENDCHAR
STARTCHAR CYRILLIC CAPITAL LETTER ES
ENCODING 1057
SWIDTH 540 0
DWIDTH 9 0
BBX 9 16 0 -3
BITMAP
0000
0000
0000
0003
3F06
6006
6006
6006
6006
6006
6006
6003
3F00
0000
0000
000E
ENDCHAR
STARTCHAR CYRILLIC CAPITAL LETTER TE
ENCODING 1058
SWIDTH 540 0
DWIDTH 9 0
BBX 9 16 0 -3
BITMAP
0000
0000
0000
0007
7E01
1801
1801
1801
1801
1801
1801
1801
1800
0000
0000
000E
ENDCHAR
STARTCHAR CYRILLIC CAPITAL LETTER U
ENCODING 1059
SWIDTH 540 0
DWIDTH 9 0
BBX 9 16 0 -3
BITMAP
0000
0000
0000
0006
6306
6306
6303
3601
1E00
0C00
0C01
1801
1800
0000
0000
000E
ENDCHAR
STARTCHAR CYRILLIC CAPITAL LETTER EF
ENCODING 1060
SWIDTH 540 0
DWIDTH 9 0
BBX 9 16 0 -3
BITMAP
0000
0000
0000
0000
0803
3E06
6B06
6B06
6B06
6B06
6B03
3E00
0800
0000
0000
000E
ENDCHAR
STARTCHAR CYRILLIC CAPITAL LETTER HA
ENCODING 1061
SWIDTH 540 0
DWIDTH 9 0
BBX 9 16 0 -3
BITMAP
0000
0000
0000
0006
6306
6306
6303
3601
1C03
3606
6306
6306
6300
0000
0000
000E
ENDCHAR
STARTCHAR CYRILLIC CAPITAL LETTER TSE
ENCODING 1062
SWIDTH 540 0
DWIDTH 9 0
BBX 9 16 0 -3
BITMAP
0000
0000
0000
0006
6306
6306
6306
6306
6306
6306
6306
6307
7F00
0300
0300
000E
ENDCHAR
STARTCHAR CYRILLIC CAPITAL LETTER CHE
ENCODING 1063
SWIDTH 540 0
DWIDTH 9 0
BBX 9 16 0 -3
BITMAP
0000
0000
0000
0006
6306
6306
6306
6303
3F00
0300
0300
0300
0300
0000
0000
000E
ENDCHAR
STARTCHAR CYRILLIC CAPITAL LETTER SHA
ENCODING 1064
SWIDTH 540 0
DWIDTH 9 0
BBX 9 16 0 -3
BITMAP
0000
0000
0000
0006
6B06
6B06
6B06
6B06
6B06
6B06
6B06
6B07
7F00
0000
0000
000E
ENDCHAR
STARTCHAR CYRILLIC CAPITAL LETTER SHCHA
ENCODING 1065
SWIDTH 540 0
DWIDTH 9 0
BBX 9 16 0 -3
BITMAP
0000
0000
0000
0006
6B06
6B06
6B06
6B06
6B06
6B06
6B06
6B07
7F00
0300
0300
000E
ENDCHAR
STARTCHAR CYRILLIC CAPITAL LETTER HARD SIGN
ENCODING 1066
SWIDTH 540 0
DWIDTH 9 0
BBX 9 16 0 -3
BITMAP
0000
0000
0000
000F
F003
3003
3003
3003
3E03
3303
3303
3303
3E00
0000
0000
000E
ENDCHAR
STARTCHAR CYRILLIC CAPITAL LETTER YERU
ENCODING 1067
SWIDTH 540 0
DWIDTH 9 0
BBX 9 16 0 -3
BITMAP
0000
0000
0000
0006
6306
6306
6306
6307
7B06
6F06
6F06
6F07
7B00
0000
0000
000E
ENDCHAR
STARTCHAR CYRILLIC CAPITAL LETTER SOFT SIGN
ENCODING 1068
SWIDTH 540 0
DWIDTH 9 0
BBX 9 16 0 -3
BITMAP
0000
0000
0000
0006
6006
6006
6006
6007
7E06
6306
6306
6307
7E00
0000
0000
000E
ENDCHAR
STARTCHAR CYRILLIC CAPITAL LETTER E
ENCODING 1069
SWIDTH 540 0
DWIDTH 9 0
BBX 9 16 0 -3
BITMAP
0000
0000
0000
0007
7E00
0300
0300
0301
1F00
0300
0300
0307
7E00
0000
0000
000E
ENDCHAR
STARTCHAR CYRILLIC CAPITAL LETTER YU
ENCODING 1070
SWIDTH 540 0
DWIDTH 9 0
BBX 9 16 0 -3
BITMAP
0000
0000
0000
0006
6E07
7B07
7B07
7B07
7B07
7B07
7B07
7B06
6E00
0000
0000
000E
ENDCHAR
STARTCHAR CYRILLIC CAPITAL LETTER YA
ENCODING 1071
SWIDTH 540 0
DWIDTH 9 0
BBX 9 16 0 -3
BITMAP
0000
0000
0000
0003
3F06
6306
6306
6306
6303
3F01
1B03
3306
6300
0000
0000
000E
ENDCHAR
STARTCHAR CYRILLIC SMALL LETTER A
ENCODING 1072
SWIDTH 540 0
DWIDTH 9 0
BBX 9 16 0 -3
BITMAP
0000
0000
0000
0000
0000
0003
3E00
0300
0303
3F06
6306
6303
3F00
0000
0000
000E
ENDCHAR
STARTCHAR CYRILLIC SMALL LETTER BE
ENCODING 1073
SWIDTH 540 0
DWIDTH 9 0
BBX 9 16 0 -3
BITMAP
0000
0000
0603
3C06
6006
6007
7E06
6306
6306
6306
6306
6303
3E00
0000
0000
000E
ENDCHAR
STARTCHAR CYRILLIC SMALL LETTER VE
ENCODING 1074
SWIDTH 540 0
DWIDTH 9 0
BBX 9 16 0 -3
BITMAP
0000
0000
0000
0000
0000
0007
7E06
6306
6307
7E06
6306
6307
7E00
0000
0000
000E
ENDCHAR
STARTCHAR CYRILLIC SMALL LETTER GHE
ENCODING 1075
SWIDTH 540 0
DWIDTH 9 0
BBX 9 16 0 -3
BITMAP
0000
0000
0000
0000
0000
0007
7F06
6006
6006
6006
6006
6006
6000
0000
0000
000E
ENDCHAR
STARTCHAR CYRILLIC SMALL LETTER DE
ENCODING 1076
SWIDTH 540 0
DWIDTH 9 0
BBX 9 16 0 -3
BITMAP
0000
0000
0000
0000
0000
0001
1E03
3603
3603
3603
3603
3607
7F06
6306
6300
000E
ENDCHAR
STARTCHAR CYRILLIC SMALL LETTER IE
ENCODING 1077
SWIDTH 540 0
DWIDTH 9 0
BBX 9 16 0 -3
BITMAP
0000
0000
0000
0000
0000
0003
3E06
6306
6307
7F06
6006
6003
3E00
0000
0000
000E
ENDCHAR
STARTCHAR CYRILLIC SMALL LETTER ZHE
ENCODING 1078
SWIDTH 540 0
DWIDTH 9 0
BBX 9 16 0 -3
BITMAP
0000
0000
0000
0000
0000
0006
6B06
6B06
6B03
3E06
6B06
6B06
6B00
0000
0000
000E
ENDCHAR
STARTCHAR CYRILLIC SMALL LETTER ZE
ENCODING 1079
SWIDTH 540 0
DWIDTH 9 0
BBX 9 16 0 -3
BITMAP
0000
0000
0000
0000
0000
0007
7E00
0300
0301
1E00
0300
0307
7E00
0000
0000
000E
ENDCHAR
STARTCHAR CYRILLIC SMALL LETTER I
ENCODING 1080
SWIDTH 540 0
DWIDTH 9 0
BBX 9 16 0 -3
BITMAP
0000
0000
0000
0000
0000
0006
6306
6306
6706
6F07
7B07
7306
6300
0000
0000
000E
ENDCHAR
STARTCHAR CYRILLIC SMALL LETTER SHORT I
ENCODING 1081
SWIDTH 540 0
DWIDTH 9 0
BBX 9 16 0 -3
BITMAP
0000
0000
0003
3601
1C00
0006
6306
6306
6706
6F07
7B07
7306
6300
0000
0000
000E
ENDCHAR
STARTCHAR CYRILLIC SMALL LETTER KA
ENCODING 1082
SWIDTH 540 0
DWIDTH 9 0
BBX 9 16 0 -3
BITMAP
0000
0000
0000
0000
0000
0006
6306
6606
6C07
7806
6C06
6606
6300
0000
0000
000E
ENDCHAR
STARTCHAR CYRILLIC SMALL LETTER EL
ENCODING 1083
SWIDTH 540 0
DWIDTH 9 0
BBX 9 16 0 -3
BITMAP
0000
0000
0000
0000
0000
0001
1F03
3303
3303
3303
3303
3306
6300
0000
0000
000E
ENDCHAR
STARTCHAR CYRILLIC SMALL LETTER EM
ENCODING 1084
SWIDTH 540 0
DWIDTH 9 0
BBX 9 16 0 -3
BITMAP
0000
0000
0000
0000
0000
0006
6307
7707
7F06
6B06
6306
6306
6300
0000
0000
000E
ENDCHAR
STARTCHAR CYRILLIC SMALL LETTER EN
ENCODING 1085
SWIDTH 540 0
DWIDTH 9 0
BBX 9 16 0 -3
BITMAP
0000
0000
0000
0000
0000
0006
6306
6306
6307
7F06
6306
6306
6300
0000
0000
000E
ENDCHAR
STARTCHAR CYRILLIC SMALL LETTER O
ENCODING 1086
SWIDTH 540 0
DWIDTH 9 0
BBX 9 16 0 -3
BITMAP
0000
0000
0000
0000
0000
0003
3E06
6306
6306
6306
6306
6303
3E00
0000
0000
000E
ENDCHAR
STARTCHAR CYRILLIC SMALL LETTER PE
ENCODING 1087
SWIDTH 540 0
DWIDTH 9 0
BBX 9 16 0 -3
BITMAP
0000
0000
0000
0000
0000
0007
7F06
6306
6306
6306
6306
6306
6300
0000
0000
000E
ENDCHAR
STARTCHAR CYRILLIC SMALL LETTER ER
ENCODING 1088
SWIDTH 540 0
DWIDTH 9 0
BBX 9 16 0 -3
BITMAP
0000
0000
0000
0000
0000
0007
7E06
6306
6306
6306
6306
6307
7E06
6006
6006
600E
ENDCHAR
STARTCHAR CYRILLIC SMALL LETTER ES
ENCODING 1089
SWIDTH 540 0
DWIDTH 9 0
BBX 9 16 0 -3
BITMAP
0000
0000
0000
0000
0000
0003
3F06
6006
6006
6006
6006
6003
3F00
0000
0000
000E
ENDCHAR
STARTCHAR CYRILLIC SMALL LETTER TE
ENCODING 1090
SWIDTH 540 0
DWIDTH 9 0
BBX 9 16 0 -3
BITMAP
0000
0000
0000
0000
0000
0007
7E01
1801
1801
1801
1801
1801
1800
0000
0000
000E
ENDCHAR
STARTCHAR CYRILLIC SMALL LETTER U
ENCODING 1091
SWIDTH 540 0
DWIDTH 9 0
BBX 9 16 0 -3
BITMAP
0000
0000
0000
0000
0000
0006
6306
6306
6306
6306
6306
6303
3F00
0300
0301
1E0E
ENDCHAR
STARTCHAR CYRILLIC SMALL LETTER EF
ENCODING 1092
SWIDTH 540 0
DWIDTH 9 0
BBX 9 16 0 -3
BITMAP
0000
0000
0000
0800
0800
0803
3E06
6B06
6B06
6B06
6B06
6B03
3E00
0800
0800
080E
ENDCHAR
STARTCHAR CYRILLIC SMALL LETTER HA
ENCODING 1093
SWIDTH 540 0
DWIDTH 9 0
BBX 9 16 0 -3
BITMAP
0000
0000
0000
0000
0000
0006
6306
6303
3601
1C03
3606
6306
6300
0000
0000
000E
ENDCHAR
STARTCHAR CYRILLIC SMALL LETTER TSE
ENCODING 1094
SWIDTH 540 0
DWIDTH 9 0
BBX 9 16 0 -3
BITMAP
0000
0000
0000
0000
0000
0006
6606
6606
6606
6606
6606
6607
7F00
0300
0300
000E
ENDCHAR
STARTCHAR CYRILLIC SMALL LETTER CHE
ENCODING 1095
SWIDTH 540 0
DWIDTH 9 0
BBX 9 16 0 -3
BITMAP
0000
0000
0000
0000
0000
0006
6306
6306
6303
3F00
0300
0300
0300
0000
0000
000E
ENDCHAR
STARTCHAR CYRILLIC SMALL LETTER SHA
ENCODING 1096
SWIDTH 540 0
DWIDTH 9 0
BBX 9 16 0 -3
BITMAP
0000
0000
0000
0000
0000
0006
6B06
6B06
6B06
6B06
6B06
6B07
7F00
0000
0000
000E
ENDCHAR
STARTCHAR CYRILLIC SMALL LETTER SHCHA
ENCODING 1097
SWIDTH 540 0
DWIDTH 9 0
BBX 9 16 0 -3
BITMAP
0000
0000
0000
0000
0000
0006
6B06
6B06
6B06
6B06
6B06
6B07
7F00
0300
0300
000E
ENDCHAR
STARTCHAR CYRILLIC SMALL LETTER HARD SIGN
ENCODING 1098
SWIDTH 540 0
DWIDTH 9 0
BBX 9 16 0 -3
BITMAP
0000
0000
0000
0000
0000
000F
F003
3003
3003
3E03
3303
3303
3E00
0000
0000
000E
ENDCHAR
STARTCHAR CYRILLIC SMALL LETTER YERU
ENCODING 1099
SWIDTH 540 0
DWIDTH 9 0
BBX 9 16 0 -3
BITMAP
0000
0000
0000
0000
0000
0006
6306
6306
6307
7B06
6F06
6F07
7B00
0000
0000
000E
ENDCHAR
STARTCHAR CYRILLIC SMALL LETTER SOFT SIGN
ENCODING 1100
SWIDTH 540 0
DWIDTH 9 0
BBX 9 16 0 -3
BITMAP
0000
0000
0000
0000
0000
0006
6006
6006
6007
7E06
6306
6307
7E00
0000
0000
000E
ENDCHAR
STARTCHAR CYRILLIC SMALL LETTER E
ENCODING 1101
SWIDTH 540 0
DWIDTH 9 0
BBX 9 16 0 -3
BITMAP
0000
0000
0000
0000
0000
0007
7E00
0300
0301
1F00
0300
0307
7E00
0000
0000
000E
ENDCHAR
STARTCHAR CYRILLIC SMALL LETTER YU
ENCODING 1102
SWIDTH 540 0
DWIDTH 9 0
BBX 9 16 0 -3
BITMAP
0000
0000
0000
0000
0000
0006
6E07
7B07
7B07
7B07
7B07
7B06
6E00
0000
0000
000E
ENDCHAR
STARTCHAR CYRILLIC SMALL LETTER YA
ENCODING 1103
SWIDTH 540 0
DWIDTH 9 0
BBX 9 16 0 -3
BITMAP
0000
0000
0000
0000
0000
0003
3F06
6306
6303
3F01
1B03
3306
6300
0000
0000
000E
ENDCHAR
STARTCHAR CYRILLIC SMALL LETTER IO
ENCODING 1105
SWIDTH 540 0
DWIDTH 9 0
BBX 9 16 0 -3
BITMAP
0000
0000
0003
3603
3600
0003
3E06
6306
6307
7F06
6006
6003
3E00
0000
0000
000E
ENDCHAR
STARTCHAR CYRILLIC SMALL LETTER DJE
ENCODING 1106
SWIDTH 540 0
DWIDTH 9 0
BBX 9 16 0 -3
BITMAP
0000
0006
600F
FC06
6006
6007
7E06
6306
6306
6306
6306
6306
6300
0300
0300
060E
ENDCHAR
STARTCHAR CYRILLIC SMALL LETTER GJE
ENCODING 1107
SWIDTH 540 0
DWIDTH 9 0
BBX 9 16 0 -3
BITMAP
0000
0000
0600
0C01
1800
0007
7F06
6006
6006
6006
6006
6006
6000
0000
0000
000E
ENDCHAR
STARTCHAR CYRILLIC SMALL LETTER UKRAINIAN IE
ENCODING 1108
SWIDTH 540 0
DWIDTH 9 0
BBX 9 16 0 -3
BITMAP
0000
0000
0000
0000
0000
0003
3F06
6006
6007
7C06
6006
6003
3F00
0000
0000
000E
ENDCHAR
STARTCHAR CYRILLIC SMALL LETTER DZE
ENCODING 1109
SWIDTH 540 0
DWIDTH 9 0
BBX 9 16 0 -3
BITMAP
0000
0000
0000
0000
0000
0003
3F06
6006
6003
3E00
0300
0307
7E00
0000
0000
000E
ENDCHAR
STARTCHAR CYRILLIC SMALL LETTER BYELORUSSIAN-UKRAINIAN I
ENCODING 1110
SWIDTH 540 0
DWIDTH 9 0
BBX 9 16 0 -3
BITMAP
0000
0000
0000
0C00
0C00
0001
1C00
0C00
0C00
0C00
0C00
0C00
0C00
0000
0000
000E
ENDCHAR
STARTCHAR CYRILLIC SMALL LETTER YI
ENCODING 1111
SWIDTH 540 0
DWIDTH 9 0
BBX 9 16 0 -3
BITMAP
0000
0000
0003
3603
3600
0001
1C00
0C00
0C00
0C00
0C00
0C00
0C00
0000
0000
000E
ENDCHAR
STARTCHAR CYRILLIC SMALL LETTER JE
ENCODING 1112
SWIDTH 540 0
DWIDTH 9 0
BBX 9 16 0 -3
BITMAP
0000
0000
0000
0C00
0C00
0001
1C00
0C00
0C00
0C00
0C00
0C00
0C00
0C00
0C01
180E
ENDCHAR
STARTCHAR CYRILLIC SMALL LETTER LJE
ENCODING 1113
SWIDTH 540 0
DWIDTH 9 0
BBX 9 16 0 -3
BITMAP
0000
0000
0000
0000
0000
0007
780D
D80D
D80D
DE0D
DB0D
DB09
9E00
0000
0000
000E
ENDCHAR
STARTCHAR CYRILLIC SMALL LETTER NJE
ENCODING 1114
SWIDTH 540 0
DWIDTH 9 0
BBX 9 16 0 -3
BITMAP
0000
0000
0000
0000
0000
000D
D80D
D80D
D80F
FE0D
DB0D
DB0D
DE00
0000
0000
000E
ENDCHAR
STARTCHAR CYRILLIC SMALL LETTER TSHE
ENCODING 1115
SWIDTH 540 0
DWIDTH 9 0
BBX 9 16 0 -3
BITMAP
0000
0006
600F
FC06
6006
6007
7E06
6306
6306
6306
6306
6306
6300
0000
0000
000E
ENDCHAR
STARTCHAR CYRILLIC SMALL LETTER KJE
ENCODING 1116
SWIDTH 540 0
DWIDTH 9 0
BBX 9 16 0 -3
BITMAP
0000
0000
0600
0C01
1800
0006
6606
6C07
7807
7007
7806
6C06
6600
0000
0000
000E
ENDCHAR
STARTCHAR CYRILLIC SMALL LETTER I WITH GRAVE
ENCODING 1117
SWIDTH 540 0
DWIDTH 9 0
BBX 9 16 0 -3
BITMAP
0000
0003
3001
1800
0C00
0006
6306
6306
6706
6F07
7B07
7306
6300
0000
0000
000E
ENDCHAR
STARTCHAR CYRILLIC SMALL LETTER SHORT U
ENCODING 1118
SWIDTH 540 0
DWIDTH 9 0
BBX 9 16 0 -3
BITMAP
0000
0000
0003
3601
1C00
0006
6306
6306
6306
6306
6306
6303
3F00
0300
0301
1E0E
ENDCHAR
STARTCHAR CYRILLIC SMALL LETTER DZHE
ENCODING 1119
SWIDTH 540 0
DWIDTH 9 0
BBX 9 16 0 -3
BITMAP
0000
0000
0000
0000
0000
0006
6306
6306
6306
6306
6306
6307
7F00
0800
0800
080E
ENDCHAR
STARTCHAR CYRILLIC CAPITAL LETTER GHE WITH UPTURN
ENCODING 1168
SWIDTH 540 0
DWIDTH 9 0
BBX 9 16 0 -3
BITMAP
0000
0000
0300
0307
7F06
6006
6006
6006
6006
6006
6006
6006
6000
0000
0000
000E
ENDCHAR
STARTCHAR CYRILLIC SMALL LETTER GHE WITH UPTURN
ENCODING 1169
SWIDTH 540 0
DWIDTH 9 0
BBX 9 16 0 -3
BITMAP
0000
0000
0000
0000
0300
0307
7F06
6006
6006
6006
6006
6006
6000
0000
0000
000E
ENDCHAR
STARTCHAR LATIN CAPITAL LETTER B WITH DOT ABOVE
ENCODING 7682
SWIDTH 540 0
DWIDTH 9 0
BBX 9 16 0 -3
BITMAP
0001
1801
1800
0007
7E06
6306
6306
6307
7E06
6306
6306
6307
7E00
0000
0000
000E
ENDCHAR
STARTCHAR LATIN SMALL LETTER B WITH DOT ABOVE
ENCODING 7683
SWIDTH 540 0
DWIDTH 9 0
BBX 9 16 0 -3
BITMAP
6006
6000
0006
6006
6006
6007
7E06
6306
6306
6306
6306
6307
7E00
0000
0000
000E
ENDCHAR
STARTCHAR LATIN CAPITAL LETTER D WITH DOT ABOVE
ENCODING 7690
SWIDTH 540 0
DWIDTH 9 0
BBX 9 16 0 -3
BITMAP
0001
1801
1800
0007
7E06
6306
6306
6306
6306
6306
6306
6307
7E00
0000
0000
000E
ENDCHAR
STARTCHAR LATIN SMALL LETTER D WITH DOT ABOVE
ENCODING 7691
SWIDTH 540 0
DWIDTH 9 0
BBX 9 16 0 -3
BITMAP
0300
0300
0000
0300
0300
0303
3F06
6306
6306
6306
6306
6303
3F00
0000
0000
000E
ENDCHAR
STARTCHAR LATIN CAPITAL LETTER F WITH DOT ABOVE
ENCODING 7710
SWIDTH 540 0
DWIDTH 9 0
BBX 9 16 0 -3
BITMAP
0001
1801
1800
0007
7F06
6006
6006
6007
7C06
6006
6006
6006
6000
0000
0000
000E
ENDCHAR
STARTCHAR LATIN SMALL LETTER F WITH DOT ABOVE
ENCODING 7711
SWIDTH 540 0
DWIDTH 9 0
BBX 9 16 0 -3
BITMAP
0C00
0C00
0001
1E03
3003
3003
3803
3003
3003
3003
3003
3003
3000
0000
0000
000E
ENDCHAR
STARTCHAR LATIN CAPITAL LETTER M WITH DOT ABOVE
ENCODING 7744
SWIDTH 540 0
DWIDTH 9 0
BBX 9 16 0 -3
BITMAP
0000
0C00
0C00
0006
6307
7707
7F06
6B06
6306
6306
6306
6306
6300
0000
0000
000E
ENDCHAR
STARTCHAR LATIN SMALL LETTER M WITH DOT ABOVE
ENCODING 7745
SWIDTH 540 0
DWIDTH 9 0
BBX 9 16 0 -3
BITMAP
0000
0000
0000
0C00
0C00
0007
7606
6B06
6B06
6B06
6B06
6B06
6300
0000
0000
000E
ENDCHAR
STARTCHAR LATIN CAPITAL LETTER P WITH DOT ABOVE
ENCODING 7766
SWIDTH 540 0
DWIDTH 9 0
BBX 9 16 0 -3
BITMAP
0001
1801
1800
0007
7E06
6306
6306
6306
6307
7E06
6006
6006
6000
0000
0000
000E
ENDCHAR
STARTCHAR LATIN SMALL LETTER P WITH DOT ABOVE
ENCODING 7767
SWIDTH 540 0
DWIDTH 9 0
BBX 9 16 0 -3
BITMAP
0000
0000
0001
1801
1800
0007
7E06
6306
6306
6306
6306
6307
7E06
6006
6006
600E
ENDCHAR
STARTCHAR LATIN CAPITAL LETTER S WITH DOT ABOVE
ENCODING 7776
SWIDTH 540 0
DWIDTH 9 0
BBX 9 16 0 -3
BITMAP
0000
0C00
0C00
0003
3F06
6006
6006
6003
3E00
0300
0300
0307
7E00
0000
0000
000E
ENDCHAR
STARTCHAR LATIN SMALL LETTER S WITH DOT ABOVE
ENCODING 7777
SWIDTH 540 0
DWIDTH 9 0
BBX 9 16 0 -3
BITMAP
0000
0000
0000
0C00
0C00
0003
3F06
6006
6003
3E00
0300
0307
7E00
0000
0000
000E
ENDCHAR
STARTCHAR LATIN CAPITAL LETTER T WITH DOT ABOVE
ENCODING 7786
SWIDTH 540 0
DWIDTH 9 0
BBX 9 16 0 -3
BITMAP
0001
1801
1800
0007
7E01
1801
1801
1801
1801
1801
1801
1801
1800
0000
0000
000E
ENDCHAR
STARTCHAR LATIN SMALL LETTER T WITH DOT ABOVE
ENCODING 7787
SWIDTH 540 0
DWIDTH 9 0
BBX 9 16 0 -3
BITMAP
1801
1800
0001
1801
1801
1803
3C01
1801
1801
1801
1801
1800
0E00
0000
0000
000E
ENDCHAR
STARTCHAR LATIN CAPITAL LETTER W WITH GRAVE
ENCODING 7808
SWIDTH 540 0
DWIDTH 9 0
BBX 9 16 0 -3
BITMAP
3001
1800
0C00
0006
6306
6306
6306
6306
6306
6B07
7F07
7706
6300
0000
0000
000E
ENDCHAR
STARTCHAR LATIN SMALL LETTER W WITH GRAVE
ENCODING 7809
SWIDTH 540 0
DWIDTH 9 0
BBX 9 16 0 -3
BITMAP
0000
0003
3001
1800
0C00
0006
6306
6306
6306
6B07
7F07
7706
6300
0000
0000
000E
ENDCHAR
STARTCHAR LATIN CAPITAL LETTER W WITH ACUTE
ENCODING 7810
SWIDTH 540 0
DWIDTH 9 0
BBX 9 16 0 -3
BITMAP
0600
0C01
1800
0006
6306
6306
6306
6306
6306
6B07
7F07
7706
6300
0000
0000
000E
ENDCHAR
STARTCHAR LATIN SMALL LETTER W WITH ACUTE
ENCODING 7811
SWIDTH 540 0
DWIDTH 9 0
BBX 9 16 0 -3
BITMAP
0000
0000
0600
0C01
1800
0006
6306
6306
6306
6B07
7F07
7706
6300
0000
0000
000E
ENDCHAR
STARTCHAR LATIN CAPITAL LETTER W WITH DIAERESIS
ENCODING 7812
SWIDTH 540 0
DWIDTH 9 0
BBX 9 16 0 -3
BITMAP
0003
3603
3600
0006
6306
6306
6306
6306
6306
6B07
7F07
7706
6300
0000
0000
000E
ENDCHAR
STARTCHAR LATIN SMALL LETTER W WITH DIAERESIS
ENCODING 7813
SWIDTH 540 0
DWIDTH 9 0
BBX 9 16 0 -3
BITMAP
0000
0000
0003
3603
3600
0006
6306
6306
6306
6B07
7F07
7706
6300
0000
0000
000E
ENDCHAR
STARTCHAR LATIN CAPITAL LETTER Y WITH GRAVE
ENCODING 7922
SWIDTH 540 0
DWIDTH 9 0
BBX 9 16 0 -3
BITMAP
3001
1800
0C00
0006
6306
6306
6303
3601
1E00
0C00
0C01
1801
1800
0000
0000
000E
ENDCHAR
STARTCHAR LATIN SMALL LETTER Y WITH GRAVE
ENCODING 7923
SWIDTH 540 0
DWIDTH 9 0
BBX 9 16 0 -3
BITMAP
0000
0003
3001
1800
0C00
0006
6306
6306
6306
6306
6306
6303
3F00
0300
0301
1E0E
ENDCHAR
STARTCHAR HORIZONTAL BAR
ENCODING 8213
SWIDTH 540 0
DWIDTH 9 0
BBX 9 16 0 -3
BITMAP
0000
0000
0000
0000
0000
0000
0000
000F
FF00
0000
0000
0000
0000
0000
0000
000E
ENDCHAR
STARTCHAR LEFT SINGLE QUOTATION MARK
ENCODING 8216
SWIDTH 540 0
DWIDTH 9 0
BBX 9 16 0 -3
BITMAP
0000
0000
0C01
1801
1801
1800
0000
0000
0000
0000
0000
0000
0000
0000
0000
000E
ENDCHAR
STARTCHAR RIGHT SINGLE QUOTATION MARK
ENCODING 8217
SWIDTH 540 0
DWIDTH 9 0
BBX 9 16 0 -3
BITMAP
0000
0000
0C00
0C00
0C01
1800
0000
0000
0000
0000
0000
0000
0000
0000
0000
000E
ENDCHAR
STARTCHAR SINGLE HIGH-REVERSED-9 QUOTATION MARK
ENCODING 8219
SWIDTH 540 0
DWIDTH 9 0
BBX 9 16 0 -3
BITMAP
0000
0001
1801
1801
1800
0C00
0000
0000
0000
0000
0000
0000
0000
0000
0000
000E
ENDCHAR
STARTCHAR LEFT DOUBLE QUOTATION MARK
ENCODING 8220
SWIDTH 540 0
DWIDTH 9 0
BBX 9 16 0 -3
BITMAP
0000
0003
3606
6C06
6C06
6C00
0000
0000
0000
0000
0000
0000
0000
0000
0000
000E
ENDCHAR
STARTCHAR RIGHT DOUBLE QUOTATION MARK
ENCODING 8221
SWIDTH 540 0
DWIDTH 9 0
BBX 9 16 0 -3
BITMAP
0000
0003
3603
3603
3606
6C00
0000
0000
0000
0000
0000
0000
0000
0000
0000
000E
ENDCHAR
STARTCHAR DOUBLE LOW-9 QUOTATION MARK
ENCODING 8222
SWIDTH 540 0
DWIDTH 9 0
BBX 9 16 0 -3
BITMAP
0000
0000
0000
0000
0000
0000
0000
0000
0000
0000
0003
3603
3603
3606
6C00
000E
ENDCHAR
STARTCHAR DOUBLE HIGH-REVERSED-9 QUOTATION MARK
ENCODING 8223
SWIDTH 540 0
DWIDTH 9 0
BBX 9 16 0 -3
BITMAP
0000
0006
6C06
6C06
6C03
3600
0000
0000
0000
0000
0000
0000
0000
0000
0000
000E
ENDCHAR
STARTCHAR DAGGER
ENCODING 8224
SWIDTH 540 0
DWIDTH 9 0
BBX 9 16 0 -3
BITMAP
0000
0000
0000
0001
1801
1801
1807
7E01
1801
1801
1801
1801
1801
1801
1800
000E
ENDCHAR
STARTCHAR DOUBLE DAGGER
ENCODING 8225
SWIDTH 540 0
DWIDTH 9 0
BBX 9 16 0 -3
BITMAP
0000
0000
0000
0001
1801
1801
1807
7E01
1801
1801
1807
7E01
1801
1801
1800
000E
ENDCHAR
STARTCHAR BULLET
ENCODING 8226
SWIDTH 540 0
DWIDTH 9 0
BBX 9 16 0 -3
BITMAP
0000
0000
0000
0000
0000
0001
1803
3C03
3C01
1800
0000
0000
0000
0000
0000
000E
ENDCHAR
STARTCHAR HORIZONTAL ELLIPSIS
ENCODING 8230
SWIDTH 540 0
DWIDTH 9 0
BBX 9 16 0 -3
BITMAP
0000
0000
0000
0000
0000
0000
0000
0000
0000
0000
000D
DB0D
DB00
0000
0000
000E
ENDCHAR
STARTCHAR PER MILLE SIGN
ENCODING 8240
SWIDTH 540 0
DWIDTH 9 0
BBX 9 16 0 -3
BITMAP
0000
0000
0000
0007
700D
D807
7701
1E07
780E
E003
3606
6B03
3600
0000
0000
000E
ENDCHAR
STARTCHAR DOUBLE EXCLAMATION MARK
ENCODING 8252
SWIDTH 540 0
DWIDTH 9 0
BBX 9 16 0 -3
BITMAP
0000
0000
0000
0003
3603
3603
3603
3603
3603
3600
0003
3603
3600
0000
0000
000E
ENDCHAR
STARTCHAR INTERROBANG
ENCODING 8253
SWIDTH 540 0
DWIDTH 9 0
BBX 9 16 0 -3
BITMAP
0000
0000
0000
0007
7E01
1B01
1B01
1E01
1C01
1800
0001
1801
1800
0000
0000
000E
ENDCHAR
STARTCHAR SUPERSCRIPT LATIN SMALL LETTER N
ENCODING 8319
SWIDTH 540 0
DWIDTH 9 0
BBX 9 16 0 -3
BITMAP
0000
0000
0000
0007
7E06
6306
6306
6306
6306
6306
6300
0000
0000
0000
0000
000E
ENDCHAR
STARTCHAR PESETA SIGN
ENCODING 8359
SWIDTH 540 0
DWIDTH 9 0
BBX 9 16 0 -3
BITMAP
0000
0000
0600
060F
F60D
DE0D
DF0D
DE0D
DE0F
F60C
C60C
C60C
C300
0000
0000
000E
ENDCHAR
STARTCHAR EURO SIGN
ENCODING 8364
SWIDTH 540 0
DWIDTH 9 0
BBX 9 16 0 -3
BITMAP
0000
0000
0000
0001
1F03
3003
3007
7E03
3007
7C03
3003
3001
1F00
0000
0000
000E
ENDCHAR
STARTCHAR DRACHMA SIGN
ENCODING 8367
SWIDTH 540 0
DWIDTH 9 0
BBX 9 16 0 -3
BITMAP
0000
0000
0000
000F
F00D
D80D
DE0D
DB0D
DB0D
DB0D
DB0D
DB0F
FE01
1801
1801
180E
ENDCHAR
STARTCHAR NUMERO SIGN
ENCODING 8470
SWIDTH 540 0
DWIDTH 9 0
BBX 9 16 0 -3
BITMAP
0000
0000
0000
0009
980D
D80D
DE0F
FB0F
FB0F
FB0D
DE0D
D80C
CF00
0000
0000
000E
ENDCHAR
STARTCHAR TRADE MARK SIGN
ENCODING 8482
SWIDTH 540 0
DWIDTH 9 0
BBX 9 16 0 -3
BITMAP
000F
F906
6F06
6F06
6F00
0000
0000
0000
0000
0000
0000
0000
0000
0000
0000
000E
ENDCHAR
STARTCHAR LEFTWARDS ARROW
ENCODING 8592
SWIDTH 540 0
DWIDTH 9 0
BBX 9 16 0 -3
BITMAP
0000
0000
0000
0001
1003
3007
700F
FF0F
FF07
7003
3001
1000
0000
0000
0000
000E
ENDCHAR
STARTCHAR UPWARDS ARROW
ENCODING 8593
SWIDTH 540 0
DWIDTH 9 0
BBX 9 16 0 -3
BITMAP
0000
0000
0000
0801
1C03
3E07
7F01
1C01
1C01
1C01
1C01
1C01
1C00
0000
0000
000E
ENDCHAR
STARTCHAR RIGHTWARDS ARROW
ENCODING 8594
SWIDTH 540 0
DWIDTH 9 0
BBX 9 16 0 -3
BITMAP
0000
0000
0000
0000
0800
0C00
0E0F
FF0F
FF00
0E00
0C00
0800
0000
0000
0000
000E
ENDCHAR
STARTCHAR DOWNWARDS ARROW
ENCODING 8595
SWIDTH 540 0
DWIDTH 9 0
BBX 9 16 0 -3
BITMAP
0000
0000
0000
0001
1C01
1C01
1C01
1C01
1C01
1C07
7F03
3E01
1C00
0800
0000
000E
ENDCHAR
STARTCHAR LEFT RIGHT ARROW
ENCODING 8596
SWIDTH 540 0
DWIDTH 9 0
BBX 9 16 0 -3
BITMAP
0000
0000
0000
0000
0002
2406
660F
FF0F
FF06
6602
2400
0000
0000
0000
0000
000E
ENDCHAR
STARTCHAR UP DOWN ARROW
ENCODING 8597
SWIDTH 540 0
DWIDTH 9 0
BBX 9 16 0 -3
BITMAP
0000
0000
0000
0801
1C03
3E07
7F01
1C01
1C01
1C07
7F03
3E01
1C00
0800
0000
000E
ENDCHAR
STARTCHAR UP DOWN ARROW WITH BASE
ENCODING 8616
SWIDTH 540 0
DWIDTH 9 0
BBX 9 16 0 -3
BITMAP
0000
0000
0000
0801
1C03
3E07
7F01
1C01
1C01
1C07
7F03
3E01
1C07
7F00
0000
000E
ENDCHAR
STARTCHAR DOWNWARDS ARROW WITH CORNER LEFTWARDS
ENCODING 8629
SWIDTH 540 0
DWIDTH 9 0
BBX 9 16 0 -3
BITMAP
0000
0000
0000
0000
0300
0301
1303
3307
730F
FE07
7003
3001
1000
0000
0000
000E
ENDCHAR
STARTCHAR BULLET OPERATOR
ENCODING 8729
SWIDTH 540 0
DWIDTH 9 0
BBX 9 16 0 -3
BITMAP
0000
0000
0000
0000
0000
0000
0001
1C01
1C01
1C00
0000
0000
0000
0000
0000
000E
ENDCHAR
STARTCHAR SQUARE ROOT
ENCODING 8730
SWIDTH 540 0
DWIDTH 9 0
BBX 9 16 0 -3
BITMAP
0000
0000
0000
0000
0300
0300
0600
0600
0C00
0C0D
D807
7803
3000
0000
0000
000E
ENDCHAR
STARTCHAR INFINITY
ENCODING 8734
SWIDTH 540 0
DWIDTH 9 0
BBX 9 16 0 -3
BITMAP
0000
0000
0000
0000
0000
0006
660D
DB0D
DB0D
DB06
6600
0000
0000
0000
0000
000E
ENDCHAR
STARTCHAR RIGHT ANGLE
ENCODING 8735
SWIDTH 540 0
DWIDTH 9 0
BBX 9 16 0 -3
BITMAP
0000
0000
0000
0000
0000
0006
6006
6006
6006
6006
6006
6007
7F00
0000
0000
000E
ENDCHAR
STARTCHAR INTERSECTION
ENCODING 8745
SWIDTH 540 0
DWIDTH 9 0
BBX 9 16 0 -3
BITMAP
0000
0000
0000
0000
0000
0003
3E06
6306
6306
6306
6306
6306
6300
0000
0000
000E
ENDCHAR
STARTCHAR ALMOST EQUAL TO
ENCODING 8776
SWIDTH 540 0
DWIDTH 9 0
BBX 9 16 0 -3
BITMAP
0000
0000
0000
0000
0000
0003
3004
4903
3604
4900
0600
0000
0000
0000
0000
000E
ENDCHAR
STARTCHAR NOT EQUAL TO
ENCODING 8800
SWIDTH 540 0
DWIDTH 9 0
BBX 9 16 0 -3
BITMAP
0000
0000
0000
0000
0000
0300
0607
7F01
1C07
7F03
3006
6000
0000
0000
0000
000E
ENDCHAR
STARTCHAR IDENTICAL TO
ENCODING 8801
SWIDTH 540 0
DWIDTH 9 0
BBX 9 16 0 -3
BITMAP
0000
0000
0000
0000
0000
0007
7F00
0007
7F00
0007
7F00
0000
0000
0000
0000
000E
ENDCHAR
STARTCHAR LESS-THAN OR EQUAL TO
ENCODING 8804
SWIDTH 540 0
DWIDTH 9 0
BBX 9 16 0 -3
BITMAP
0000
0000
0000
0000
0000
0701
1C07
7001
1C00
0700
0007
7F00
0000
0000
0000
000E
ENDCHAR
STARTCHAR GREATER-THAN OR EQUAL TO
ENCODING 8805
SWIDTH 540 0
DWIDTH 9 0
BBX 9 16 0 -3
BITMAP
0000
0000
0000
0000
0007
7001
1C00
0701
1C07
7000
0007
7F00
0000
0000
0000
000E
ENDCHAR
STARTCHAR HOUSE
ENCODING 8962
SWIDTH 540 0
DWIDTH 9 0
BBX 9 16 0 -3
BITMAP
0000
0000
0000
0000
0801
1C03
3606
6306
6306
6306
6306
6307
7F00
0000
0000
000E
ENDCHAR
STARTCHAR REVERSED NOT SIGN
ENCODING 8976
SWIDTH 540 0
DWIDTH 9 0
BBX 9 16 0 -3
BITMAP
0000
0000
0000
0000
0000
0000
0007
7F06
6006
6000
0000
0000
0000
0000
0000
000E
ENDCHAR
STARTCHAR TOP HALF INTEGRAL
ENCODING 8992
SWIDTH 540 0
DWIDTH 9 0
BBX 9 16 0 -3
BITMAP
0000
0F01
1801
1801
1801
1801
1801
1801
1801
1801
1801
1801
1801
1801
1801
180E
ENDCHAR
STARTCHAR BOTTOM HALF INTEGRAL
ENCODING 8993
SWIDTH 540 0
DWIDTH 9 0
BBX 9 16 0 -3
BITMAP
1801
1801
1801
1801
1801
1801
1801
1801
1801
1801
1801
1801
1801
180F
F000
000E
ENDCHAR
STARTCHAR BOX DRAWINGS LIGHT HORIZONTAL
ENCODING 9472
SWIDTH 540 0
DWIDTH 9 0
BBX 9 16 0 -3
BITMAP
0000
0000
0000
0000
0000
0000
0000
0000
FF80
0000
0000
0000
0000
0000
0000
0000
ENDCHAR
STARTCHAR BOX DRAWINGS LIGHT VERTICAL
ENCODING 9474
SWIDTH 540 0
DWIDTH 9 0
BBX 9 16 0 -3
BITMAP
1801
1801
1801
1801
1801
1801
1801
1801
1801
1801
1801
1801
1801
1801
1801
180E
ENDCHAR
STARTCHAR BOX DRAWINGS LIGHT DOWN AND RIGHT
ENCODING 9484
SWIDTH 540 0
DWIDTH 9 0
BBX 9 16 0 -3
BITMAP
0000
0000
0000
0000
0000
0000
0000
0000
0F80
1800
1800
1800
1800
1800
1800
1800
ENDCHAR
STARTCHAR BOX DRAWINGS LIGHT DOWN AND LEFT
ENCODING 9488
SWIDTH 540 0
DWIDTH 9 0
BBX 9 16 0 -3
BITMAP
0000
0000
0000
0000
0000
0000
0000
000F
F001
1801
1801
1801
1801
1801
1801
180E
ENDCHAR
STARTCHAR BOX DRAWINGS LIGHT UP AND RIGHT
ENCODING 9492
SWIDTH 540 0
DWIDTH 9 0
BBX 9 16 0 -3
BITMAP
1800
1800
1800
1800
1800
1800
1800
1800
0F80
0000
0000
0000
0000
0000
0000
0000
ENDCHAR
STARTCHAR BOX DRAWINGS LIGHT UP AND LEFT
ENCODING 9496
SWIDTH 540 0
DWIDTH 9 0
BBX 9 16 0 -3
BITMAP
1801
1801
1801
1801
1801
1801
1801
180F
F000
0000
0000
0000
0000
0000
0000
000E
ENDCHAR
STARTCHAR BOX DRAWINGS LIGHT VERTICAL AND RIGHT
ENCODING 9500
SWIDTH 540 0
DWIDTH 9 0
BBX 9 16 0 -3
BITMAP
1800
1800
1800
1800
1800
1800
1800
1800
1F80
1800
1800
1800
1800
1800
1800
1800
ENDCHAR
STARTCHAR BOX DRAWINGS LIGHT VERTICAL AND LEFT
ENCODING 9508
SWIDTH 540 0
DWIDTH 9 0
BBX 9 16 0 -3
BITMAP
1801
1801
1801
1801
1801
1801
1801
180F
F801
1801
1801
1801
1801
1801
1801
180E
ENDCHAR
STARTCHAR BOX DRAWINGS LIGHT DOWN AND HORIZONTAL
ENCODING 9516
SWIDTH 540 0
DWIDTH 9 0
BBX 9 16 0 -3
BITMAP
0000
0000
0000
0000
0000
0000
0000
0000
FF80
1800
1800
1800
1800
1800
1800
1800
ENDCHAR
STARTCHAR BOX DRAWINGS LIGHT UP AND HORIZONTAL
ENCODING 9524
SWIDTH 540 0
DWIDTH 9 0
BBX 9 16 0 -3
BITMAP
1800
1800
1800
1800
1800
1800
1800
1800
FF80
0000
0000
0000
0000
0000
0000
0000
ENDCHAR
STARTCHAR BOX DRAWINGS LIGHT VERTICAL AND HORIZONTAL
ENCODING 9532
SWIDTH 540 0
DWIDTH 9 0
BBX 9 16 0 -3
BITMAP
1800
1800
1800
1800
1800
1800
1800
1800
FF80
1800
1800
1800
1800
1800
1800
1800
ENDCHAR
STARTCHAR BOX DRAWINGS DOUBLE HORIZONTAL
ENCODING 9552
SWIDTH 540 0
DWIDTH 9 0
BBX 9 16 0 -3
BITMAP
0000
0000
0000
0000
0000
0000
0000
FF80
0000
FF80
0000
0000
0000
0000
0000
0000
ENDCHAR
STARTCHAR BOX DRAWINGS DOUBLE VERTICAL
ENCODING 9553
SWIDTH 540 0
DWIDTH 9 0
BBX 9 16 0 -3
BITMAP
3603
3603
3603
3603
3603
3603
3603
3603
3603
3603
3603
3603
3603
3603
3603
360E
ENDCHAR
STARTCHAR BOX DRAWINGS DOWN SINGLE AND RIGHT DOUBLE
ENCODING 9554
SWIDTH 540 0
DWIDTH 9 0
BBX 9 16 0 -3
BITMAP
0000
0000
0000
0000
0000
0000
0000
0F80
1800
1F80
1800
1800
1800
1800
1800
1800
ENDCHAR
STARTCHAR BOX DRAWINGS DOWN DOUBLE AND RIGHT SINGLE
ENCODING 9555
SWIDTH 540 0
DWIDTH 9 0
BBX 9 16 0 -3
BITMAP
0000
0000
0000
0000
0000
0000
0000
0000
1F80
3600
3600
3600
3600
3600
3600
3600
ENDCHAR
STARTCHAR BOX DRAWINGS DOUBLE DOWN AND RIGHT
ENCODING 9556
SWIDTH 540 0
DWIDTH 9 0
BBX 9 16 0 -3
BITMAP
0000
0000
0000
0000
0000
0000
0000
1F80
3000
3380
3600
3600
3600
3600
3600
3600
ENDCHAR
STARTCHAR BOX DRAWINGS DOWN SINGLE AND LEFT DOUBLE
ENCODING 9557
SWIDTH 540 0
DWIDTH 9 0
BBX 9 16 0 -3
BITMAP
0000
0000
0000
0000
0000
0000
0000
F000
1800
F800
1800
1800
1800
1800
1800
1800
ENDCHAR
STARTCHAR BOX DRAWINGS DOWN DOUBLE AND LEFT SINGLE
ENCODING 9558
SWIDTH 540 0
DWIDTH 9 0
BBX 9 16 0 -3
BITMAP
0000
0000
0000
0000
0000
0000
0000
000F
FC03
3603
3603
3603
3603
3603
3603
360E
ENDCHAR
STARTCHAR BOX DRAWINGS DOUBLE DOWN AND LEFT
ENCODING 9559
SWIDTH 540 0
DWIDTH 9 0
BBX 9 16 0 -3
BITMAP
0000
0000
0000
0000
0000
0000
000F
FC00
060E
E603
3603
3603
3603
3603
3603
360E
ENDCHAR
STARTCHAR BOX DRAWINGS UP SINGLE AND RIGHT DOUBLE
ENCODING 9560
SWIDTH 540 0
DWIDTH 9 0
BBX 9 16 0 -3
BITMAP
1800
1800
1800
1800
1800
1800
1800
1F80
1800
0F80
0000
0000
0000
0000
0000
0000
ENDCHAR
STARTCHAR BOX DRAWINGS UP DOUBLE AND RIGHT SINGLE
ENCODING 9561
SWIDTH 540 0
DWIDTH 9 0
BBX 9 16 0 -3
BITMAP
3600
3600
3600
3600
3600
3600
3600
3600
1F80
0000
0000
0000
0000
0000
0000
0000
ENDCHAR
STARTCHAR BOX DRAWINGS DOUBLE UP AND RIGHT
ENCODING 9562
SWIDTH 540 0
DWIDTH 9 0
BBX 9 16 0 -3
BITMAP
3600
3600
3600
3600
3600
3600
3600
3600
3380
3000
1F80
0000
0000
0000
0000
0000
ENDCHAR
STARTCHAR BOX DRAWINGS UP SINGLE AND LEFT DOUBLE
ENCODING 9563
SWIDTH 540 0
DWIDTH 9 0
BBX 9 16 0 -3
BITMAP
1801
1801
1801
1801
1801
1801
180F
F801
180F
F000
0000
0000
0000
0000
0000
000E
ENDCHAR
STARTCHAR BOX DRAWINGS UP DOUBLE AND LEFT SINGLE
ENCODING 9564
SWIDTH 540 0
DWIDTH 9 0
BBX 9 16 0 -3
BITMAP
3600
3600
3600
3600
3600
3600
3600
3600
FC00
0000
0000
0000
0000
0000
0000
0000
ENDCHAR
STARTCHAR BOX DRAWINGS DOUBLE UP AND LEFT
ENCODING 9565
SWIDTH 540 0
DWIDTH 9 0
BBX 9 16 0 -3
BITMAP
3603
3603
3603
3603
3603
3603
360E
E600
060F
FC00
0000
0000
0000
0000
0000
000E
ENDCHAR
STARTCHAR BOX DRAWINGS VERTICAL SINGLE AND RIGHT DOUBLE
ENCODING 9566
SWIDTH 540 0
DWIDTH 9 0
BBX 9 16 0 -3
BITMAP
1800
1800
1800
1800
1800
1800
1800
1F80
1800
1F80
1800
1800
1800
1800
1800
1800
ENDCHAR
STARTCHAR BOX DRAWINGS VERTICAL DOUBLE AND RIGHT SINGLE
ENCODING 9567
SWIDTH 540 0
DWIDTH 9 0
BBX 9 16 0 -3
BITMAP
3600
3600
3600
3600
3600
3600
3600
3600
3780
3600
3600
3600
3600
3600
3600
3600
ENDCHAR
STARTCHAR BOX DRAWINGS DOUBLE VERTICAL AND RIGHT
ENCODING 9568
SWIDTH 540 0
DWIDTH 9 0
BBX 9 16 0 -3
BITMAP
3600
3600
3600
3600
3600
3600
3600
3380
3000
3380
3600
3600
3600
3600
3600
3600
ENDCHAR
STARTCHAR BOX DRAWINGS VERTICAL SINGLE AND LEFT DOUBLE
ENCODING 9569
SWIDTH 540 0
DWIDTH 9 0
BBX 9 16 0 -3
BITMAP
1801
1801
1801
1801
1801
1801
180F
F801
180F
F801
1801
1801
1801
1801
1801
180E
ENDCHAR
STARTCHAR BOX DRAWINGS VERTICAL DOUBLE AND LEFT SINGLE
ENCODING 9570
SWIDTH 540 0
DWIDTH 9 0
BBX 9 16 0 -3
BITMAP
3603
3603
3603
3603
3603
3603
3603
360F
F603
3603
3603
3603
3603
3603
3603
360E
ENDCHAR
STARTCHAR BOX DRAWINGS DOUBLE VERTICAL AND LEFT
ENCODING 9571
SWIDTH 540 0
DWIDTH 9 0
BBX 9 16 0 -3
BITMAP
3603
3603
3603
3603
3603
3603
360E
E600
060E
E603
3603
3603
3603
3603
3603
360E
ENDCHAR
STARTCHAR BOX DRAWINGS DOWN SINGLE AND HORIZONTAL DOUBLE
ENCODING 9572
SWIDTH 540 0
DWIDTH 9 0
BBX 9 16 0 -3
BITMAP
0000
0000
0000
0000
0000
0000
0000
FF80
0000
FF80
1800
1800
1800
1800
1800
1800
ENDCHAR
STARTCHAR BOX DRAWINGS DOWN DOUBLE AND HORIZONTAL SINGLE
ENCODING 9573
SWIDTH 540 0
DWIDTH 9 0
BBX 9 16 0 -3
BITMAP
0000
0000
0000
0000
0000
0000
0000
0000
FF80
3600
3600
3600
3600
3600
3600
3600
ENDCHAR
STARTCHAR BOX DRAWINGS DOUBLE DOWN AND HORIZONTAL
ENCODING 9574
SWIDTH 540 0
DWIDTH 9 0
BBX 9 16 0 -3
BITMAP
0000
0000
0000
0000
0000
0000
0000
FF80
0000
E380
3600
3600
3600
3600
3600
3600
ENDCHAR
STARTCHAR BOX DRAWINGS UP SINGLE AND HORIZONTAL DOUBLE
ENCODING 9575
SWIDTH 540 0
DWIDTH 9 0
BBX 9 16 0 -3
BITMAP
1800
1800
1800
1800
1800
1800
1800
FF80
0000
FF80
0000
0000
0000
0000
0000
0000
ENDCHAR
STARTCHAR BOX DRAWINGS UP DOUBLE AND HORIZONTAL SINGLE
ENCODING 9576
SWIDTH 540 0
DWIDTH 9 0
BBX 9 16 0 -3
BITMAP
3600
3600
3600
3600
3600
3600
3600
3600
FF80
0000
0000
0000
0000
0000
0000
0000
ENDCHAR
STARTCHAR BOX DRAWINGS DOUBLE UP AND HORIZONTAL
ENCODING 9577
SWIDTH 540 0
DWIDTH 9 0
BBX 9 16 0 -3
BITMAP
3600
3600
3600
3600
3600
3600
3600
E380
0000
FF80
0000
0000
0000
0000
0000
0000
ENDCHAR
STARTCHAR BOX DRAWINGS VERTICAL SINGLE AND HORIZONTAL DOUBLE
ENCODING 9578
SWIDTH 540 0
DWIDTH 9 0
BBX 9 16 0 -3
BITMAP
1800
1800
1800
1800
1800
1800
1800
FF80
0000
FF80
1800
1800
1800
1800
1800
1800
ENDCHAR
STARTCHAR BOX DRAWINGS VERTICAL DOUBLE AND HORIZONTAL SINGLE
ENCODING 9579
SWIDTH 540 0
DWIDTH 9 0
BBX 9 16 0 -3
BITMAP
3600
3600
3600
3600
3600
3600
3600
3600
F780
3600
3600
3600
3600
3600
3600
3600
ENDCHAR
STARTCHAR BOX DRAWINGS DOUBLE VERTICAL AND HORIZONTAL
ENCODING 9580
SWIDTH 540 0
DWIDTH 9 0
BBX 9 16 0 -3
BITMAP
3600
3600
3600
3600
3600
3600
3600
E380
0000
E380
3600
3600
3600
3600
3600
3600
ENDCHAR
STARTCHAR UPPER HALF BLOCK
ENCODING 9600
SWIDTH 540 0
DWIDTH 9 0
BBX 9 16 0 -3
BITMAP
FF80
FF80
FF80
FF80
FF80
FF80
FF80
FF80
0000
0000
0000
0000
0000
0000
0000
0000
ENDCHAR
STARTCHAR LOWER HALF BLOCK
ENCODING 9604
SWIDTH 540 0
DWIDTH 9 0
BBX 9 16 0 -3
BITMAP
0000
0000
0000
0000
0000
0000
0000
0000
FF80
FF80
FF80
FF80
FF80
FF80
FF80
FF80
ENDCHAR
STARTCHAR FULL BLOCK
ENCODING 9608
SWIDTH 540 0
DWIDTH 9 0
BBX 9 16 0 -3
BITMAP
FF80
FF80
FF80
FF80
FF80
FF80
FF80
FF80
FF80
FF80
FF80
FF80
FF80
FF80
FF80
FF80
ENDCHAR
STARTCHAR LEFT HALF BLOCK
ENCODING 9612
SWIDTH 540 0
DWIDTH 9 0
BBX 9 16 0 -3
BITMAP
F00F
F00F
F00F
F00F
F00F
F00F
F00F
F00F
F00F
F00F
F00F
F00F
F00F
F00F
F00F
F00E
ENDCHAR
STARTCHAR RIGHT HALF BLOCK
ENCODING 9616
SWIDTH 540 0
DWIDTH 9 0
BBX 9 16 0 -3
BITMAP
0F80
0F80
0F80
0F80
0F80
0F80
0F80
0F80
0F80
0F80
0F80
0F80
0F80
0F80
0F80
0F80
ENDCHAR
STARTCHAR LIGHT SHADE
ENCODING 9617
SWIDTH 540 0
DWIDTH 9 0
BBX 9 16 0 -3
BITMAP
0009
9200
0004
4900
0002
2400
0009
9200
0004
4900
0002
2400
0009
9200
0004
490E
ENDCHAR
STARTCHAR MEDIUM SHADE
ENCODING 9618
SWIDTH 540 0
DWIDTH 9 0
BBX 9 16 0 -3
BITMAP
AA05
550A
AA05
550A
AA05
550A
AA05
550A
AA05
550A
AA05
550A
AA05
550A
AA05
550E
ENDCHAR
STARTCHAR DARK SHADE
ENCODING 9619
SWIDTH 540 0
DWIDTH 9 0
BBX 9 16 0 -3
BITMAP
FF06
6D0F
FF0B
B60F
FF0D
DB0F
FF06
6D0F
FF0B
B60F
FF0D
DB0F
FF06
6D0F
FF0B
B60E
ENDCHAR
STARTCHAR BLACK SQUARE
ENCODING 9632
SWIDTH 540 0
DWIDTH 9 0
BBX 9 16 0 -3
BITMAP
0000
0000
0000
0000
0000
0003
3E03
3E03
3E03
3E03
3E00
0000
0000
0000
0000
000E
ENDCHAR
STARTCHAR BLACK RECTANGLE
ENCODING 9644
SWIDTH 540 0
DWIDTH 9 0
BBX 9 16 0 -3
BITMAP
0000
0000
0000
0000
0000
0000
0000
0000
0000
0007
7F07
7F07
7F00
0000
0000
000E
ENDCHAR
STARTCHAR BLACK UP-POINTING TRIANGLE
ENCODING 9650
SWIDTH 540 0
DWIDTH 9 0
BBX 9 16 0 -3
BITMAP
1801
1801
1801
1803
3C03
3C03
3C03
3C07
7E07
7E07
7E07
7E0F
FF0F
FF0F
FF0F
FF0E
ENDCHAR
STARTCHAR BLACK RIGHT-POINTING TRIANGLE
ENCODING 9654
SWIDTH 540 0
DWIDTH 9 0
BBX 9 16 0 -3
BITMAP
800C
C00E
E00F
F00F
F80F
FC0F
FE0F
FF0F
FF0F
FE0F
FC0F
F80F
F00E
E00C
C008
800E
ENDCHAR
STARTCHAR BLACK DOWN-POINTING TRIANGLE
ENCODING 9660
SWIDTH 540 0
DWIDTH 9 0
BBX 9 16 0 -3
BITMAP
FF0F
FF0F
FF0F
FF07
7E07
7E07
7E07
7E03
3C03
3C03
3C03
3C01
1801
1801
1801
180E
ENDCHAR
STARTCHAR BLACK LEFT-POINTING TRIANGLE
ENCODING 9664
SWIDTH 540 0
DWIDTH 9 0
BBX 9 16 0 -3
BITMAP
0100
0300
0700
0F01
1F03
3F07
7F0F
FF0F
FF07
7F03
3F01
1F00
0F00
0700
0300
010E
ENDCHAR
STARTCHAR WHITE CIRCLE
ENCODING 9675
SWIDTH 540 0
DWIDTH 9 0
BBX 9 16 0 -3
BITMAP
0000
0000
0000
0000
0001
1802
2404
4204
4202
2401
1800
0000
0000
0000
0000
000E
ENDCHAR
STARTCHAR INVERSE BULLET
ENCODING 9688
SWIDTH 540 0
DWIDTH 9 0
BBX 9 16 0 -3
BITMAP
FF0F
FF0F
FF0F
FF0F
FF0F
FF0E
E70C
C30C
C30E
E70F
FF0F
FF0F
FF0F
FF0F
FF0F
FF0E
ENDCHAR
STARTCHAR INVERSE WHITE CIRCLE
ENCODING 9689
SWIDTH 540 0
DWIDTH 9 0
BBX 9 16 0 -3
BITMAP
FF0F
FF0F
FF0F
FF0F
FF0E
E70D
DB0B
BD0B
BD0D
DB0E
E70F
FF0F
FF0F
FF0F
FF0F
FF0E
ENDCHAR
STARTCHAR WHITE SMILING FACE
ENCODING 9786
SWIDTH 540 0
DWIDTH 9 0
BBX 9 16 0 -3
BITMAP
0000
0000
0000
0003
3603
3600
0000
0000
0000
0006
6306
6303
3E00
0000
0000
000E
ENDCHAR
STARTCHAR BLACK SMILING FACE
ENCODING 9787
SWIDTH 540 0
DWIDTH 9 0
BBX 9 16 0 -3
BITMAP
0000
0003
3E07
7F04
4904
4907
7F07
7F07
7F07
7F01
1C01
1C04
4107
7F03
3E00
000E
ENDCHAR
STARTCHAR WHITE SUN WITH RAYS
ENCODING 9788
SWIDTH 540 0
DWIDTH 9 0
BBX 9 16 0 -3
BITMAP
0000
0000
0000
0001
1209
9405
5802
270E
E401
1A02
2904
4800
0000
0000
0000
000E
ENDCHAR
STARTCHAR FEMALE SIGN
ENCODING 9792
SWIDTH 540 0
DWIDTH 9 0
BBX 9 16 0 -3
BITMAP
0000
0000
0003
3E06
6306
6306
6306
6303
3E00
0803
3E00
0800
0800
0000
0000
000E
ENDCHAR
STARTCHAR MALE SIGN
ENCODING 9794
SWIDTH 540 0
DWIDTH 9 0
BBX 9 16 0 -3
BITMAP
0000
0000
0001
1F00
0700
0F01
1B03
3E06
6306
6306
6306
6303
3E00
0000
0000
000E
ENDCHAR
STARTCHAR BLACK SPADE SUIT
ENCODING 9824
SWIDTH 540 0
DWIDTH 9 0
BBX 9 16 0 -3
BITMAP
0000
0000
0000
0000
0000
0801
1C03
3E07
7F07
7F03
3600
0801
1C00
0000
0000
000E
ENDCHAR
STARTCHAR BLACK CLUB SUIT
ENCODING 9827
SWIDTH 540 0
DWIDTH 9 0
BBX 9 16 0 -3
BITMAP
0000
0000
0000
0000
0000
0801
1C01
1C03
3607
7F03
3600
0801
1C00
0000
0000
000E
ENDCHAR
STARTCHAR BLACK HEART SUIT
ENCODING 9829
SWIDTH 540 0
DWIDTH 9 0
BBX 9 16 0 -3
BITMAP
0000
0000
0000
0000
0003
3607
7F07
7F07
7F07
7F03
3E01
1C00
0800
0000
0000
000E
ENDCHAR
STARTCHAR BLACK DIAMOND SUIT
ENCODING 9830
SWIDTH 540 0
DWIDTH 9 0
BBX 9 16 0 -3
BITMAP
0000
0000
0000
0000
0000
0801
1C03
3E07
7F07
7F03
3E01
1C00
0800
0000
0000
000E
ENDCHAR
STARTCHAR EIGHTH NOTE
ENCODING 9834
SWIDTH 540 0
DWIDTH 9 0
BBX 9 16 0 -3
BITMAP
0000
0000
0000
0001
1801
1C01
1E01
1B01
1B01
1E03
3807
7803
3000
0000
0000
000E
ENDCHAR
STARTCHAR BEAMED EIGHTH NOTES
ENCODING 9835
SWIDTH 540 0
DWIDTH 9 0
BBX 9 16 0 -3
BITMAP
0000
0000
0000
0003
3003
3F03
3303
3303
3303
3307
730F
F706
6F00
0700
0000
000E
ENDCHAR
STARTCHAR POWERLINE BRANCH
ENCODING 57504
SWIDTH 540 0
DWIDTH 9 0
BBX 9 16 0 -3
BITMAP
6006
6006
6006
6006
6000
0C01
1E03
3F00
0C00
0C01
1803
3006
6006
6006
6006
600E
ENDCHAR
STARTCHAR POWERLINE LINE NUMBER
ENCODING 57505
SWIDTH 540 0
DWIDTH 9 0
BBX 9 16 0 -3
BITMAP
6006
6006
6006
6006
6006
6006
6007
7E03
3303
3303
3B03
3B03
3703
3703
3303
330E
ENDCHAR
STARTCHAR POWERLINE LOCK
ENCODING 57506
SWIDTH 540 0
DWIDTH 9 0
BBX 9 16 0 -3
BITMAP
0001
1C03
3603
3603
3603
3607
7F07
7F07
7707
7707
7707
7F07
7F07
7F03
3E00
000E
ENDCHAR
STARTCHAR POWERLINE BLACK RIGHT-POINTING POINTER
ENCODING 57520
SWIDTH 540 0
DWIDTH 9 0
BBX 9 16 0 -3
BITMAP
800C
C00E
E00F
F00F
F80F
FC0F
FE0F
FF0F
FF0F
FE0F
FC0F
F80F
F00E
E00C
C008
800E
ENDCHAR
STARTCHAR POWERLINE RIGHT-POINTING POINTER
ENCODING 57521
SWIDTH 540 0
DWIDTH 9 0
BBX 9 16 0 -3
BITMAP
800C
C006
6003
3001
1800
0C00
0600
0300
0300
0600
0C01
1803
3006
600C
C008
800E
ENDCHAR
STARTCHAR POWERLINE BLACK LEFT-POINTING POINTER
ENCODING 57522
SWIDTH 540 0
DWIDTH 9 0
BBX 9 16 0 -3
BITMAP
0100
0300
0700
0F01
1F03
3F07
7F0F
FF0F
FF07
7F03
3F01
1F00
0F00
0700
0300
010E
ENDCHAR
STARTCHAR POWERLINE LEFT-POINTING POINTER
ENCODING 57523
SWIDTH 540 0
DWIDTH 9 0
BBX 9 16 0 -3
BITMAP
0100
0300
0600
0C01
1803
3006
600C
C00C
C006
6003
3001
1800
0C00
0600
0300
010E
ENDCHAR
STARTCHAR REPLACEMENT CHARACTER
ENCODING 65533
SWIDTH 540 0
DWIDTH 9 0
BBX 9 16 0 -3
BITMAP
0000
0000
0801
1C03
3E04
4307
7907
7907
7307
7F06
6706
6703
3E01
1C00
0800
000E
ENDCHAR
STARTCHAR char65535
ENCODING 65535
SWIDTH 540 0
DWIDTH 9 0
BBX 9 16 0 -3
BITMAP
0000
0007
7F06
6306
6307
7707
7706
6B07
7707
7706
6306
6307
7F00
0000
0000
000E
ENDCHAR
ENDFONT
